<svg viewBox="0 0 17 9" fill="none" xmlns="http://www.w3.org/2000/svg">
<path d="M1.5 3.87676C1.19624 3.87676 0.95 4.123 0.95 4.42676C0.95 4.73051 1.19624 4.97676 1.5 4.97676L1.5 3.87676ZM15.8889 4.81567C16.1037 4.60088 16.1037 4.25264 15.8889 4.03785L12.3887 0.537671C12.1739 0.322883 11.8257 0.322883 11.6109 0.537671C11.3961 0.75246 11.3961 1.1007 11.6109 1.31549L14.7222 4.42676L11.6109 7.53803C11.3961 7.75282 11.3961 8.10106 11.6109 8.31585C11.8257 8.53063 12.1739 8.53063 12.3887 8.31585L15.8889 4.81567ZM1.5 4.97676L15.5 4.97676L15.5 3.87676L1.5 3.87676L1.5 4.97676Z" fill="#293F76"/>
</svg>
