<svg width="2452" height="1780" viewBox="0 0 2452 1780" fill="none" xmlns="http://www.w3.org/2000/svg">
<path fill-rule="evenodd" clip-rule="evenodd" d="M1094.55 600.016C1094.55 326.894 873.137 105.486 600.015 105.486C326.894 105.486 105.485 326.894 105.485 600.016C105.485 873.137 326.894 1094.55 600.015 1094.55C873.137 1094.55 1094.55 873.138 1094.55 600.016ZM600.015 13C924.215 13 1187.03 275.816 1187.03 600.016C1187.03 924.216 924.215 1187.03 600.015 1187.03C275.815 1187.03 12.9995 924.216 12.9995 600.016C12.9995 275.816 275.815 13 600.015 13Z" fill="#FBBD4F" stroke="white" stroke-width="25" stroke-miterlimit="10"/>
<path fill-rule="evenodd" clip-rule="evenodd" d="M2346.04 1119.76C2346.04 813.644 2097.88 565.486 1791.76 565.486C1485.64 565.486 1237.48 813.644 1237.48 1119.76C1237.48 1425.88 1485.64 1674.04 1791.76 1674.04C2097.88 1674.04 2346.04 1425.88 2346.04 1119.76ZM1791.76 473C2148.96 473 2438.52 762.565 2438.52 1119.76C2438.52 1476.96 2148.96 1766.52 1791.76 1766.52C1434.56 1766.52 1145 1476.96 1145 1119.76C1145 762.565 1434.56 473 1791.76 473Z" fill="#9E5987" stroke="white" stroke-width="25" stroke-miterlimit="10"/>
</svg>
