<svg width="479" height="531" viewBox="0 0 479 531" fill="none" xmlns="http://www.w3.org/2000/svg">
<ellipse cx="239" cy="265.5" rx="212" ry="211.5" stroke="#EBA607" stroke-width="3"/>
<circle cx="239" cy="264" r="108" fill="#D9DEEF"/>
<circle cx="239.5" cy="464.5" r="66.5" fill="#8B3B70"/>
<text fill="white" xml:space="preserve" style="white-space: pre" font-family="Proxima Nova" font-size="17.3401" letter-spacing="0em"><tspan x="188.302" y="471.797">Technology &#38; </tspan><tspan x="205.803" y="492.605">Analytics</tspan></text>
<g clip-path="url(#clip0_1_10)">
<path d="M236.108 442.158C236.524 442.376 236.997 442.5 237.5 442.5C238.328 442.5 239.078 442.164 239.621 441.621M236.108 442.158C235.152 441.656 234.5 440.654 234.5 439.5C234.5 437.843 235.843 436.5 237.5 436.5C239.157 436.5 240.5 437.843 240.5 439.5C240.5 440.328 240.164 441.078 239.621 441.621M236.108 442.158L233.392 447.342M233.392 447.342C232.976 447.124 232.503 447 232 447C230.343 447 229 448.343 229 450C229 451.657 230.343 453 232 453C233.657 453 235 451.657 235 450C235 448.846 234.348 447.844 233.392 447.342ZM239.621 441.621L242.879 444.879M242.879 444.879C242.336 445.422 242 446.172 242 447C242 448.657 243.343 450 245 450C246.657 450 248 448.657 248 447C248 445.575 247.007 444.382 245.675 444.076M242.879 444.879C243.422 444.336 244.172 444 245 444C245.232 444 245.458 444.026 245.675 444.076M245.675 444.076L247.325 436.924M247.325 436.924C247.542 436.974 247.768 437 248 437C249.657 437 251 435.657 251 434C251 432.343 249.657 431 248 431C246.343 431 245 432.343 245 434C245 435.425 245.993 436.618 247.325 436.924Z" stroke="white" stroke-width="1.5" stroke-linecap="round" stroke-linejoin="round"/>
</g>
<circle cx="239" cy="65" r="65" fill="#8B3B70"/>
<text fill="white" xml:space="preserve" style="white-space: pre" font-family="Proxima Nova" font-size="14.4501" letter-spacing="0em"><tspan x="221.029" y="56.164">Payor&#10;</tspan><tspan x="200.37" y="73.5041">Contracting &#x2028;</tspan><tspan x="217.36" y="90.8442">&#38; Care&#x2028;</tspan><tspan x="198.035" y="108.184">Coordination</tspan></text>
<g clip-path="url(#clip1_1_10)">
<path fill-rule="evenodd" clip-rule="evenodd" d="M237.5 18C236.948 18 236.5 18.4477 236.5 19V21.3984C236.117 21.5241 235.748 21.6779 235.393 21.8574L233.697 20.1611C233.306 19.7706 232.673 19.7706 232.282 20.1611L230.161 22.2825C229.771 22.673 229.771 23.3061 230.161 23.6967L231.857 25.3929C231.678 25.7476 231.524 26.1174 231.398 26.4999H229C228.448 26.4999 228 26.9476 228 27.4999V30.4999C228 31.0522 228.448 31.4999 229 31.4999H231.398C231.524 31.8825 231.678 32.2524 231.857 32.6072L230.161 34.3033C229.771 34.6939 229.771 35.327 230.161 35.7176L232.283 37.8389C232.673 38.2294 233.306 38.2294 233.697 37.8389L235.393 36.1426C235.748 36.3221 236.117 36.4759 236.5 36.6016V39C236.5 39.5523 236.948 40 237.5 40H240.5C241.052 40 241.5 39.5523 241.5 39V36.6016C241.883 36.4759 242.252 36.3221 242.607 36.1426L244.303 37.8388C244.694 38.2293 245.327 38.2293 245.717 37.8388L247.839 35.7175C248.229 35.327 248.229 34.6938 247.839 34.3033L246.143 32.6071C246.322 32.2524 246.476 31.8825 246.602 31.4999H249C249.552 31.4999 250 31.0522 250 30.4999V27.4999C250 26.9476 249.552 26.4999 249 26.4999H246.602C246.476 26.1174 246.322 25.7476 246.143 25.393L247.839 23.6967C248.229 23.3062 248.229 22.6731 247.839 22.2825L245.718 20.1612C245.327 19.7707 244.694 19.7707 244.303 20.1612L242.607 21.8574C242.252 21.678 241.883 21.5241 241.5 21.3984V19C241.5 18.4477 241.052 18 240.5 18H237.5ZM239 32C240.657 32 242 30.6569 242 29C242 27.3431 240.657 26 239 26C237.343 26 236 27.3431 236 29C236 30.6569 237.343 32 239 32Z" stroke="white" stroke-width="1.5" stroke-linecap="round" stroke-linejoin="round"/>
</g>
<circle cx="67.2207" cy="165.783" r="66.5" fill="#8B3B70"/>
<text transform="translate(16 147.283)" fill="white" xml:space="preserve" style="white-space: pre" font-family="Proxima Nova" font-size="17.3401" letter-spacing="0em"><tspan x="16.3805" y="15.7968">Growth &#38; </tspan><tspan x="8.75188" y="36.6049">Community </tspan><tspan x="16.5244" y="57.413">Outreach</tspan></text>
<g clip-path="url(#clip2_1_10)">
<path d="M72.5384 144L63.4609 144M72.5384 144L78.9592 144C78.982 144 79.0005 143.981 79.0002 143.959C78.978 141.702 77.1419 139.88 74.8802 139.88C73.6018 139.88 72.4594 140.462 71.7036 141.376M72.5384 144V143.954C72.529 142.994 72.2213 142.105 71.7036 141.376M63.4609 144H57.0411C57.0184 144 56.9999 143.981 57.0001 143.959C57.0223 141.702 58.8584 139.88 61.1201 139.88C62.3982 139.88 63.5404 140.462 64.2962 141.375M63.4609 144V143.954C63.4704 142.994 63.7782 142.105 64.2962 141.375M71.7036 141.376C70.8812 140.217 69.5288 139.461 67.9997 139.461C66.4709 139.461 65.1186 140.217 64.2962 141.375M68.3333 122C68.8856 122 69.3333 122.448 69.3333 123V124.567C69.3333 124.622 69.3781 124.667 69.4333 124.667L71 124.667C71.5523 124.667 72 125.114 72 125.667V126.333C72 126.886 71.5523 127.333 71 127.333H69.4333C69.3781 127.333 69.3333 127.378 69.3333 127.433V129C69.3333 129.552 68.8856 130 68.3333 130H67.6667C67.1144 130 66.6667 129.552 66.6667 129V127.433C66.6667 127.378 66.6219 127.333 66.5667 127.333H65C64.4477 127.333 64 126.886 64 126.333V125.667C64 125.114 64.4477 124.667 65 124.667L66.5667 124.667C66.6219 124.667 66.6667 124.622 66.6667 124.567V123C66.6667 122.448 67.1144 122 67.6667 122H68.3333ZM70.0403 135.204C70.0403 136.332 69.1258 137.246 67.9977 137.246C66.8697 137.246 65.9552 136.332 65.9552 135.204C65.9552 134.076 66.8697 133.161 67.9977 133.161C69.1258 133.161 70.0403 134.076 70.0403 135.204ZM62.9725 136.015C62.9725 137.039 62.1423 137.869 61.1184 137.869C60.0944 137.869 59.2643 137.039 59.2643 136.015C59.2643 134.991 60.0944 134.161 61.1184 134.161C62.1423 134.161 62.9725 134.991 62.9725 136.015ZM76.7326 136.015C76.7326 137.039 75.9025 137.869 74.8785 137.869C73.8545 137.869 73.0244 137.039 73.0244 136.015C73.0244 134.991 73.8545 134.161 74.8785 134.161C75.9025 134.161 76.7326 134.991 76.7326 136.015Z" stroke="white" stroke-width="1.5"/>
</g>
<circle cx="413.449" cy="365.101" r="65" fill="#8B3B70"/>
<text transform="translate(347 352.101)" fill="white" xml:space="preserve" style="white-space: pre" font-family="Proxima Nova" font-size="14.4501" letter-spacing="0em"><tspan x="49.5108" y="13.164">EMR/&#x2028;</tspan><tspan x="18.5504" y="30.5041">Revenue Cycle </tspan><tspan x="26.0577" y="47.8442">Optimization</tspan></text>
<g clip-path="url(#clip3_1_10)">
<path d="M415.246 335.75C415.246 334.625 414.147 333.5 412.458 333.5C410.768 333.5 409.71 334.494 409.71 335.542C409.71 336.591 410.471 337.503 412.458 337.789C414.246 338.047 415.551 338.616 415.551 340.25C415.551 341.561 414.085 342.5 412.458 342.5C410.83 342.5 409.551 341.823 409.551 340.25" stroke="white" stroke-width="1.5" stroke-linecap="round" stroke-linejoin="round"/>
<path d="M412.551 332L412.551 344" stroke="white" stroke-width="1.5" stroke-linecap="round" stroke-linejoin="round"/>
<path d="M405.552 346.486C403.108 344.469 401.551 341.416 401.551 338C401.551 331.925 406.476 327 412.551 327C413.962 327 415.311 327.266 416.551 327.75M405.552 346.486L402.273 346.679M405.552 346.486L405.744 343.208M408.551 348.25C409.791 348.734 411.14 349 412.551 349C418.626 349 423.551 344.075 423.551 338C423.551 334.584 421.993 331.531 419.55 329.514M419.55 329.514L422.828 329.321M419.55 329.514L419.357 332.792" stroke="white" stroke-width="1.5" stroke-linecap="round" stroke-linejoin="round"/>
</g>
<circle cx="412.266" cy="165.783" r="66.5" fill="#8B3B70"/>
<text transform="translate(352 157.717)" fill="white" xml:space="preserve" style="white-space: pre" font-family="Proxima Nova" font-size="17.3401" letter-spacing="0em"><tspan x="5.32159" y="15.7968">Organizational </tspan><tspan x="10.571" y="36.6049">Sustainability</tspan></text>
<g clip-path="url(#clip4_1_10)">
<path d="M413 151C411.895 151 411 151.895 411 153C411 154.105 411.895 155 413 155C414.105 155 415 154.105 415 153C415 151.895 414.105 151 413 151ZM413 151V139M422 151C420.895 151 420 151.895 420 153C420 154.105 420.895 155 422 155C423.105 155 424 154.105 424 153C424 151.895 423.105 151 422 151ZM422 151V145C422 144.448 421.552 144 421 144H405C404.448 144 404 144.448 404 145L404 151M404 151C402.895 151 402 151.895 402 153C402 154.105 402.895 155 404 155C405.105 155 406 154.105 406 153C406 151.895 405.105 151 404 151ZM407 139H419C419.552 139 420 138.552 420 138V134C420 133.448 419.552 133 419 133H407C406.448 133 406 133.448 406 134V138C406 138.552 406.448 139 407 139Z" stroke="white" stroke-width="1.5" stroke-linecap="round" stroke-linejoin="round"/>
</g>
<circle cx="66.0391" cy="365.101" r="65" fill="#8B3B70"/>
<text transform="translate(0 357.101)" fill="white" xml:space="preserve" style="white-space: pre" font-family="Proxima Nova" font-size="17.3401" letter-spacing="0em"><tspan x="32.4036" y="15.7968">Financial&#x2028;</tspan><tspan x="35.3585" y="36.6049">Security</tspan></text>
<g clip-path="url(#clip5_1_10)">
<path d="M68.7322 340.6C68.7322 338.995 67.9954 337.6 65.9415 337.6C63.8875 337.6 63.2322 338.816 63.2322 340.1C63.2322 341.384 63.9822 342.5 65.9415 342.85C67.7042 343.166 69.2322 343.728 69.2322 345.728C69.2322 347.333 67.5461 348.616 65.9415 348.616C64.3368 348.616 62.7322 347.654 62.7322 345.728M65.9415 336.1V349.9M76.9609 343C76.9609 349.075 72.0361 354 65.9609 354C59.8858 354 54.9609 349.075 54.9609 343C54.9609 336.925 59.8858 332 65.9609 332C72.0361 332 76.9609 336.925 76.9609 343Z" stroke="white" stroke-width="1.5" stroke-linecap="round" stroke-linejoin="round"/>
</g>
<text transform="translate(165 278.42)" fill="#293F76" xml:space="preserve" style="white-space: pre" font-family="Proxima Nova" font-size="14.4501" letter-spacing="0em"><tspan x="0.493706" y="13.164">Improved outcomes for </tspan><tspan x="14.337" y="30.5041">providers and their </tspan><tspan x="47.0966" y="47.8442">patients.</tspan></text>
<path fill-rule="evenodd" clip-rule="evenodd" d="M169.409 223.597C165.034 223.597 161.487 227.144 161.487 231.519C161.487 235.894 165.034 239.441 169.409 239.441C173.784 239.441 177.331 235.894 177.331 231.519C177.331 227.144 173.784 223.597 169.409 223.597ZM159.047 231.519C159.047 225.796 163.686 221.157 169.409 221.157C175.131 221.157 179.771 225.796 179.771 231.519C179.771 237.242 175.131 241.881 169.409 241.881C163.686 241.881 159.047 237.242 159.047 231.519Z" fill="#004589"/>
<path fill-rule="evenodd" clip-rule="evenodd" d="M203.128 219.44C197.356 219.44 192.676 224.12 192.676 229.892C192.676 235.665 197.356 240.345 203.128 240.345C208.901 240.345 213.581 235.665 213.581 229.892C213.581 224.12 208.901 219.44 203.128 219.44ZM190.236 229.892C190.236 222.772 196.008 217 203.128 217C210.248 217 216.021 222.772 216.021 229.892C216.021 237.012 210.248 242.785 203.128 242.785C196.008 242.785 190.236 237.012 190.236 229.892Z" fill="#007E59"/>
<path fill-rule="evenodd" clip-rule="evenodd" d="M203.128 252.141C198.754 252.141 195.206 255.689 195.206 260.063C195.206 264.437 198.754 267.985 203.128 267.985C207.502 267.985 211.05 264.437 211.05 260.063C211.05 255.689 207.502 252.141 203.128 252.141ZM192.766 260.063C192.766 254.341 197.406 249.701 203.128 249.701C208.85 249.701 213.49 254.341 213.49 260.063C213.49 265.785 208.85 270.425 203.128 270.425C197.406 270.425 192.766 265.785 192.766 260.063Z" fill="#00667C"/>
<path fill-rule="evenodd" clip-rule="evenodd" d="M161.487 236.604C154.283 236.604 148.44 242.447 148.44 249.651C148.44 256.855 154.283 262.698 161.487 262.698C168.691 262.698 174.534 256.858 174.534 249.651C174.534 242.447 168.691 236.604 161.487 236.604ZM146 249.651C146 241.099 152.935 234.164 161.487 234.164C170.039 234.164 176.974 241.099 176.974 249.651C176.974 258.206 170.038 265.138 161.487 265.138C152.935 265.138 146 258.203 146 249.651Z" fill="#F5AD19"/>
<path fill-rule="evenodd" clip-rule="evenodd" d="M186.472 230.554C178.395 230.554 171.848 237.101 171.848 245.178C171.848 253.254 178.395 259.801 186.472 259.801C194.548 259.801 201.095 253.254 201.095 245.178C201.095 237.101 194.548 230.554 186.472 230.554ZM169.408 245.178C169.408 235.754 177.048 228.114 186.472 228.114C195.895 228.114 203.535 235.754 203.535 245.178C203.535 254.601 195.895 262.241 186.472 262.241C177.048 262.241 169.408 254.601 169.408 245.178Z" fill="#933A79"/>
<path d="M192.897 232.147L190.306 231.096C190.306 231.096 190.232 230.514 190.249 229.808C190.263 229.24 190.333 228.521 190.333 228.521L192.672 229.227C192.672 229.227 192.645 229.865 192.672 230.349C192.719 231.18 192.894 232.151 192.894 232.151" fill="#007E59"/>
<path d="M198.037 253.993L197.825 251.167C197.825 251.167 199.008 250.4 200.419 250.041C202.211 249.584 203.246 249.708 203.246 249.708L202.443 252.175C202.443 252.175 201.297 252.212 200.191 252.619C199.273 252.955 198.04 253.993 198.04 253.993" fill="#00667C"/>
<path d="M176.796 234.409C176.796 234.409 177.28 233.462 177.337 232.211C177.381 231.26 177.304 230.685 177.304 230.685C177.304 230.685 177.734 230.37 178.369 230.06C178.88 229.812 179.566 229.536 179.566 229.536C179.566 229.536 179.717 230.178 179.73 230.995C179.744 231.835 179.73 232.356 179.73 232.356C179.73 232.356 178.819 232.799 178.399 233.045C177.684 233.468 176.793 234.406 176.793 234.406" fill="#004589"/>
<path d="M174.232 252.535C174.232 252.535 174.423 253.328 175.17 254.333C175.563 254.86 175.949 255.176 175.949 255.176C175.949 255.176 175.653 255.969 175.415 256.45C175.119 257.041 174.77 257.613 174.77 257.613C174.77 257.613 174.131 257.089 173.882 256.82C173.439 256.339 173.032 255.785 173.032 255.785C173.032 255.785 173.345 255.23 173.677 254.4C173.987 253.627 174.232 252.535 174.232 252.535Z" fill="#F5AD19"/>
<path fill-rule="evenodd" clip-rule="evenodd" d="M175.977 240.597C176.221 240.364 176.607 240.372 176.84 240.615C178.987 242.855 182.612 242.576 184.582 240.606C184.82 240.367 185.207 240.367 185.445 240.606C185.683 240.844 185.683 241.23 185.445 241.468C183.053 243.86 178.638 244.254 175.959 241.459C175.726 241.216 175.734 240.83 175.977 240.597ZM187.64 240.597C187.883 240.364 188.269 240.372 188.502 240.615C190.649 242.855 194.274 242.576 196.244 240.606C196.483 240.367 196.869 240.367 197.107 240.606C197.345 240.844 197.345 241.23 197.107 241.468C194.715 243.86 190.301 244.254 187.621 241.459C187.388 241.216 187.396 240.83 187.64 240.597ZM178.928 252.467C179.171 252.234 179.558 252.242 179.791 252.485C183.494 256.349 189.716 255.852 193.092 252.476C193.33 252.238 193.716 252.238 193.955 252.476C194.193 252.714 194.193 253.101 193.955 253.339C190.158 257.136 183.145 257.748 178.91 253.33C178.677 253.087 178.685 252.7 178.928 252.467Z" fill="#933A79"/>
<path d="M220.599 238.456H224.373C228.187 238.456 230.476 240.442 230.476 243.736C230.476 247.029 228.167 248.996 224.373 248.996H223.408V252.108H220.599V238.456ZM224.292 246.525C226.581 246.525 227.586 245.601 227.586 243.736C227.586 241.87 226.541 240.926 224.292 240.926H223.408V246.529H224.292V246.525Z" fill="#004589"/>
<path d="M232.782 238.456H241.819V240.923H235.595V245.262H241.077V247.671H235.595V249.637H242.098V252.108H232.782V238.456Z" fill="#004589"/>
<path d="M244.827 238.456H249.025C253.219 238.456 256.214 241.245 256.214 245.282C256.214 249.318 253.243 252.108 249.025 252.108H244.827V238.456ZM248.883 249.637C251.915 249.637 253.3 247.829 253.3 245.282C253.3 242.734 251.915 240.926 248.883 240.926H247.64V249.641H248.883V249.637Z" fill="#004589"/>
<path d="M261.571 238.456H258.761V252.108H261.571V238.456Z" fill="#004589"/>
<path d="M269.584 238.335H269.826L276.07 252.108H273.119L272.477 250.562H266.935L266.293 252.108H263.581L269.584 238.335ZM271.469 248.212L270.484 245.843C270.084 244.878 269.661 243.393 269.661 243.393C269.661 243.393 269.261 244.878 268.858 245.843L267.873 248.212H271.466H271.469Z" fill="#004589"/>
<path d="M279.239 240.923H275.343V238.456H285.944V240.923H282.048V252.108H279.239V240.923Z" fill="#004589"/>
<path d="M298.211 252.108H294.958L292.709 248.656C292.447 248.696 292.168 248.717 291.906 248.717H290.942V252.111H288.132V238.459H291.906C295.721 238.459 298.01 240.288 298.01 243.618C298.01 245.746 297.065 247.09 295.378 247.853L298.208 252.108H298.211ZM291.826 246.267C294.114 246.267 295.119 245.544 295.119 243.618C295.119 241.692 294.074 240.929 291.826 240.929H290.942V246.27H291.826V246.267Z" fill="#004589"/>
<path d="M303.448 238.456H300.638V252.108H303.448V238.456Z" fill="#004589"/>
<path d="M305.998 245.282C305.998 241.245 309.11 238.295 313.026 238.295C315.496 238.295 317.26 239.178 318.487 241.084L316.339 242.61C315.697 241.565 314.592 240.822 313.026 240.822C310.555 240.822 308.888 242.731 308.888 245.278C308.888 247.826 310.555 249.775 313.026 249.775C314.793 249.775 315.775 248.932 316.538 247.769L318.726 249.275C317.543 251.123 315.654 252.286 313.026 252.286C309.11 252.286 305.998 249.315 305.998 245.278" fill="#004589"/>
<path d="M325.334 238.335H325.576L331.82 252.108H328.869L328.227 250.562H322.685L322.043 252.108H319.334L325.337 238.335H325.334ZM327.219 248.212L326.234 245.843C325.831 244.878 325.411 243.393 325.411 243.393C325.411 243.393 325.011 244.878 324.608 245.843L323.623 248.212H327.216H327.219Z" fill="#004589"/>
<defs>
<clipPath id="clip0_1_10">
<rect width="24" height="24" fill="white" transform="translate(228 430)"/>
</clipPath>
<clipPath id="clip1_1_10">
<rect width="24" height="24" fill="white" transform="translate(227 17)"/>
</clipPath>
<clipPath id="clip2_1_10">
<rect width="24" height="24" fill="white" transform="translate(56 121)"/>
</clipPath>
<clipPath id="clip3_1_10">
<rect width="24" height="24" fill="white" transform="translate(400.551 326)"/>
</clipPath>
<clipPath id="clip4_1_10">
<rect width="24" height="24" fill="white" transform="translate(401 132)"/>
</clipPath>
<clipPath id="clip5_1_10">
<rect width="24" height="24" fill="white" transform="translate(53.9609 331)"/>
</clipPath>
</defs>
</svg>
