<svg id="pediatrica-provider" viewBox="0 0 479 531" fill="none" xmlns="http://www.w3.org/2000/svg">
  <ellipse class="outline" cx="239" cy="265.5" rx="212" ry="211.5" stroke="#EBA607" stroke-width="3" />
  <circle class="bg" cx="239" cy="264" r="108" fill="#D9DEEF" />
  <g class="content">
    <g id="Group 5898">
      <path id="Improved outcomes for providers and their patients."
        d="M167.82 291.42H166.621V281.782H167.82V291.42ZM179.543 291.42H178.459V286.68C178.459 285.799 178.069 285.235 177.173 285.235C176.451 285.235 175.685 285.755 175.323 286.305V291.42H174.24V286.68C174.24 285.799 173.864 285.235 172.954 285.235C172.246 285.235 171.494 285.755 171.119 286.319V291.42H170.035V284.44H171.119V285.452C171.408 285.004 172.347 284.267 173.373 284.267C174.442 284.267 175.049 284.845 175.251 285.568C175.641 284.932 176.581 284.267 177.592 284.267C178.864 284.267 179.543 284.975 179.543 286.377V291.42ZM182.789 290.365V294.079H181.705V284.44H182.789V285.481C183.294 284.773 184.161 284.267 185.144 284.267C186.979 284.267 188.251 285.654 188.251 287.923C188.251 290.177 186.979 291.593 185.144 291.593C184.19 291.593 183.352 291.145 182.789 290.365ZM187.109 287.923C187.109 286.377 186.271 285.235 184.869 285.235C184.017 285.235 183.164 285.741 182.789 286.348V289.498C183.164 290.105 184.017 290.625 184.869 290.625C186.271 290.625 187.109 289.469 187.109 287.923ZM191.086 291.42H190.002V284.44H191.086V285.568C191.65 284.831 192.459 284.296 193.413 284.296V285.409C193.283 285.38 193.153 285.365 192.979 285.365C192.314 285.365 191.404 285.914 191.086 286.478V291.42ZM197.821 291.593C195.697 291.593 194.367 289.946 194.367 287.923C194.367 285.9 195.697 284.267 197.821 284.267C199.945 284.267 201.275 285.9 201.275 287.923C201.275 289.946 199.945 291.593 197.821 291.593ZM197.821 290.625C199.309 290.625 200.133 289.353 200.133 287.923C200.133 286.507 199.309 285.235 197.821 285.235C196.333 285.235 195.495 286.507 195.495 287.923C195.495 289.353 196.333 290.625 197.821 290.625ZM206.09 291.42H204.905L202.001 284.44H203.171L205.498 290.163L207.81 284.44H208.995L206.09 291.42ZM209.721 287.923C209.721 285.9 211.166 284.267 213.16 284.267C215.269 284.267 216.512 285.914 216.512 288.01V288.284H210.862C210.949 289.599 211.874 290.697 213.377 290.697C214.171 290.697 214.98 290.379 215.53 289.816L216.05 290.524C215.356 291.218 214.417 291.593 213.275 291.593C211.209 291.593 209.721 290.105 209.721 287.923ZM213.145 285.163C211.657 285.163 210.92 286.42 210.862 287.489H215.443C215.428 286.449 214.735 285.163 213.145 285.163ZM224.409 291.42H223.325V290.379C222.805 291.088 221.952 291.593 220.97 291.593C219.149 291.593 217.863 290.206 217.863 287.937C217.863 285.712 219.135 284.267 220.97 284.267C221.909 284.267 222.762 284.729 223.325 285.495V281.782H224.409V291.42ZM223.325 289.527V286.362C222.935 285.755 222.097 285.235 221.23 285.235C219.828 285.235 218.99 286.391 218.99 287.937C218.99 289.484 219.828 290.625 221.23 290.625C222.097 290.625 222.935 290.134 223.325 289.527ZM233.354 291.593C231.229 291.593 229.9 289.946 229.9 287.923C229.9 285.9 231.229 284.267 233.354 284.267C235.478 284.267 236.807 285.9 236.807 287.923C236.807 289.946 235.478 291.593 233.354 291.593ZM233.354 290.625C234.842 290.625 235.666 289.353 235.666 287.923C235.666 286.507 234.842 285.235 233.354 285.235C231.865 285.235 231.027 286.507 231.027 287.923C231.027 289.353 231.865 290.625 233.354 290.625ZM244.368 291.42H243.285V290.437C242.75 291.044 241.84 291.593 240.799 291.593C239.34 291.593 238.574 290.885 238.574 289.368V284.44H239.658V289.036C239.658 290.264 240.279 290.625 241.218 290.625C242.071 290.625 242.88 290.134 243.285 289.57V284.44H244.368V291.42ZM248.296 291.593C247.27 291.593 246.749 291.001 246.749 289.96V285.394H245.593V284.44H246.749V282.533H247.833V284.44H249.249V285.394H247.833V289.729C247.833 290.249 248.064 290.625 248.541 290.625C248.845 290.625 249.134 290.495 249.278 290.336L249.596 291.145C249.322 291.405 248.931 291.593 248.296 291.593ZM250.376 287.923C250.376 285.857 251.777 284.267 253.858 284.267C255.13 284.267 255.881 284.787 256.416 285.481L255.693 286.146C255.231 285.51 254.638 285.235 253.916 285.235C252.428 285.235 251.503 286.377 251.503 287.923C251.503 289.469 252.428 290.625 253.916 290.625C254.638 290.625 255.231 290.336 255.693 289.715L256.416 290.379C255.881 291.073 255.13 291.593 253.858 291.593C251.777 291.593 250.376 290.004 250.376 287.923ZM260.984 291.593C258.859 291.593 257.53 289.946 257.53 287.923C257.53 285.9 258.859 284.267 260.984 284.267C263.108 284.267 264.437 285.9 264.437 287.923C264.437 289.946 263.108 291.593 260.984 291.593ZM260.984 290.625C262.472 290.625 263.296 289.353 263.296 287.923C263.296 286.507 262.472 285.235 260.984 285.235C259.495 285.235 258.657 286.507 258.657 287.923C258.657 289.353 259.495 290.625 260.984 290.625ZM275.712 291.42H274.628V286.68C274.628 285.799 274.238 285.235 273.342 285.235C272.62 285.235 271.854 285.755 271.493 286.305V291.42H270.409V286.68C270.409 285.799 270.033 285.235 269.123 285.235C268.415 285.235 267.663 285.755 267.288 286.319V291.42H266.204V284.44H267.288V285.452C267.577 285.004 268.516 284.267 269.542 284.267C270.611 284.267 271.218 284.845 271.42 285.568C271.811 284.932 272.75 284.267 273.761 284.267C275.033 284.267 275.712 284.975 275.712 286.377V291.42ZM277.469 287.923C277.469 285.9 278.914 284.267 280.909 284.267C283.018 284.267 284.261 285.914 284.261 288.01V288.284H278.611C278.698 289.599 279.623 290.697 281.125 290.697C281.92 290.697 282.729 290.379 283.278 289.816L283.799 290.524C283.105 291.218 282.166 291.593 281.024 291.593C278.958 291.593 277.469 290.105 277.469 287.923ZM280.894 285.163C279.406 285.163 278.669 286.42 278.611 287.489H283.192C283.177 286.449 282.484 285.163 280.894 285.163ZM285.409 290.495L285.973 289.715C286.435 290.249 287.317 290.712 288.271 290.712C289.34 290.712 289.918 290.235 289.918 289.556C289.918 288.79 289.065 288.544 288.126 288.313C286.941 288.039 285.597 287.721 285.597 286.276C285.597 285.192 286.537 284.267 288.198 284.267C289.383 284.267 290.221 284.715 290.785 285.279L290.279 286.03C289.86 285.524 289.094 285.149 288.198 285.149C287.245 285.149 286.652 285.582 286.652 286.203C286.652 286.883 287.447 287.099 288.357 287.316C289.571 287.591 290.973 287.937 290.973 289.484C290.973 290.654 290.033 291.593 288.227 291.593C287.086 291.593 286.118 291.246 285.409 290.495ZM299.262 285.394H297.846V291.42H296.762V285.394H295.606V284.44H296.762V283.906C296.762 282.461 297.571 281.637 298.785 281.637C299.19 281.637 299.566 281.709 299.84 281.883L299.566 282.692C299.392 282.591 299.19 282.533 298.944 282.533C298.236 282.533 297.846 283.024 297.846 283.906V284.44H299.262V285.394ZM303.6 291.593C301.476 291.593 300.146 289.946 300.146 287.923C300.146 285.9 301.476 284.267 303.6 284.267C305.724 284.267 307.054 285.9 307.054 287.923C307.054 289.946 305.724 291.593 303.6 291.593ZM303.6 290.625C305.088 290.625 305.912 289.353 305.912 287.923C305.912 286.507 305.088 285.235 303.6 285.235C302.112 285.235 301.274 286.507 301.274 287.923C301.274 289.353 302.112 290.625 303.6 290.625ZM309.904 291.42H308.82V284.44H309.904V285.568C310.468 284.831 311.277 284.296 312.231 284.296V285.409C312.101 285.38 311.971 285.365 311.797 285.365C311.132 285.365 310.222 285.914 309.904 286.478V291.42ZM181.505 308.365V312.079H180.421V302.44H181.505V303.481C182.01 302.773 182.877 302.267 183.86 302.267C185.695 302.267 186.967 303.654 186.967 305.923C186.967 308.177 185.695 309.593 183.86 309.593C182.906 309.593 182.068 309.145 181.505 308.365ZM185.825 305.923C185.825 304.377 184.987 303.235 183.585 303.235C182.733 303.235 181.88 303.741 181.505 304.348V307.498C181.88 308.105 182.733 308.625 183.585 308.625C184.987 308.625 185.825 307.469 185.825 305.923ZM189.802 309.42H188.718V302.44H189.802V303.568C190.366 302.831 191.175 302.296 192.128 302.296V303.409C191.998 303.38 191.868 303.365 191.695 303.365C191.03 303.365 190.12 303.914 189.802 304.478V309.42ZM196.537 309.593C194.413 309.593 193.083 307.946 193.083 305.923C193.083 303.9 194.413 302.267 196.537 302.267C198.661 302.267 199.99 303.9 199.99 305.923C199.99 307.946 198.661 309.593 196.537 309.593ZM196.537 308.625C198.025 308.625 198.849 307.353 198.849 305.923C198.849 304.507 198.025 303.235 196.537 303.235C195.049 303.235 194.21 304.507 194.21 305.923C194.21 307.353 195.049 308.625 196.537 308.625ZM204.806 309.42H203.621L200.717 302.44H201.887L204.214 308.163L206.526 302.44H207.711L204.806 309.42ZM209.376 301.27C208.986 301.27 208.653 300.938 208.653 300.533C208.653 300.128 208.986 299.811 209.376 299.811C209.78 299.811 210.113 300.128 210.113 300.533C210.113 300.938 209.78 301.27 209.376 301.27ZM209.925 309.42H208.841V302.44H209.925V309.42ZM218.228 309.42H217.144V308.379C216.624 309.088 215.772 309.593 214.789 309.593C212.968 309.593 211.682 308.206 211.682 305.937C211.682 303.712 212.954 302.267 214.789 302.267C215.728 302.267 216.581 302.729 217.144 303.495V299.782H218.228V309.42ZM217.144 307.527V304.362C216.754 303.755 215.916 303.235 215.049 303.235C213.647 303.235 212.809 304.391 212.809 305.937C212.809 307.484 213.647 308.625 215.049 308.625C215.916 308.625 216.754 308.134 217.144 307.527ZM219.994 305.923C219.994 303.9 221.439 302.267 223.433 302.267C225.543 302.267 226.785 303.914 226.785 306.01V306.284H221.135C221.222 307.599 222.147 308.697 223.65 308.697C224.444 308.697 225.254 308.379 225.803 307.816L226.323 308.524C225.629 309.218 224.69 309.593 223.548 309.593C221.482 309.593 219.994 308.105 219.994 305.923ZM223.418 303.163C221.93 303.163 221.193 304.42 221.135 305.489H225.716C225.702 304.449 225.008 303.163 223.418 303.163ZM229.624 309.42H228.541V302.44H229.624V303.568C230.188 302.831 230.997 302.296 231.951 302.296V303.409C231.821 303.38 231.691 303.365 231.517 303.365C230.853 303.365 229.942 303.914 229.624 304.478V309.42ZM232.703 308.495L233.267 307.715C233.729 308.249 234.611 308.712 235.564 308.712C236.634 308.712 237.212 308.235 237.212 307.556C237.212 306.79 236.359 306.544 235.42 306.313C234.235 306.039 232.891 305.721 232.891 304.276C232.891 303.192 233.83 302.267 235.492 302.267C236.677 302.267 237.515 302.715 238.079 303.279L237.573 304.03C237.154 303.524 236.388 303.149 235.492 303.149C234.539 303.149 233.946 303.582 233.946 304.203C233.946 304.883 234.741 305.099 235.651 305.316C236.865 305.591 238.267 305.937 238.267 307.484C238.267 308.654 237.327 309.593 235.521 309.593C234.38 309.593 233.411 309.246 232.703 308.495ZM249.2 309.42H248.117V308.625C247.539 309.261 246.744 309.593 245.805 309.593C244.62 309.593 243.363 308.799 243.363 307.281C243.363 305.721 244.62 304.984 245.805 304.984C246.758 304.984 247.553 305.287 248.117 305.937V304.68C248.117 303.741 247.365 303.206 246.354 303.206C245.516 303.206 244.836 303.51 244.215 304.174L243.709 303.423C244.461 302.643 245.357 302.267 246.498 302.267C247.972 302.267 249.2 302.932 249.2 304.622V309.42ZM248.117 307.946V306.631C247.698 306.053 246.961 305.764 246.195 305.764C245.183 305.764 244.475 306.4 244.475 307.296C244.475 308.177 245.183 308.813 246.195 308.813C246.961 308.813 247.698 308.524 248.117 307.946ZM257.167 309.42H256.084V304.854C256.084 303.625 255.462 303.235 254.523 303.235C253.67 303.235 252.861 303.755 252.457 304.319V309.42H251.373V302.44H252.457V303.452C252.948 302.874 253.902 302.267 254.942 302.267C256.402 302.267 257.167 303.004 257.167 304.521V309.42ZM265.473 309.42H264.389V308.379C263.869 309.088 263.016 309.593 262.034 309.593C260.213 309.593 258.927 308.206 258.927 305.937C258.927 303.712 260.199 302.267 262.034 302.267C262.973 302.267 263.826 302.729 264.389 303.495V299.782H265.473V309.42ZM264.389 307.527V304.362C263.999 303.755 263.161 303.235 262.294 303.235C260.892 303.235 260.054 304.391 260.054 305.937C260.054 307.484 260.892 308.625 262.294 308.625C263.161 308.625 263.999 308.134 264.389 307.527ZM273.132 309.593C272.106 309.593 271.585 309.001 271.585 307.96V303.394H270.429V302.44H271.585V300.533H272.669V302.44H274.085V303.394H272.669V307.729C272.669 308.249 272.9 308.625 273.377 308.625C273.681 308.625 273.97 308.495 274.114 308.336L274.432 309.145C274.158 309.405 273.767 309.593 273.132 309.593ZM281.425 309.42H280.341V304.825C280.341 303.596 279.706 303.235 278.766 303.235C277.928 303.235 277.119 303.755 276.7 304.319V309.42H275.616V299.782H276.7V303.452C277.191 302.874 278.145 302.267 279.2 302.267C280.659 302.267 281.425 302.975 281.425 304.492V309.42ZM283.185 305.923C283.185 303.9 284.63 302.267 286.624 302.267C288.733 302.267 289.976 303.914 289.976 306.01V306.284H284.326C284.413 307.599 285.338 308.697 286.84 308.697C287.635 308.697 288.444 308.379 288.994 307.816L289.514 308.524C288.82 309.218 287.881 309.593 286.739 309.593C284.673 309.593 283.185 308.105 283.185 305.923ZM286.609 303.163C285.121 303.163 284.384 304.42 284.326 305.489H288.907C288.892 304.449 288.199 303.163 286.609 303.163ZM292.266 301.27C291.876 301.27 291.544 300.938 291.544 300.533C291.544 300.128 291.876 299.811 292.266 299.811C292.671 299.811 293.003 300.128 293.003 300.533C293.003 300.938 292.671 301.27 292.266 301.27ZM292.815 309.42H291.731V302.44H292.815V309.42ZM296.061 309.42H294.977V302.44H296.061V303.568C296.624 302.831 297.434 302.296 298.387 302.296V303.409C298.257 303.38 298.127 303.365 297.954 303.365C297.289 303.365 296.379 303.914 296.061 304.478V309.42ZM214.264 325.365V329.079H213.18V319.44H214.264V320.481C214.77 319.773 215.637 319.267 216.619 319.267C218.455 319.267 219.726 320.654 219.726 322.923C219.726 325.177 218.455 326.593 216.619 326.593C215.666 326.593 214.828 326.145 214.264 325.365ZM218.585 322.923C218.585 321.377 217.747 320.235 216.345 320.235C215.492 320.235 214.64 320.741 214.264 321.348V324.498C214.64 325.105 215.492 325.625 216.345 325.625C217.747 325.625 218.585 324.469 218.585 322.923ZM226.926 326.42H225.842V325.625C225.264 326.261 224.469 326.593 223.53 326.593C222.345 326.593 221.088 325.799 221.088 324.281C221.088 322.721 222.345 321.984 223.53 321.984C224.483 321.984 225.278 322.287 225.842 322.937V321.68C225.842 320.741 225.09 320.206 224.079 320.206C223.241 320.206 222.562 320.51 221.94 321.174L221.435 320.423C222.186 319.643 223.082 319.267 224.223 319.267C225.697 319.267 226.926 319.932 226.926 321.622V326.42ZM225.842 324.946V323.631C225.423 323.053 224.686 322.764 223.92 322.764C222.908 322.764 222.2 323.4 222.2 324.296C222.2 325.177 222.908 325.813 223.92 325.813C224.686 325.813 225.423 325.524 225.842 324.946ZM230.861 326.593C229.835 326.593 229.315 326.001 229.315 324.96V320.394L228.159 320.394V319.44L229.315 319.44V317.533H230.399V319.44H231.815V320.394H230.399V324.729C230.399 325.249 230.63 325.625 231.107 325.625C231.41 325.625 231.699 325.495 231.844 325.336L232.161 326.145C231.887 326.405 231.497 326.593 230.861 326.593ZM233.88 318.27C233.49 318.27 233.158 317.938 233.158 317.533C233.158 317.128 233.49 316.811 233.88 316.811C234.285 316.811 234.617 317.128 234.617 317.533C234.617 317.938 234.285 318.27 233.88 318.27ZM234.429 326.42H233.346V319.44H234.429V326.42ZM236.187 322.923C236.187 320.9 237.632 319.267 239.626 319.267C241.735 319.267 242.978 320.914 242.978 323.01V323.284H237.328C237.415 324.599 238.34 325.697 239.842 325.697C240.637 325.697 241.446 325.379 241.996 324.816L242.516 325.524C241.822 326.218 240.883 326.593 239.741 326.593C237.675 326.593 236.187 325.105 236.187 322.923ZM239.611 320.163C238.123 320.163 237.386 321.42 237.328 322.489H241.909C241.894 321.449 241.201 320.163 239.611 320.163ZM250.528 326.42H249.444V321.854C249.444 320.625 248.823 320.235 247.884 320.235C247.031 320.235 246.222 320.755 245.817 321.319V326.42H244.733V319.44H245.817V320.452C246.309 319.874 247.262 319.267 248.303 319.267C249.762 319.267 250.528 320.004 250.528 321.521V326.42ZM254.455 326.593C253.429 326.593 252.909 326.001 252.909 324.96V320.394H251.753V319.44H252.909V317.533H253.993V319.44H255.409V320.394H253.993V324.729C253.993 325.249 254.224 325.625 254.701 325.625C255.004 325.625 255.293 325.495 255.438 325.336L255.756 326.145C255.481 326.405 255.091 326.593 254.455 326.593ZM256.333 325.495L256.896 324.715C257.359 325.249 258.24 325.712 259.194 325.712C260.263 325.712 260.841 325.235 260.841 324.556C260.841 323.79 259.989 323.544 259.05 323.313C257.865 323.039 256.521 322.721 256.521 321.276C256.521 320.192 257.46 319.267 259.122 319.267C260.307 319.267 261.145 319.715 261.708 320.279L261.203 321.03C260.784 320.524 260.018 320.149 259.122 320.149C258.168 320.149 257.576 320.582 257.576 321.203C257.576 321.883 258.37 322.099 259.281 322.316C260.495 322.591 261.896 322.937 261.896 324.484C261.896 325.654 260.957 326.593 259.151 326.593C258.009 326.593 257.041 326.246 256.333 325.495ZM263.44 325.77C263.44 325.336 263.801 324.975 264.235 324.975C264.668 324.975 265.03 325.336 265.03 325.77C265.03 326.203 264.668 326.564 264.235 326.564C263.801 326.564 263.44 326.203 263.44 325.77Z"
        fill="#293F76" />
      <g id="Group 5899">
        <path id="Vector (Stroke)" fill-rule="evenodd" clip-rule="evenodd"
          d="M169.409 223.597C165.034 223.597 161.487 227.144 161.487 231.519C161.487 235.894 165.034 239.441 169.409 239.441C173.784 239.441 177.331 235.894 177.331 231.519C177.331 227.144 173.784 223.597 169.409 223.597ZM159.047 231.519C159.047 225.796 163.686 221.157 169.409 221.157C175.131 221.157 179.771 225.796 179.771 231.519C179.771 237.242 175.131 241.881 169.409 241.881C163.686 241.881 159.047 237.242 159.047 231.519Z"
          fill="#004589" />
        <path id="Vector (Stroke)_2" fill-rule="evenodd" clip-rule="evenodd"
          d="M203.128 219.44C197.356 219.44 192.676 224.12 192.676 229.892C192.676 235.665 197.356 240.345 203.128 240.345C208.901 240.345 213.581 235.665 213.581 229.892C213.581 224.12 208.901 219.44 203.128 219.44ZM190.236 229.892C190.236 222.772 196.008 217 203.128 217C210.248 217 216.021 222.772 216.021 229.892C216.021 237.012 210.248 242.785 203.128 242.785C196.008 242.785 190.236 237.012 190.236 229.892Z"
          fill="#007E59" />
        <path id="Vector (Stroke)_3" fill-rule="evenodd" clip-rule="evenodd"
          d="M203.128 252.141C198.754 252.141 195.206 255.689 195.206 260.063C195.206 264.437 198.754 267.985 203.128 267.985C207.502 267.985 211.05 264.437 211.05 260.063C211.05 255.689 207.502 252.141 203.128 252.141ZM192.766 260.063C192.766 254.341 197.406 249.701 203.128 249.701C208.85 249.701 213.49 254.341 213.49 260.063C213.49 265.785 208.85 270.425 203.128 270.425C197.406 270.425 192.766 265.785 192.766 260.063Z"
          fill="#00667C" />
        <path id="Vector (Stroke)_4" fill-rule="evenodd" clip-rule="evenodd"
          d="M161.487 236.604C154.283 236.604 148.44 242.447 148.44 249.651C148.44 256.855 154.283 262.698 161.487 262.698C168.691 262.698 174.534 256.858 174.534 249.651C174.534 242.447 168.691 236.604 161.487 236.604ZM146 249.651C146 241.099 152.935 234.164 161.487 234.164C170.039 234.164 176.974 241.099 176.974 249.651C176.974 258.206 170.038 265.138 161.487 265.138C152.935 265.138 146 258.203 146 249.651Z"
          fill="#F5AD19" />
        <path id="Vector (Stroke)_5" fill-rule="evenodd" clip-rule="evenodd"
          d="M186.472 230.554C178.395 230.554 171.848 237.101 171.848 245.178C171.848 253.254 178.395 259.801 186.472 259.801C194.548 259.801 201.095 253.254 201.095 245.178C201.095 237.101 194.548 230.554 186.472 230.554ZM169.408 245.178C169.408 235.754 177.048 228.114 186.472 228.114C195.895 228.114 203.535 235.754 203.535 245.178C203.535 254.601 195.895 262.241 186.472 262.241C177.048 262.241 169.408 254.601 169.408 245.178Z"
          fill="#933A79" />
        <path id="Vector"
          d="M192.897 232.147L190.306 231.096C190.306 231.096 190.232 230.514 190.249 229.808C190.263 229.24 190.333 228.521 190.333 228.521L192.672 229.227C192.672 229.227 192.645 229.865 192.672 230.349C192.719 231.18 192.894 232.151 192.894 232.151"
          fill="#007E59" />
        <path id="Vector_2"
          d="M198.037 253.993L197.825 251.167C197.825 251.167 199.008 250.4 200.419 250.041C202.211 249.584 203.246 249.708 203.246 249.708L202.443 252.175C202.443 252.175 201.297 252.212 200.191 252.619C199.273 252.955 198.04 253.993 198.04 253.993"
          fill="#00667C" />
        <path id="Vector_3"
          d="M176.796 234.409C176.796 234.409 177.28 233.462 177.337 232.211C177.381 231.26 177.304 230.685 177.304 230.685C177.304 230.685 177.734 230.37 178.369 230.06C178.88 229.812 179.566 229.536 179.566 229.536C179.566 229.536 179.717 230.178 179.73 230.995C179.744 231.835 179.73 232.356 179.73 232.356C179.73 232.356 178.819 232.799 178.399 233.045C177.684 233.468 176.793 234.406 176.793 234.406"
          fill="#004589" />
        <path id="Vector_4"
          d="M174.232 252.535C174.232 252.535 174.423 253.328 175.17 254.333C175.563 254.86 175.949 255.176 175.949 255.176C175.949 255.176 175.653 255.969 175.415 256.45C175.119 257.041 174.77 257.613 174.77 257.613C174.77 257.613 174.131 257.089 173.882 256.82C173.439 256.339 173.032 255.785 173.032 255.785C173.032 255.785 173.345 255.23 173.677 254.4C173.987 253.627 174.232 252.535 174.232 252.535Z"
          fill="#F5AD19" />
        <path id="Vector (Stroke)_6" fill-rule="evenodd" clip-rule="evenodd"
          d="M175.977 240.597C176.221 240.364 176.607 240.372 176.84 240.615C178.987 242.855 182.612 242.576 184.582 240.606C184.82 240.367 185.207 240.367 185.445 240.606C185.683 240.844 185.683 241.23 185.445 241.468C183.053 243.86 178.638 244.254 175.959 241.459C175.726 241.216 175.734 240.83 175.977 240.597ZM187.64 240.597C187.883 240.364 188.269 240.372 188.502 240.615C190.649 242.855 194.274 242.576 196.244 240.606C196.483 240.367 196.869 240.367 197.107 240.606C197.345 240.844 197.345 241.23 197.107 241.468C194.715 243.86 190.301 244.254 187.621 241.459C187.388 241.216 187.396 240.83 187.64 240.597ZM178.928 252.467C179.171 252.234 179.558 252.242 179.791 252.485C183.494 256.349 189.716 255.852 193.092 252.476C193.33 252.238 193.716 252.238 193.955 252.476C194.193 252.714 194.193 253.101 193.955 253.339C190.158 257.136 183.145 257.748 178.91 253.33C178.677 253.087 178.685 252.7 178.928 252.467Z"
          fill="#933A79" />
        <path id="Vector_5"
          d="M220.599 238.456H224.373C228.187 238.456 230.476 240.442 230.476 243.736C230.476 247.029 228.167 248.996 224.373 248.996H223.408V252.108H220.599V238.456ZM224.292 246.525C226.581 246.525 227.586 245.601 227.586 243.736C227.586 241.87 226.541 240.926 224.292 240.926H223.408V246.529H224.292V246.525Z"
          fill="#004589" />
        <path id="Vector_6"
          d="M232.782 238.456H241.819V240.923H235.595V245.262H241.077V247.671H235.595V249.637H242.098V252.108H232.782V238.456Z"
          fill="#004589" />
        <path id="Vector_7"
          d="M244.827 238.456H249.025C253.219 238.456 256.214 241.245 256.214 245.282C256.214 249.318 253.243 252.108 249.025 252.108H244.827V238.456ZM248.883 249.637C251.915 249.637 253.3 247.829 253.3 245.282C253.3 242.734 251.915 240.926 248.883 240.926H247.64V249.641H248.883V249.637Z"
          fill="#004589" />
        <path id="Vector_8" d="M261.571 238.456H258.761V252.108H261.571V238.456Z" fill="#004589" />
        <path id="Vector_9"
          d="M269.584 238.335H269.826L276.07 252.108H273.119L272.477 250.562H266.935L266.293 252.108H263.581L269.584 238.335ZM271.469 248.212L270.484 245.843C270.084 244.878 269.661 243.393 269.661 243.393C269.661 243.393 269.261 244.878 268.858 245.843L267.873 248.212H271.466H271.469Z"
          fill="#004589" />
        <path id="Vector_10" d="M279.239 240.923H275.343V238.456H285.944V240.923H282.048V252.108H279.239V240.923Z"
          fill="#004589" />
        <path id="Vector_11"
          d="M298.211 252.108H294.958L292.709 248.656C292.447 248.696 292.168 248.717 291.906 248.717H290.942V252.111H288.132V238.459H291.906C295.721 238.459 298.01 240.288 298.01 243.618C298.01 245.746 297.065 247.09 295.378 247.853L298.208 252.108H298.211ZM291.826 246.267C294.114 246.267 295.119 245.544 295.119 243.618C295.119 241.692 294.074 240.929 291.826 240.929H290.942V246.27H291.826V246.267Z"
          fill="#004589" />
        <path id="Vector_12" d="M303.448 238.456H300.638V252.108H303.448V238.456Z" fill="#004589" />
        <path id="Vector_13"
          d="M305.998 245.282C305.998 241.245 309.11 238.295 313.026 238.295C315.496 238.295 317.26 239.178 318.487 241.084L316.339 242.61C315.697 241.565 314.592 240.822 313.026 240.822C310.555 240.822 308.888 242.731 308.888 245.278C308.888 247.826 310.555 249.775 313.026 249.775C314.793 249.775 315.775 248.932 316.538 247.769L318.726 249.275C317.543 251.123 315.654 252.286 313.026 252.286C309.11 252.286 305.998 249.315 305.998 245.278"
          fill="#004589" />
        <path id="Vector_14"
          d="M325.334 238.335H325.576L331.82 252.108H328.869L328.227 250.562H322.685L322.043 252.108H319.334L325.337 238.335H325.334ZM327.219 248.212L326.234 245.843C325.831 244.878 325.411 243.393 325.411 243.393C325.411 243.393 325.011 244.878 324.608 245.843L323.623 248.212H327.216H327.219Z"
          fill="#004589" />
      </g>
    </g>
  </g>
  <g class="bubble">
    <circle id="Ellipse 155" cx="239" cy="65" r="65" fill="#8B3B70" />
    <g id="Group 5886">
      <path id="Payor Contracting &#226;&#128;&#168;&#38; Care&#226;&#128;&#168;Coordination"
        d="M223.356 56H222.156V46.3618H226.029C227.965 46.3618 229.049 47.6912 229.049 49.2663C229.049 50.8413 227.936 52.1707 226.029 52.1707H223.356V56ZM225.884 51.1014C227.026 51.1014 227.806 50.35 227.806 49.2663C227.806 48.1825 227.026 47.4311 225.884 47.4311H223.356V51.1014H225.884ZM235.759 56H234.676V55.2052C234.098 55.841 233.303 56.1734 232.364 56.1734C231.179 56.1734 229.921 55.3786 229.921 53.8614C229.921 52.3008 231.179 51.5638 232.364 51.5638C233.317 51.5638 234.112 51.8673 234.676 52.5175V51.2604C234.676 50.3211 233.924 49.7865 232.913 49.7865C232.075 49.7865 231.395 50.0899 230.774 50.7546L230.268 50.0032C231.02 49.2229 231.916 48.8472 233.057 48.8472C234.531 48.8472 235.759 49.5119 235.759 51.2026V56ZM232.754 55.3931C233.52 55.3931 234.256 55.1041 234.676 54.5261V53.2111C234.256 52.6331 233.52 52.3441 232.754 52.3441C231.742 52.3441 231.034 52.9799 231.034 53.8758C231.034 54.7573 231.742 55.3931 232.754 55.3931ZM237.542 58.7311L237.715 57.7485C237.874 57.8207 238.134 57.8641 238.307 57.8641C238.784 57.8641 239.102 57.7051 239.348 57.1271L239.81 56.0723L236.891 49.0206H238.062L240.388 54.7428L242.7 49.0206H243.885L240.388 57.4161C239.969 58.4276 239.261 58.8178 238.336 58.8322C238.105 58.8322 237.744 58.7889 237.542 58.7311ZM248.065 56.1734C245.94 56.1734 244.611 54.5261 244.611 52.5031C244.611 50.4801 245.94 48.8472 248.065 48.8472C250.189 48.8472 251.518 50.4801 251.518 52.5031C251.518 54.5261 250.189 56.1734 248.065 56.1734ZM248.065 55.2052C249.553 55.2052 250.377 53.9336 250.377 52.5031C250.377 51.087 249.553 49.8154 248.065 49.8154C246.576 49.8154 245.738 51.087 245.738 52.5031C245.738 53.9336 246.576 55.2052 248.065 55.2052ZM254.369 56H253.285V49.0206H254.369V50.1477C254.932 49.4108 255.741 48.8761 256.695 48.8761V49.9888C256.565 49.9599 256.435 49.9454 256.262 49.9454C255.597 49.9454 254.687 50.4945 254.369 51.0581V56ZM206.063 74.1734C203.289 74.1734 201.107 72.1504 201.107 69.1881C201.107 66.2259 203.289 64.2028 206.063 64.2028C207.768 64.2028 208.953 65.0265 209.719 66.1103L208.708 66.6738C208.159 65.8646 207.162 65.2722 206.063 65.2722C203.954 65.2722 202.35 66.8906 202.35 69.1881C202.35 71.4712 203.954 73.1041 206.063 73.1041C207.162 73.1041 208.159 72.5261 208.708 71.7024L209.734 72.266C208.924 73.3642 207.768 74.1734 206.063 74.1734ZM214.268 74.1734C212.144 74.1734 210.814 72.5261 210.814 70.5031C210.814 68.4801 212.144 66.8472 214.268 66.8472C216.392 66.8472 217.721 68.4801 217.721 70.5031C217.721 72.5261 216.392 74.1734 214.268 74.1734ZM214.268 73.2052C215.756 73.2052 216.58 71.9336 216.58 70.5031C216.58 69.087 215.756 67.8154 214.268 67.8154C212.779 67.8154 211.941 69.087 211.941 70.5031C211.941 71.9336 212.779 73.2052 214.268 73.2052ZM225.283 74H224.199V69.4338C224.199 68.2055 223.578 67.8154 222.638 67.8154C221.786 67.8154 220.977 68.3356 220.572 68.8991V74H219.488V67.0206H220.572V68.0321C221.063 67.4541 222.017 66.8472 223.057 66.8472C224.517 66.8472 225.283 67.5842 225.283 69.1014V74ZM229.21 74.1734C228.184 74.1734 227.664 73.5809 227.664 72.5405V67.9743H226.508V67.0206H227.664V65.1132H228.748V67.0206H230.164V67.9743H228.748V72.3093C228.748 72.8295 228.979 73.2052 229.456 73.2052C229.759 73.2052 230.048 73.0752 230.193 72.9162L230.51 73.7254C230.236 73.9855 229.846 74.1734 229.21 74.1734ZM232.778 74H231.695V67.0206H232.778V68.1477C233.342 67.4108 234.151 66.8761 235.105 66.8761V67.9888C234.975 67.9599 234.845 67.9454 234.671 67.9454C234.007 67.9454 233.096 68.4945 232.778 69.0581V74ZM241.912 74H240.828V73.2052C240.25 73.841 239.455 74.1734 238.516 74.1734C237.331 74.1734 236.074 73.3786 236.074 71.8614C236.074 70.3008 237.331 69.5638 238.516 69.5638C239.47 69.5638 240.265 69.8673 240.828 70.5175V69.2604C240.828 68.3211 240.077 67.7865 239.065 67.7865C238.227 67.7865 237.548 68.0899 236.927 68.7546L236.421 68.0032C237.172 67.2229 238.068 66.8472 239.21 66.8472C240.684 66.8472 241.912 67.5119 241.912 69.2026V74ZM238.906 73.3931C239.672 73.3931 240.409 73.1041 240.828 72.5261V71.2111C240.409 70.6331 239.672 70.3441 238.906 70.3441C237.895 70.3441 237.187 70.9799 237.187 71.8758C237.187 72.7573 237.895 73.3931 238.906 73.3931ZM247.162 74.1734C245.081 74.1734 243.68 72.5839 243.68 70.5031C243.68 68.4367 245.081 66.8472 247.162 66.8472C248.434 66.8472 249.185 67.3674 249.72 68.061L248.997 68.7257C248.535 68.0899 247.943 67.8154 247.22 67.8154C245.732 67.8154 244.807 68.9569 244.807 70.5031C244.807 72.0492 245.732 73.2052 247.22 73.2052C247.943 73.2052 248.535 72.9162 248.997 72.2949L249.72 72.9596C249.185 73.6532 248.434 74.1734 247.162 74.1734ZM253.002 74.1734C251.976 74.1734 251.456 73.5809 251.456 72.5405V67.9743H250.3V67.0206H251.456V65.1132H252.539V67.0206H253.955V67.9743H252.539V72.3093C252.539 72.8295 252.771 73.2052 253.247 73.2052C253.551 73.2052 253.84 73.0752 253.984 72.9162L254.302 73.7254C254.028 73.9855 253.638 74.1734 253.002 74.1734ZM256.021 66.0236C255.631 66.0236 255.299 65.7057 255.299 65.3011C255.299 64.8965 255.631 64.5641 256.021 64.5641C256.426 64.5641 256.758 64.8965 256.758 65.3011C256.758 65.7057 256.426 66.0236 256.021 66.0236ZM256.57 74H255.486V67.0206H256.57V74ZM264.526 74H263.443V69.4338C263.443 68.2055 262.821 67.8154 261.882 67.8154C261.03 67.8154 260.22 68.3356 259.816 68.8991V74H258.732V67.0206H259.816V68.0321C260.307 67.4541 261.261 66.8472 262.301 66.8472C263.761 66.8472 264.526 67.5842 264.526 69.1014V74ZM269.494 76.8322C268.309 76.8322 267.5 76.601 266.676 75.7918L267.225 74.9826C267.803 75.6762 268.497 75.9363 269.494 75.9363C270.65 75.9363 271.734 75.3728 271.734 73.841V72.844C271.228 73.552 270.376 74.0867 269.393 74.0867C267.572 74.0867 266.286 72.7284 266.286 70.4742C266.286 68.2344 267.558 66.8472 269.393 66.8472C270.332 66.8472 271.17 67.3096 271.734 68.0755V67.0206H272.818V73.7977C272.818 76.1097 271.199 76.8322 269.494 76.8322ZM269.653 73.133C270.52 73.133 271.358 72.5983 271.734 71.9914V68.9425C271.358 68.3356 270.52 67.8154 269.653 67.8154C268.251 67.8154 267.413 68.928 267.413 70.4742C267.413 72.0059 268.251 73.133 269.653 73.133ZM226.218 91H224.715C224.426 90.7543 224.051 90.3931 223.66 89.9885C222.952 90.6965 222.056 91.1734 220.886 91.1734C219.224 91.1734 217.88 90.2775 217.88 88.4857C217.88 86.9829 218.892 86.217 220.005 85.6246C219.571 84.8876 219.268 84.1362 219.268 83.4571C219.268 82.171 220.337 81.2173 221.695 81.2173C222.952 81.2173 223.877 81.8965 223.877 83.1103C223.877 84.5553 222.649 85.1911 221.421 85.8269C221.811 86.3615 222.215 86.8384 222.533 87.1996C222.923 87.662 223.299 88.0811 223.675 88.4857C224.21 87.6909 224.542 86.8239 224.715 86.2893L225.655 86.6939C225.322 87.4597 224.918 88.3701 224.34 89.1793C224.903 89.7717 225.51 90.3497 226.218 91ZM220.987 90.2775C221.782 90.2775 222.461 89.8729 223.01 89.3238C222.461 88.7458 221.955 88.1967 221.681 87.8643C221.276 87.4019 220.857 86.8817 220.467 86.3326C219.672 86.8239 219.051 87.4164 219.051 88.4134C219.051 89.6128 219.976 90.2775 220.987 90.2775ZM220.395 83.4715C220.395 83.9773 220.64 84.5697 220.973 85.1333C221.999 84.6275 222.88 84.1073 222.88 83.1536C222.88 82.4456 222.389 82.0699 221.739 82.0699C221.002 82.0699 220.395 82.6479 220.395 83.4715ZM236.036 91.1734C233.262 91.1734 231.08 89.1504 231.08 86.1881C231.08 83.2259 233.262 81.2028 236.036 81.2028C237.741 81.2028 238.926 82.0265 239.692 83.1103L238.68 83.6738C238.131 82.8646 237.134 82.2722 236.036 82.2722C233.926 82.2722 232.322 83.8906 232.322 86.1881C232.322 88.4712 233.926 90.1041 236.036 90.1041C237.134 90.1041 238.131 89.5261 238.68 88.7024L239.706 89.266C238.897 90.3642 237.741 91.1734 236.036 91.1734ZM246.639 91H245.555V90.2052C244.977 90.841 244.183 91.1734 243.243 91.1734C242.059 91.1734 240.801 90.3786 240.801 88.8614C240.801 87.3008 242.059 86.5638 243.243 86.5638C244.197 86.5638 244.992 86.8673 245.555 87.5175V86.2604C245.555 85.3211 244.804 84.7865 243.793 84.7865C242.954 84.7865 242.275 85.0899 241.654 85.7546L241.148 85.0032C241.9 84.2229 242.795 83.8472 243.937 83.8472C245.411 83.8472 246.639 84.5119 246.639 86.2026V91ZM243.634 90.3931C244.399 90.3931 245.136 90.1041 245.555 89.5261V88.2111C245.136 87.6331 244.399 87.3441 243.634 87.3441C242.622 87.3441 241.914 87.9799 241.914 88.8758C241.914 89.7573 242.622 90.3931 243.634 90.3931ZM249.895 91H248.812V84.0206H249.895V85.1477C250.459 84.4108 251.268 83.8761 252.222 83.8761V84.9888C252.092 84.9599 251.962 84.9454 251.788 84.9454C251.124 84.9454 250.213 85.4945 249.895 86.0581V91ZM256.731 91.1734C254.665 91.1734 253.177 89.685 253.177 87.5031C253.177 85.4801 254.622 83.8472 256.616 83.8472C258.726 83.8472 259.968 85.4945 259.968 87.5898V87.8643H254.318C254.405 89.1793 255.33 90.2775 256.833 90.2775C257.627 90.2775 258.437 89.9596 258.986 89.396L259.506 90.1041C258.812 90.7977 257.873 91.1734 256.731 91.1734ZM258.899 87.0696C258.884 86.0292 258.191 84.7431 256.601 84.7431C255.113 84.7431 254.376 86.0003 254.318 87.0696H258.899ZM203.728 108.173C200.954 108.173 198.772 106.15 198.772 103.188C198.772 100.226 200.954 98.2028 203.728 98.2028C205.433 98.2028 206.618 99.0265 207.384 100.11L206.372 100.674C205.823 99.8646 204.826 99.2722 203.728 99.2722C201.618 99.2722 200.014 100.891 200.014 103.188C200.014 105.471 201.618 107.104 203.728 107.104C204.826 107.104 205.823 106.526 206.372 105.702L207.398 106.266C206.589 107.364 205.433 108.173 203.728 108.173ZM211.932 108.173C209.808 108.173 208.479 106.526 208.479 104.503C208.479 102.48 209.808 100.847 211.932 100.847C214.057 100.847 215.386 102.48 215.386 104.503C215.386 106.526 214.057 108.173 211.932 108.173ZM211.932 107.205C213.421 107.205 214.244 105.934 214.244 104.503C214.244 103.087 213.421 101.815 211.932 101.815C210.444 101.815 209.606 103.087 209.606 104.503C209.606 105.934 210.444 107.205 211.932 107.205ZM220.202 108.173C218.078 108.173 216.748 106.526 216.748 104.503C216.748 102.48 218.078 100.847 220.202 100.847C222.326 100.847 223.655 102.48 223.655 104.503C223.655 106.526 222.326 108.173 220.202 108.173ZM220.202 107.205C221.69 107.205 222.514 105.934 222.514 104.503C222.514 103.087 221.69 101.815 220.202 101.815C218.713 101.815 217.875 103.087 217.875 104.503C217.875 105.934 218.713 107.205 220.202 107.205ZM226.506 108H225.422V101.021H226.506V102.148C227.069 101.411 227.879 100.876 228.832 100.876V101.989C228.702 101.96 228.572 101.945 228.399 101.945C227.734 101.945 226.824 102.495 226.506 103.058V108ZM236.333 108H235.249V106.96C234.729 107.668 233.876 108.173 232.894 108.173C231.073 108.173 229.787 106.786 229.787 104.518C229.787 102.292 231.059 100.847 232.894 100.847C233.833 100.847 234.686 101.31 235.249 102.075V98.3618H236.333V108ZM233.154 107.205C234.021 107.205 234.859 106.714 235.249 106.107V102.942C234.859 102.336 234.021 101.815 233.154 101.815C231.752 101.815 230.914 102.971 230.914 104.518C230.914 106.064 231.752 107.205 233.154 107.205ZM239.038 100.024C238.648 100.024 238.315 99.7057 238.315 99.3011C238.315 98.8965 238.648 98.5641 239.038 98.5641C239.443 98.5641 239.775 98.8965 239.775 99.3011C239.775 99.7057 239.443 100.024 239.038 100.024ZM239.587 108H238.503V101.021H239.587V108ZM247.543 108H246.46V103.434C246.46 102.206 245.838 101.815 244.899 101.815C244.046 101.815 243.237 102.336 242.833 102.899V108H241.749V101.021H242.833V102.032C243.324 101.454 244.278 100.847 245.318 100.847C246.778 100.847 247.543 101.584 247.543 103.101V108ZM255.155 108H254.072V107.205C253.494 107.841 252.699 108.173 251.76 108.173C250.575 108.173 249.318 107.379 249.318 105.861C249.318 104.301 250.575 103.564 251.76 103.564C252.713 103.564 253.508 103.867 254.072 104.518V103.26C254.072 102.321 253.32 101.786 252.309 101.786C251.471 101.786 250.791 102.09 250.17 102.755L249.664 102.003C250.416 101.223 251.312 100.847 252.453 100.847C253.927 100.847 255.155 101.512 255.155 103.203V108ZM252.15 107.393C252.916 107.393 253.653 107.104 254.072 106.526V105.211C253.653 104.633 252.916 104.344 252.15 104.344C251.138 104.344 250.43 104.98 250.43 105.876C250.43 106.757 251.138 107.393 252.15 107.393ZM259.091 108.173C258.065 108.173 257.545 107.581 257.545 106.541V101.974H256.389V101.021H257.545V99.1132H258.628V101.021H260.045V101.974H258.628V106.309C258.628 106.83 258.86 107.205 259.336 107.205C259.64 107.205 259.929 107.075 260.073 106.916L260.391 107.725C260.117 107.986 259.727 108.173 259.091 108.173ZM262.11 100.024C261.72 100.024 261.388 99.7057 261.388 99.3011C261.388 98.8965 261.72 98.5641 262.11 98.5641C262.515 98.5641 262.847 98.8965 262.847 99.3011C262.847 99.7057 262.515 100.024 262.11 100.024ZM262.659 108H261.575V101.021H262.659V108ZM267.87 108.173C265.746 108.173 264.416 106.526 264.416 104.503C264.416 102.48 265.746 100.847 267.87 100.847C269.994 100.847 271.324 102.48 271.324 104.503C271.324 106.526 269.994 108.173 267.87 108.173ZM267.87 107.205C269.358 107.205 270.182 105.934 270.182 104.503C270.182 103.087 269.358 101.815 267.87 101.815C266.382 101.815 265.544 103.087 265.544 104.503C265.544 105.934 266.382 107.205 267.87 107.205ZM278.885 108H277.801V103.434C277.801 102.206 277.18 101.815 276.24 101.815C275.388 101.815 274.579 102.336 274.174 102.899V108H273.09V101.021H274.174V102.032C274.665 101.454 275.619 100.847 276.659 100.847C278.119 100.847 278.885 101.584 278.885 103.101V108Z"
        fill="white" />
      <g id="Outline / UI Standard / gear" clip-path="url(#clip0_4_20)">
        <path id="Icon" fill-rule="evenodd" clip-rule="evenodd"
          d="M237.5 18C236.948 18 236.5 18.4477 236.5 19V21.3984C236.117 21.5241 235.748 21.6779 235.393 21.8574L233.697 20.1611C233.306 19.7706 232.673 19.7706 232.282 20.1611L230.161 22.2825C229.771 22.673 229.771 23.3061 230.161 23.6967L231.857 25.3929C231.678 25.7476 231.524 26.1174 231.398 26.4999H229C228.448 26.4999 228 26.9476 228 27.4999V30.4999C228 31.0522 228.448 31.4999 229 31.4999H231.398C231.524 31.8825 231.678 32.2524 231.857 32.6072L230.161 34.3033C229.771 34.6939 229.771 35.327 230.161 35.7176L232.283 37.8389C232.673 38.2294 233.306 38.2294 233.697 37.8389L235.393 36.1426C235.748 36.3221 236.117 36.4759 236.5 36.6016V39C236.5 39.5523 236.948 40 237.5 40H240.5C241.052 40 241.5 39.5523 241.5 39V36.6016C241.883 36.4759 242.252 36.3221 242.607 36.1426L244.303 37.8388C244.694 38.2293 245.327 38.2293 245.717 37.8388L247.839 35.7175C248.229 35.327 248.229 34.6938 247.839 34.3033L246.143 32.6071C246.322 32.2524 246.476 31.8825 246.602 31.4999H249C249.552 31.4999 250 31.0522 250 30.4999V27.4999C250 26.9476 249.552 26.4999 249 26.4999H246.602C246.476 26.1174 246.322 25.7476 246.143 25.393L247.839 23.6967C248.229 23.3062 248.229 22.6731 247.839 22.2825L245.718 20.1612C245.327 19.7707 244.694 19.7707 244.303 20.1612L242.607 21.8574C242.252 21.678 241.883 21.5241 241.5 21.3984V19C241.5 18.4477 241.052 18 240.5 18H237.5ZM239 32C240.657 32 242 30.6569 242 29C242 27.3431 240.657 26 239 26C237.343 26 236 27.3431 236 29C236 30.6569 237.343 32 239 32Z"
          stroke="white" stroke-width="1.5" stroke-linecap="round" stroke-linejoin="round" />
      </g>
    </g>
  </g>
  <g class="bubble">
    <circle id="Ellipse 157" cx="412.266" cy="165.783" r="66.5" fill="#8B3B70" />
    <g id="Group 5894">
      <path id="Organizational Sustainability"
        d="M363.946 173.925C360.512 173.925 358.206 171.359 358.206 167.943C358.206 164.527 360.512 161.961 363.946 161.961C367.362 161.961 369.685 164.527 369.685 167.943C369.685 171.359 367.362 173.925 363.946 173.925ZM363.946 172.642C366.529 172.642 368.194 170.631 368.194 167.943C368.194 165.238 366.529 163.244 363.946 163.244C361.344 163.244 359.697 165.238 359.697 167.943C359.697 170.631 361.344 172.642 363.946 172.642ZM373.182 173.717H371.881V165.342H373.182V166.694C373.858 165.81 374.829 165.168 375.973 165.168V166.504C375.817 166.469 375.661 166.452 375.453 166.452C374.656 166.452 373.563 167.111 373.182 167.787V173.717ZM380.969 177.116C379.547 177.116 378.576 176.838 377.587 175.867L378.246 174.896C378.94 175.729 379.772 176.041 380.969 176.041C382.356 176.041 383.656 175.364 383.656 173.526V172.33C383.05 173.18 382.026 173.821 380.847 173.821C378.663 173.821 377.119 172.191 377.119 169.486C377.119 166.798 378.645 165.134 380.847 165.134C381.974 165.134 382.98 165.689 383.656 166.608V165.342H384.957V173.474C384.957 176.249 383.015 177.116 380.969 177.116ZM381.159 172.677C382.2 172.677 383.206 172.035 383.656 171.307V167.648C383.206 166.92 382.2 166.296 381.159 166.296C379.477 166.296 378.472 167.631 378.472 169.486C378.472 171.324 379.477 172.677 381.159 172.677ZM394.099 173.717H392.798V172.763C392.105 173.526 391.151 173.925 390.024 173.925C388.602 173.925 387.094 172.972 387.094 171.151C387.094 169.278 388.602 168.394 390.024 168.394C391.169 168.394 392.122 168.758 392.798 169.538V168.03C392.798 166.903 391.897 166.261 390.683 166.261C389.677 166.261 388.862 166.625 388.117 167.423L387.51 166.521C388.411 165.585 389.487 165.134 390.856 165.134C392.625 165.134 394.099 165.931 394.099 167.96V173.717ZM390.492 172.989C391.411 172.989 392.296 172.642 392.798 171.948V170.371C392.296 169.677 391.411 169.33 390.492 169.33C389.278 169.33 388.429 170.093 388.429 171.168C388.429 172.226 389.278 172.989 390.492 172.989ZM403.659 173.717H402.359V168.238C402.359 166.764 401.613 166.296 400.486 166.296C399.463 166.296 398.492 166.92 398.006 167.596V173.717H396.706V165.342H398.006V166.556C398.596 165.862 399.74 165.134 400.989 165.134C402.74 165.134 403.659 166.018 403.659 167.839V173.717ZM406.898 164.145C406.43 164.145 406.031 163.764 406.031 163.278C406.031 162.793 406.43 162.394 406.898 162.394C407.384 162.394 407.782 162.793 407.782 163.278C407.782 163.764 407.384 164.145 406.898 164.145ZM407.557 173.717H406.257V165.342H407.557V173.717ZM416.134 173.717H409.752V172.711L414.365 166.486H409.752V165.342H416.064V166.33L411.417 172.59H416.134V173.717ZM424.867 173.717H423.567V172.763C422.873 173.526 421.92 173.925 420.793 173.925C419.371 173.925 417.862 172.972 417.862 171.151C417.862 169.278 419.371 168.394 420.793 168.394C421.937 168.394 422.891 168.758 423.567 169.538V168.03C423.567 166.903 422.665 166.261 421.451 166.261C420.446 166.261 419.631 166.625 418.885 167.423L418.278 166.521C419.18 165.585 420.255 165.134 421.625 165.134C423.394 165.134 424.867 165.931 424.867 167.96V173.717ZM421.261 172.989C422.18 172.989 423.064 172.642 423.567 171.948V170.371C423.064 169.677 422.18 169.33 421.261 169.33C420.047 169.33 419.197 170.093 419.197 171.168C419.197 172.226 420.047 172.989 421.261 172.989ZM429.59 173.925C428.359 173.925 427.735 173.214 427.735 171.966V166.486H426.347V165.342H427.735V163.053H429.035V165.342H430.734V166.486H429.035V171.688C429.035 172.313 429.313 172.763 429.885 172.763C430.249 172.763 430.596 172.607 430.769 172.417L431.151 173.388C430.821 173.7 430.353 173.925 429.59 173.925ZM433.213 164.145C432.745 164.145 432.346 163.764 432.346 163.278C432.346 162.793 432.745 162.394 433.213 162.394C433.699 162.394 434.097 162.793 434.097 163.278C434.097 163.764 433.699 164.145 433.213 164.145ZM433.872 173.717H432.571V165.342H433.872V173.717ZM440.125 173.925C437.576 173.925 435.981 171.948 435.981 169.521C435.981 167.093 437.576 165.134 440.125 165.134C442.674 165.134 444.269 167.093 444.269 169.521C444.269 171.948 442.674 173.925 440.125 173.925ZM440.125 172.763C441.911 172.763 442.899 171.238 442.899 169.521C442.899 167.822 441.911 166.296 440.125 166.296C438.339 166.296 437.333 167.822 437.333 169.521C437.333 171.238 438.339 172.763 440.125 172.763ZM453.343 173.717H452.042V168.238C452.042 166.764 451.297 166.296 450.17 166.296C449.146 166.296 448.175 166.92 447.69 167.596V173.717H446.389V165.342H447.69V166.556C448.279 165.862 449.424 165.134 450.672 165.134C452.424 165.134 453.343 166.018 453.343 167.839V173.717ZM462.477 173.717H461.177V172.763C460.483 173.526 459.529 173.925 458.402 173.925C456.98 173.925 455.472 172.972 455.472 171.151C455.472 169.278 456.98 168.394 458.402 168.394C459.547 168.394 460.5 168.758 461.177 169.538V168.03C461.177 166.903 460.275 166.261 459.061 166.261C458.055 166.261 457.24 166.625 456.495 167.423L455.888 166.521C456.79 165.585 457.865 165.134 459.235 165.134C461.003 165.134 462.477 165.931 462.477 167.96V173.717ZM458.87 172.989C459.789 172.989 460.674 172.642 461.177 171.948V170.371C460.674 169.677 459.789 169.33 458.87 169.33C457.657 169.33 456.807 170.093 456.807 171.168C456.807 172.226 457.657 172.989 458.87 172.989ZM466.385 173.717H465.084V162.151H466.385V173.717ZM367.669 194.925C365.658 194.925 364.184 194.162 363.23 193.087L364.08 191.995C364.843 192.844 366.091 193.642 367.721 193.642C369.785 193.642 370.443 192.532 370.443 191.648C370.443 188.665 363.594 190.313 363.594 186.186C363.594 184.278 365.293 182.978 367.565 182.978C369.334 182.978 370.704 183.567 371.675 184.591L370.808 185.648C369.941 184.695 368.727 184.261 367.461 184.261C366.074 184.261 365.085 185.007 365.085 186.099C365.085 188.7 371.935 187.209 371.935 191.527C371.935 193.209 370.79 194.925 367.669 194.925ZM380.985 194.717H379.685V193.538C379.043 194.266 377.951 194.925 376.702 194.925C374.951 194.925 374.032 194.076 374.032 192.255V186.342H375.332V191.856C375.332 193.33 376.078 193.763 377.205 193.763C378.228 193.763 379.199 193.174 379.685 192.498V186.342H380.985V194.717ZM386.235 194.925C384.866 194.925 383.704 194.509 382.854 193.607L383.53 192.671C384.085 193.313 385.143 193.867 386.287 193.867C387.571 193.867 388.264 193.261 388.264 192.428C388.264 190.399 383.079 191.648 383.079 188.544C383.079 187.244 384.207 186.134 386.201 186.134C387.623 186.134 388.628 186.671 389.305 187.348L388.698 188.249C388.195 187.642 387.276 187.192 386.201 187.192C385.056 187.192 384.345 187.764 384.345 188.509C384.345 190.347 389.53 189.134 389.53 192.394C389.53 193.798 388.403 194.925 386.235 194.925ZM393.758 194.925C392.527 194.925 391.903 194.214 391.903 192.966V187.486H390.516V186.342H391.903V184.053H393.203V186.342H394.903V187.486H393.203V192.688C393.203 193.313 393.481 193.763 394.053 193.763C394.417 193.763 394.764 193.607 394.937 193.417L395.319 194.388C394.989 194.7 394.521 194.925 393.758 194.925ZM403.277 194.717H401.977V193.763C401.283 194.526 400.329 194.925 399.202 194.925C397.78 194.925 396.272 193.972 396.272 192.151C396.272 190.278 397.78 189.394 399.202 189.394C400.347 189.394 401.3 189.758 401.977 190.538V189.03C401.977 187.903 401.075 187.261 399.861 187.261C398.855 187.261 398.04 187.625 397.295 188.423L396.688 187.521C397.589 186.585 398.665 186.134 400.034 186.134C401.803 186.134 403.277 186.931 403.277 188.96V194.717ZM399.67 193.989C400.589 193.989 401.474 193.642 401.977 192.948V191.371C401.474 190.677 400.589 190.33 399.67 190.33C398.456 190.33 397.607 191.093 397.607 192.168C397.607 193.226 398.456 193.989 399.67 193.989ZM406.526 185.145C406.057 185.145 405.659 184.764 405.659 184.278C405.659 183.793 406.057 183.394 406.526 183.394C407.011 183.394 407.41 183.793 407.41 184.278C407.41 184.764 407.011 185.145 406.526 185.145ZM407.185 194.717H405.884V186.342H407.185V194.717ZM416.732 194.717H415.432V189.238C415.432 187.764 414.686 187.296 413.559 187.296C412.536 187.296 411.565 187.92 411.079 188.596V194.717H409.779V186.342H411.079V187.556C411.669 186.862 412.813 186.134 414.062 186.134C415.813 186.134 416.732 187.018 416.732 188.839V194.717ZM425.867 194.717H424.566V193.763C423.872 194.526 422.919 194.925 421.792 194.925C420.37 194.925 418.861 193.972 418.861 192.151C418.861 190.278 420.37 189.394 421.792 189.394C422.936 189.394 423.89 189.758 424.566 190.538V189.03C424.566 187.903 423.664 187.261 422.451 187.261C421.445 187.261 420.63 187.625 419.884 188.423L419.277 187.521C420.179 186.585 421.254 186.134 422.624 186.134C424.393 186.134 425.867 186.931 425.867 188.96V194.717ZM422.26 193.989C423.179 193.989 424.063 193.642 424.566 192.948V191.371C424.063 190.677 423.179 190.33 422.26 190.33C421.046 190.33 420.196 191.093 420.196 192.168C420.196 193.226 421.046 193.989 422.26 193.989ZM429.774 192.446C430.225 193.174 431.248 193.763 432.271 193.763C433.97 193.763 434.976 192.394 434.976 190.538C434.976 188.683 433.97 187.296 432.271 187.296C431.248 187.296 430.225 187.92 429.774 188.648V192.446ZM429.774 194.717H428.474V183.151H429.774V187.608C430.45 186.689 431.456 186.134 432.6 186.134C434.785 186.134 436.329 187.868 436.329 190.538C436.329 193.261 434.785 194.925 432.6 194.925C431.421 194.925 430.398 194.318 429.774 193.469V194.717ZM439.089 185.145C438.621 185.145 438.222 184.764 438.222 184.278C438.222 183.793 438.621 183.394 439.089 183.394C439.575 183.394 439.973 183.793 439.973 184.278C439.973 184.764 439.575 185.145 439.089 185.145ZM439.748 194.717H438.447V186.342H439.748V194.717ZM443.643 194.717H442.342V183.151H443.643V194.717ZM446.879 185.145C446.41 185.145 446.012 184.764 446.012 184.278C446.012 183.793 446.41 183.394 446.879 183.394C447.364 183.394 447.763 183.793 447.763 184.278C447.763 184.764 447.364 185.145 446.879 185.145ZM447.537 194.717H446.237V186.342H447.537V194.717ZM452.247 194.925C451.016 194.925 450.392 194.214 450.392 192.966V187.486H449.005V186.342H450.392V184.053H451.692V186.342H453.392V187.486H451.692V192.688C451.692 193.313 451.97 193.763 452.542 193.763C452.906 193.763 453.253 193.607 453.426 193.417L453.808 194.388C453.478 194.7 453.01 194.925 452.247 194.925ZM454.761 197.994L454.969 196.815C455.159 196.902 455.472 196.954 455.68 196.954C456.252 196.954 456.633 196.763 456.928 196.07L457.483 194.804L453.98 186.342H455.385L458.177 193.209L460.951 186.342H462.373L458.177 196.416C457.674 197.63 456.824 198.098 455.714 198.116C455.437 198.116 455.003 198.064 454.761 197.994Z"
        fill="white" />
      <g id="Outline / UI Standard / hierarchy 3" clip-path="url(#clip1_4_20)">
        <path id="Icon_2"
          d="M413 151C411.895 151 411 151.895 411 153C411 154.105 411.895 155 413 155C414.105 155 415 154.105 415 153C415 151.895 414.105 151 413 151ZM413 151V139M422 151C420.895 151 420 151.895 420 153C420 154.105 420.895 155 422 155C423.105 155 424 154.105 424 153C424 151.895 423.105 151 422 151ZM422 151V145C422 144.448 421.552 144 421 144H405C404.448 144 404 144.448 404 145L404 151M404 151C402.895 151 402 151.895 402 153C402 154.105 402.895 155 404 155C405.105 155 406 154.105 406 153C406 151.895 405.105 151 404 151ZM407 139H419C419.552 139 420 138.552 420 138V134C420 133.448 419.552 133 419 133H407C406.448 133 406 133.448 406 134V138C406 138.552 406.448 139 407 139Z"
          stroke="white" stroke-width="1.5" stroke-linecap="round" stroke-linejoin="round" />
      </g>
    </g>
  </g>
  <g class="bubble">
    <circle id="Ellipse 155_2" cx="413.449" cy="365.101" r="65" fill="#8B3B70" />
    <g id="Group 5886_2">
      <path id="EMR/&#226;&#128;&#168;Revenue Cycle Optimization"
        d="M403.953 365.101H397.638V355.463H403.953V356.532H398.837V359.639H403.851V360.708H398.837V364.032H403.953V365.101ZM415.301 365.101H414.101V357.168L410.821 365.101H410.33L407.064 357.168V365.101H405.865V355.463H407.584L410.576 362.717L413.581 355.463H415.301V365.101ZM424.543 365.101H423.127L420.67 361.272H418.748V365.101H417.549V355.463H421.422C423.185 355.463 424.442 356.59 424.442 358.367C424.442 360.101 423.257 361.055 421.942 361.171L424.543 365.101ZM421.277 360.217C422.419 360.217 423.199 359.451 423.199 358.367C423.199 357.284 422.419 356.532 421.277 356.532H418.748V360.217H421.277ZM426.066 365.39H425.213L428.638 355.174H429.491L426.066 365.39ZM373.671 383.101H372.255L369.799 379.272H367.877V383.101H366.678V373.463H370.55C372.313 373.463 373.57 374.59 373.57 376.367C373.57 378.101 372.385 379.055 371.07 379.171L373.671 383.101ZM370.406 378.217C371.547 378.217 372.327 377.451 372.327 376.367C372.327 375.284 371.547 374.532 370.406 374.532H367.877V378.217H370.406ZM378.138 383.274C376.072 383.274 374.584 381.786 374.584 379.604C374.584 377.581 376.029 375.948 378.023 375.948C380.132 375.948 381.375 377.596 381.375 379.691V379.965H375.725C375.812 381.28 376.737 382.379 378.239 382.379C379.034 382.379 379.843 382.061 380.392 381.497L380.913 382.205C380.219 382.899 379.28 383.274 378.138 383.274ZM380.306 379.171C380.291 378.13 379.598 376.844 378.008 376.844C376.52 376.844 375.783 378.101 375.725 379.171H380.306ZM386.179 383.101H384.994L382.09 376.122H383.26L385.587 381.844L387.899 376.122H389.084L386.179 383.101ZM393.364 383.274C391.298 383.274 389.81 381.786 389.81 379.604C389.81 377.581 391.255 375.948 393.249 375.948C395.359 375.948 396.601 377.596 396.601 379.691V379.965H390.951C391.038 381.28 391.963 382.379 393.466 382.379C394.26 382.379 395.07 382.061 395.619 381.497L396.139 382.205C395.445 382.899 394.506 383.274 393.364 383.274ZM395.532 379.171C395.517 378.13 394.824 376.844 393.234 376.844C391.746 376.844 391.009 378.101 390.951 379.171H395.532ZM404.151 383.101H403.067V378.535C403.067 377.307 402.446 376.916 401.507 376.916C400.654 376.916 399.845 377.437 399.44 378V383.101H398.357V376.122H399.44V377.133C399.932 376.555 400.885 375.948 401.926 375.948C403.385 375.948 404.151 376.685 404.151 378.202V383.101ZM412.11 383.101H411.026V382.118C410.491 382.725 409.581 383.274 408.541 383.274C407.081 383.274 406.315 382.566 406.315 381.049V376.122H407.399V380.717C407.399 381.945 408.021 382.306 408.96 382.306C409.812 382.306 410.622 381.815 411.026 381.251V376.122H412.11V383.101ZM417.424 383.274C415.358 383.274 413.87 381.786 413.87 379.604C413.87 377.581 415.315 375.948 417.309 375.948C419.418 375.948 420.661 377.596 420.661 379.691V379.965H415.011C415.098 381.28 416.023 382.379 417.526 382.379C418.32 382.379 419.129 382.061 419.679 381.497L420.199 382.205C419.505 382.899 418.566 383.274 417.424 383.274ZM419.592 379.171C419.577 378.13 418.884 376.844 417.294 376.844C415.806 376.844 415.069 378.101 415.011 379.171H419.592ZM430.752 383.274C427.977 383.274 425.795 381.251 425.795 378.289C425.795 375.327 427.977 373.304 430.752 373.304C432.457 373.304 433.642 374.128 434.407 375.211L433.396 375.775C432.847 374.966 431.85 374.373 430.752 374.373C428.642 374.373 427.038 375.992 427.038 378.289C427.038 380.572 428.642 382.205 430.752 382.205C431.85 382.205 432.847 381.627 433.396 380.804L434.422 381.367C433.613 382.465 432.457 383.274 430.752 383.274ZM435.517 385.832L435.69 384.85C435.849 384.922 436.109 384.965 436.283 384.965C436.76 384.965 437.077 384.806 437.323 384.228L437.786 383.173L434.867 376.122H436.037L438.364 381.844L440.676 376.122H441.86L438.364 384.517C437.944 385.529 437.236 385.919 436.312 385.933C436.08 385.933 435.719 385.89 435.517 385.832ZM446.069 383.274C443.988 383.274 442.586 381.685 442.586 379.604C442.586 377.538 443.988 375.948 446.069 375.948C447.34 375.948 448.092 376.468 448.626 377.162L447.904 377.827C447.442 377.191 446.849 376.916 446.127 376.916C444.638 376.916 443.713 378.058 443.713 379.604C443.713 381.15 444.638 382.306 446.127 382.306C446.849 382.306 447.442 382.017 447.904 381.396L448.626 382.061C448.092 382.754 447.34 383.274 446.069 383.274ZM451.229 383.101H450.145V373.463H451.229V383.101ZM456.541 383.274C454.475 383.274 452.986 381.786 452.986 379.604C452.986 377.581 454.431 375.948 456.426 375.948C458.535 375.948 459.778 377.596 459.778 379.691V379.965H454.128C454.215 381.28 455.14 382.379 456.642 382.379C457.437 382.379 458.246 382.061 458.795 381.497L459.316 382.205C458.622 382.899 457.683 383.274 456.541 383.274ZM458.709 379.171C458.694 378.13 458.001 376.844 456.411 376.844C454.923 376.844 454.186 378.101 454.128 379.171H458.709ZM378.578 400.274C375.716 400.274 373.795 398.136 373.795 395.289C373.795 392.443 375.716 390.304 378.578 390.304C381.424 390.304 383.361 392.443 383.361 395.289C383.361 398.136 381.424 400.274 378.578 400.274ZM378.578 399.205C380.731 399.205 382.118 397.529 382.118 395.289C382.118 393.035 380.731 391.373 378.578 391.373C376.41 391.373 375.037 393.035 375.037 395.289C375.037 397.529 376.41 399.205 378.578 399.205ZM388.63 400.274C387.676 400.274 386.838 399.827 386.274 399.046V402.76H385.191V393.122H386.274V394.162C386.78 393.454 387.647 392.948 388.63 392.948C390.465 392.948 391.737 394.335 391.737 396.604C391.737 398.858 390.465 400.274 388.63 400.274ZM388.355 399.306C389.757 399.306 390.595 398.15 390.595 396.604C390.595 395.058 389.757 393.916 388.355 393.916C387.503 393.916 386.65 394.422 386.274 395.029V398.179C386.65 398.786 387.503 399.306 388.355 399.306ZM395.223 400.274C394.197 400.274 393.677 399.682 393.677 398.642V394.075H392.521V393.122H393.677V391.214H394.76V393.122H396.177V394.075H394.76V398.41C394.76 398.931 394.992 399.306 395.468 399.306C395.772 399.306 396.061 399.176 396.205 399.017L396.523 399.827C396.249 400.087 395.859 400.274 395.223 400.274ZM398.242 392.125C397.852 392.125 397.52 391.807 397.52 391.402C397.52 390.998 397.852 390.665 398.242 390.665C398.647 390.665 398.979 390.998 398.979 391.402C398.979 391.807 398.647 392.125 398.242 392.125ZM398.791 400.101H397.707V393.122H398.791V400.101ZM410.461 400.101H409.377V395.361C409.377 394.48 408.987 393.916 408.091 393.916C407.369 393.916 406.603 394.437 406.242 394.986V400.101H405.158V395.361C405.158 394.48 404.782 393.916 403.872 393.916C403.164 393.916 402.413 394.437 402.037 395V400.101H400.953V393.122H402.037V394.133C402.326 393.685 403.265 392.948 404.291 392.948C405.36 392.948 405.967 393.526 406.17 394.249C406.56 393.613 407.499 392.948 408.51 392.948C409.782 392.948 410.461 393.656 410.461 395.058V400.101ZM413.158 392.125C412.768 392.125 412.435 391.807 412.435 391.402C412.435 390.998 412.768 390.665 413.158 390.665C413.562 390.665 413.895 390.998 413.895 391.402C413.895 391.807 413.562 392.125 413.158 392.125ZM413.707 400.101H412.623V393.122H413.707V400.101ZM420.854 400.101H415.536V399.263L419.38 394.075H415.536V393.122H420.796V393.945L416.924 399.162H420.854V400.101ZM428.132 400.101H427.049V399.306C426.471 399.942 425.676 400.274 424.737 400.274C423.552 400.274 422.295 399.48 422.295 397.962C422.295 396.402 423.552 395.665 424.737 395.665C425.69 395.665 426.485 395.968 427.049 396.619V395.361C427.049 394.422 426.297 393.888 425.286 393.888C424.448 393.888 423.768 394.191 423.147 394.856L422.641 394.104C423.393 393.324 424.289 392.948 425.43 392.948C426.904 392.948 428.132 393.613 428.132 395.304V400.101ZM425.127 399.494C425.893 399.494 426.63 399.205 427.049 398.627V397.312C426.63 396.734 425.893 396.445 425.127 396.445C424.115 396.445 423.407 397.081 423.407 397.977C423.407 398.858 424.115 399.494 425.127 399.494ZM432.068 400.274C431.042 400.274 430.522 399.682 430.522 398.642V394.075H429.366V393.122H430.522V391.214H431.605V393.122H433.021V394.075H431.605V398.41C431.605 398.931 431.837 399.306 432.313 399.306C432.617 399.306 432.906 399.176 433.05 399.017L433.368 399.827C433.094 400.087 432.704 400.274 432.068 400.274ZM435.087 392.125C434.697 392.125 434.364 391.807 434.364 391.402C434.364 390.998 434.697 390.665 435.087 390.665C435.492 390.665 435.824 390.998 435.824 391.402C435.824 391.807 435.492 392.125 435.087 392.125ZM435.636 400.101H434.552V393.122H435.636V400.101ZM440.847 400.274C438.723 400.274 437.393 398.627 437.393 396.604C437.393 394.581 438.723 392.948 440.847 392.948C442.971 392.948 444.301 394.581 444.301 396.604C444.301 398.627 442.971 400.274 440.847 400.274ZM440.847 399.306C442.335 399.306 443.159 398.035 443.159 396.604C443.159 395.188 442.335 393.916 440.847 393.916C439.359 393.916 438.52 395.188 438.52 396.604C438.52 398.035 439.359 399.306 440.847 399.306ZM451.862 400.101H450.778V395.535C450.778 394.307 450.157 393.916 449.217 393.916C448.365 393.916 447.556 394.437 447.151 395V400.101H446.067V393.122H447.151V394.133C447.642 393.555 448.596 392.948 449.636 392.948C451.096 392.948 451.862 393.685 451.862 395.202V400.101Z"
        fill="white" />
      <g id="RCM" clip-path="url(#clip2_4_20)">
        <g id="Group 5085">
          <path id="Vector 133"
            d="M415.246 335.75C415.246 334.625 414.147 333.5 412.458 333.5C410.768 333.5 409.71 334.494 409.71 335.542C409.71 336.591 410.471 337.503 412.458 337.789C414.246 338.047 415.551 338.616 415.551 340.25C415.551 341.561 414.085 342.5 412.458 342.5C410.83 342.5 409.551 341.823 409.551 340.25"
            stroke="white" stroke-width="1.5" stroke-linecap="round" stroke-linejoin="round" />
          <path id="Vector 134" d="M412.551 332L412.551 344" stroke="white" stroke-width="1.5" stroke-linecap="round"
            stroke-linejoin="round" />
        </g>
        <path id="Vector_15"
          d="M405.552 346.486C403.108 344.469 401.551 341.416 401.551 338C401.551 331.925 406.476 327 412.551 327C413.962 327 415.311 327.266 416.551 327.75M405.552 346.486L402.273 346.679M405.552 346.486L405.744 343.208M408.551 348.25C409.791 348.734 411.14 349 412.551 349C418.626 349 423.551 344.075 423.551 338C423.551 334.584 421.993 331.531 419.55 329.514M419.55 329.514L422.828 329.321M419.55 329.514L419.357 332.792"
          stroke="white" stroke-width="1.5" stroke-linecap="round" stroke-linejoin="round" />
      </g>
    </g>
  </g>
  <g class="bubble">
    <circle id="Ellipse 157_2" cx="239.5" cy="464.5" r="66.5" fill="#8B3B70" />
    <g id="Group 5895">
      <path id="Technology &#38; Analytics"
        d="M193.955 472H192.516V461.717H188.857V460.434H197.631V461.717H193.955V472ZM197.008 467.804C197.008 465.376 198.742 463.417 201.135 463.417C203.667 463.417 205.158 465.393 205.158 467.908V468.237H198.378C198.482 469.815 199.592 471.133 201.395 471.133C202.349 471.133 203.32 470.752 203.979 470.075L204.603 470.925C203.771 471.757 202.644 472.208 201.274 472.208C198.794 472.208 197.008 470.422 197.008 467.804ZM201.118 464.492C199.332 464.492 198.447 466 198.378 467.283H203.875C203.857 466.035 203.025 464.492 201.118 464.492ZM206.779 467.804C206.779 465.324 208.461 463.417 210.958 463.417C212.484 463.417 213.385 464.041 214.027 464.873L213.16 465.671C212.605 464.908 211.894 464.578 211.027 464.578C209.241 464.578 208.131 465.948 208.131 467.804C208.131 469.659 209.241 471.046 211.027 471.046C211.894 471.046 212.605 470.699 213.16 469.954L214.027 470.752C213.385 471.584 212.484 472.208 210.958 472.208C208.461 472.208 206.779 470.301 206.779 467.804ZM222.82 472H221.52V466.486C221.52 465.012 220.757 464.578 219.63 464.578C218.624 464.578 217.653 465.203 217.15 465.879V472H215.85V460.434H217.15V464.839C217.74 464.145 218.884 463.417 220.15 463.417C221.901 463.417 222.82 464.266 222.82 466.087V472ZM232.371 472H231.07V466.521C231.07 465.047 230.324 464.578 229.197 464.578C228.174 464.578 227.203 465.203 226.718 465.879V472H225.417V463.625H226.718V464.839C227.307 464.145 228.452 463.417 229.7 463.417C231.452 463.417 232.371 464.301 232.371 466.122V472ZM238.627 472.208C236.078 472.208 234.482 470.231 234.482 467.804C234.482 465.376 236.078 463.417 238.627 463.417C241.176 463.417 242.771 465.376 242.771 467.804C242.771 470.231 241.176 472.208 238.627 472.208ZM238.627 471.046C240.413 471.046 241.401 469.52 241.401 467.804C241.401 466.104 240.413 464.578 238.627 464.578C236.841 464.578 235.835 466.104 235.835 467.804C235.835 469.52 236.841 471.046 238.627 471.046ZM246.191 472H244.891V460.434H246.191V472ZM252.444 472.208C249.895 472.208 248.3 470.231 248.3 467.804C248.3 465.376 249.895 463.417 252.444 463.417C254.993 463.417 256.589 465.376 256.589 467.804C256.589 470.231 254.993 472.208 252.444 472.208ZM252.444 471.046C254.23 471.046 255.219 469.52 255.219 467.804C255.219 466.104 254.23 464.578 252.444 464.578C250.658 464.578 249.653 466.104 249.653 467.804C249.653 469.52 250.658 471.046 252.444 471.046ZM258.691 474.15L259.35 473.179C260.044 474.011 260.876 474.324 262.073 474.324C263.46 474.324 264.761 473.647 264.761 471.809V470.613C264.154 471.462 263.131 472.104 261.951 472.104C259.767 472.104 258.223 470.474 258.223 467.769C258.223 465.081 259.749 463.417 261.951 463.417C263.079 463.417 264.084 463.972 264.761 464.891V463.625H266.061V471.757C266.061 474.532 264.119 475.399 262.073 475.399C260.651 475.399 259.68 475.121 258.691 474.15ZM264.761 469.59V465.931C264.31 465.203 263.304 464.578 262.264 464.578C260.582 464.578 259.576 465.914 259.576 467.769C259.576 469.607 260.582 470.96 262.264 470.96C263.304 470.96 264.31 470.318 264.761 469.59ZM268.198 475.277L268.406 474.098C268.596 474.185 268.909 474.237 269.117 474.237C269.689 474.237 270.07 474.046 270.365 473.353L270.92 472.087L267.417 463.625H268.822L271.614 470.491L274.388 463.625H275.81L271.614 473.699C271.111 474.913 270.261 475.381 269.151 475.399C268.874 475.399 268.44 475.347 268.198 475.277ZM288.712 469.815C289.388 470.526 290.116 471.22 290.949 472H289.163C288.816 471.688 288.365 471.254 287.897 470.786C287.047 471.619 285.955 472.208 284.55 472.208C282.573 472.208 280.961 471.133 280.961 468.983C280.961 467.179 282.175 466.26 283.51 465.532C282.99 464.648 282.625 463.763 282.625 462.948C282.625 461.405 283.891 460.261 285.539 460.261C287.03 460.261 288.157 461.076 288.157 462.532C288.157 464.266 286.666 465.029 285.209 465.792C285.66 466.434 286.163 467.006 286.544 467.44C287.012 467.977 287.463 468.48 287.914 468.983C288.538 468.029 288.955 466.989 289.163 466.347L290.272 466.833C289.891 467.752 289.405 468.844 288.712 469.815ZM283.961 462.966C283.961 463.573 284.255 464.266 284.654 464.96C285.885 464.336 286.943 463.729 286.943 462.584C286.943 461.735 286.354 461.284 285.591 461.284C284.689 461.284 283.961 461.977 283.961 462.966ZM284.689 471.133C285.643 471.133 286.458 470.647 287.117 469.989C286.458 469.295 285.833 468.636 285.504 468.237C285.036 467.682 284.533 467.058 284.082 466.399C283.111 466.989 282.365 467.7 282.365 468.896C282.365 470.335 283.475 471.133 284.689 471.133ZM217.057 493H215.461L214.438 490.434H208.577L207.554 493H205.959L210.606 481.434H212.392L217.057 493ZM214.005 489.15L211.508 482.717L208.994 489.15H214.005ZM225.47 493H224.17V487.521C224.17 486.047 223.424 485.578 222.297 485.578C221.274 485.578 220.303 486.203 219.817 486.879V493H218.517V484.625H219.817V485.839C220.407 485.145 221.551 484.417 222.8 484.417C224.551 484.417 225.47 485.301 225.47 487.122V493ZM234.605 493H233.304V492.046C232.61 492.809 231.657 493.208 230.53 493.208C229.108 493.208 227.599 492.254 227.599 490.434C227.599 488.561 229.108 487.677 230.53 487.677C231.674 487.677 232.628 488.041 233.304 488.821V487.312C233.304 486.185 232.402 485.544 231.189 485.544C230.183 485.544 229.368 485.908 228.622 486.706L228.015 485.804C228.917 484.867 229.992 484.417 231.362 484.417C233.131 484.417 234.605 485.214 234.605 487.243V493ZM233.304 491.231V489.653C232.801 488.96 231.917 488.613 230.998 488.613C229.784 488.613 228.934 489.376 228.934 490.451C228.934 491.509 229.784 492.272 230.998 492.272C231.917 492.272 232.801 491.925 233.304 491.231ZM238.512 493H237.212V481.434H238.512V493ZM240.638 496.277L240.846 495.098C241.037 495.185 241.349 495.237 241.557 495.237C242.129 495.237 242.511 495.046 242.806 494.353L243.36 493.087L239.858 484.625H241.262L244.054 491.491L246.829 484.625H248.25L244.054 494.699C243.551 495.913 242.702 496.381 241.592 496.399C241.314 496.399 240.881 496.347 240.638 496.277ZM251.722 493.208C250.491 493.208 249.867 492.497 249.867 491.249V485.769H248.48V484.625H249.867V482.336H251.168V484.625H252.867V485.769H251.168V490.971C251.168 491.595 251.445 492.046 252.017 492.046C252.381 492.046 252.728 491.89 252.902 491.699L253.283 492.671C252.954 492.983 252.485 493.208 251.722 493.208ZM255.346 483.22C254.877 483.22 254.479 482.821 254.479 482.336C254.479 481.85 254.877 481.469 255.346 481.469C255.831 481.469 256.23 481.85 256.23 482.336C256.23 482.821 255.831 483.22 255.346 483.22ZM256.005 493H254.704V484.625H256.005V493ZM258.113 488.804C258.113 486.324 259.795 484.417 262.292 484.417C263.818 484.417 264.72 485.041 265.361 485.873L264.494 486.671C263.94 485.908 263.229 485.578 262.362 485.578C260.576 485.578 259.466 486.948 259.466 488.804C259.466 490.659 260.576 492.046 262.362 492.046C263.229 492.046 263.94 491.699 264.494 490.954L265.361 491.752C264.72 492.584 263.818 493.208 262.292 493.208C259.795 493.208 258.113 491.301 258.113 488.804ZM266.456 491.89L267.132 490.954C267.687 491.595 268.745 492.15 269.889 492.15C271.172 492.15 271.866 491.578 271.866 490.763C271.866 489.844 270.843 489.549 269.716 489.272C268.294 488.942 266.681 488.561 266.681 486.827C266.681 485.526 267.808 484.417 269.802 484.417C271.224 484.417 272.23 484.954 272.906 485.63L272.299 486.532C271.797 485.925 270.878 485.474 269.802 485.474C268.658 485.474 267.947 485.995 267.947 486.74C267.947 487.555 268.901 487.815 269.993 488.075C271.45 488.405 273.132 488.821 273.132 490.676C273.132 492.081 272.005 493.208 269.837 493.208C268.467 493.208 267.306 492.792 266.456 491.89Z"
        fill="white" />
      <g id="Outline / UI Standard / line graph" clip-path="url(#clip3_4_20)">
        <path id="Icon_3"
          d="M236.108 442.158C236.524 442.376 236.997 442.5 237.5 442.5C238.328 442.5 239.078 442.164 239.621 441.621M236.108 442.158C235.152 441.656 234.5 440.654 234.5 439.5C234.5 437.843 235.843 436.5 237.5 436.5C239.157 436.5 240.5 437.843 240.5 439.5C240.5 440.328 240.164 441.078 239.621 441.621M236.108 442.158L233.392 447.342M233.392 447.342C232.976 447.124 232.503 447 232 447C230.343 447 229 448.343 229 450C229 451.657 230.343 453 232 453C233.657 453 235 451.657 235 450C235 448.846 234.348 447.844 233.392 447.342ZM239.621 441.621L242.879 444.879M242.879 444.879C242.336 445.422 242 446.172 242 447C242 448.657 243.343 450 245 450C246.657 450 248 448.657 248 447C248 445.575 247.007 444.382 245.675 444.076M242.879 444.879C243.422 444.336 244.172 444 245 444C245.232 444 245.458 444.026 245.675 444.076M245.675 444.076L247.325 436.924M247.325 436.924C247.542 436.974 247.768 437 248 437C249.657 437 251 435.657 251 434C251 432.343 249.657 431 248 431C246.343 431 245 432.343 245 434C245 435.425 245.993 436.618 247.325 436.924Z"
          stroke="white" stroke-width="1.5" stroke-linecap="round" stroke-linejoin="round" />
      </g>
    </g>
  </g>
  <g class="bubble">
    <circle id="Ellipse 155_3" cx="66.0391" cy="365.101" r="65" fill="#8B3B70" />
    <g id="Group 5886_3">
      <path id="Financial&#226;&#128;&#168;Security"
        d="M35.1953 373.101H33.7561V361.535H41.3337V362.818H35.1953V366.547H41.2123V367.83H35.1953V373.101ZM43.8793 363.321C43.4111 363.321 43.0123 362.922 43.0123 362.437C43.0123 361.951 43.4111 361.57 43.8793 361.57C44.3648 361.57 44.7637 361.951 44.7637 362.437C44.7637 362.922 44.3648 363.321 43.8793 363.321ZM44.5383 373.101H43.2377V364.726H44.5383V373.101ZM54.0859 373.101H52.7854V367.622C52.7854 366.148 52.0397 365.68 50.9126 365.68C49.8896 365.68 48.9185 366.304 48.433 366.98V373.101H47.1325V364.726H48.433V365.94C49.0226 365.246 50.167 364.518 51.4155 364.518C53.1668 364.518 54.0859 365.402 54.0859 367.223V373.101ZM63.2203 373.101H61.9198V372.147C61.2262 372.91 60.2725 373.309 59.1454 373.309C57.7235 373.309 56.2149 372.355 56.2149 370.535C56.2149 368.662 57.7235 367.778 59.1454 367.778C60.2898 367.778 61.2435 368.142 61.9198 368.922V367.414C61.9198 366.286 61.0181 365.645 59.8043 365.645C58.7986 365.645 57.9836 366.009 57.238 366.807L56.6311 365.905C57.5328 364.969 58.6078 364.518 59.9777 364.518C61.7464 364.518 63.2203 365.315 63.2203 367.344V373.101ZM61.9198 371.332V369.754C61.4169 369.061 60.5326 368.714 59.6136 368.714C58.3998 368.714 57.5501 369.477 57.5501 370.552C57.5501 371.61 58.3998 372.373 59.6136 372.373C60.5326 372.373 61.4169 372.026 61.9198 371.332ZM72.7806 373.101H71.4801V367.622C71.4801 366.148 70.7345 365.68 69.6074 365.68C68.5843 365.68 67.6133 366.304 67.1278 366.98V373.101H65.8273V364.726H67.1278V365.94C67.7173 365.246 68.8618 364.518 70.1103 364.518C71.8616 364.518 72.7806 365.402 72.7806 367.223V373.101ZM74.8923 368.905C74.8923 366.425 76.5743 364.518 79.0713 364.518C80.5972 364.518 81.4989 365.142 82.1405 365.974L81.2735 366.772C80.7186 366.009 80.0077 365.68 79.1407 365.68C77.3546 365.68 76.2449 367.049 76.2449 368.905C76.2449 370.76 77.3546 372.147 79.1407 372.147C80.0077 372.147 80.7186 371.801 81.2735 371.055L82.1405 371.853C81.4989 372.685 80.5972 373.309 79.0713 373.309C76.5743 373.309 74.8923 371.402 74.8923 368.905ZM84.6048 363.321C84.1367 363.321 83.7378 362.922 83.7378 362.437C83.7378 361.951 84.1367 361.57 84.6048 361.57C85.0904 361.57 85.4892 361.951 85.4892 362.437C85.4892 362.922 85.0904 363.321 84.6048 363.321ZM85.2638 373.101H83.9632V364.726H85.2638V373.101ZM94.3952 373.101H93.0947V372.147C92.4011 372.91 91.4474 373.309 90.3203 373.309C88.8984 373.309 87.3898 372.355 87.3898 370.535C87.3898 368.662 88.8984 367.778 90.3203 367.778C91.4647 367.778 92.4184 368.142 93.0947 368.922V367.414C93.0947 366.286 92.193 365.645 90.9792 365.645C89.9735 365.645 89.1585 366.009 88.4129 366.807L87.806 365.905C88.7077 364.969 89.7828 364.518 91.1526 364.518C92.9213 364.518 94.3952 365.315 94.3952 367.344V373.101ZM93.0947 371.332V369.754C92.5918 369.061 91.7075 368.714 90.7885 368.714C89.5747 368.714 88.725 369.477 88.725 370.552C88.725 371.61 89.5747 372.373 90.7885 372.373C91.7075 372.373 92.5918 372.026 93.0947 371.332ZM98.3027 373.101H97.0022V361.535H98.3027V373.101ZM36.0174 392.471L36.8671 391.379C37.63 392.228 38.8785 393.026 40.5085 393.026C42.572 393.026 43.2309 391.916 43.2309 391.032C43.2309 389.645 41.8264 389.263 40.3004 388.847C38.445 388.362 36.3816 387.841 36.3816 385.57C36.3816 383.662 38.0809 382.362 40.3524 382.362C42.1211 382.362 43.491 382.951 44.462 383.974L43.595 385.032C42.728 384.079 41.5142 383.645 40.2484 383.645C38.8612 383.645 37.8728 384.391 37.8728 385.483C37.8728 386.645 39.208 386.992 40.6819 387.39C42.572 387.893 44.7221 388.483 44.7221 390.91C44.7221 392.592 43.5777 394.309 40.4565 394.309C38.445 394.309 36.9711 393.546 36.0174 392.471ZM46.3337 389.905C46.3337 387.477 48.0677 385.518 50.4606 385.518C52.9923 385.518 54.4835 387.494 54.4835 390.009V390.338H47.7036C47.8076 391.916 48.9174 393.234 50.7207 393.234C51.6744 393.234 52.6455 392.853 53.3044 392.176L53.9287 393.026C53.0963 393.858 51.9692 394.309 50.5994 394.309C48.1197 394.309 46.3337 392.523 46.3337 389.905ZM50.4433 386.593C48.6573 386.593 47.7729 388.101 47.7036 389.385H53.2004C53.183 388.136 52.3507 386.593 50.4433 386.593ZM56.1044 389.905C56.1044 387.425 57.7864 385.518 60.2834 385.518C61.8093 385.518 62.711 386.142 63.3526 386.974L62.4856 387.772C61.9307 387.009 61.2198 386.68 60.3528 386.68C58.5667 386.68 57.457 388.049 57.457 389.905C57.457 391.76 58.5667 393.147 60.3528 393.147C61.2198 393.147 61.9307 392.801 62.4856 392.055L63.3526 392.853C62.711 393.685 61.8093 394.309 60.2834 394.309C57.7864 394.309 56.1044 392.402 56.1044 389.905ZM72.1287 394.101H70.8282V392.922C70.1866 393.65 69.0942 394.309 67.8457 394.309C66.0944 394.309 65.1753 393.459 65.1753 391.639V385.726H66.4758V391.24C66.4758 392.714 67.2215 393.147 68.3486 393.147C69.3716 393.147 70.3427 392.558 70.8282 391.882V385.726H72.1287V394.101ZM76.0264 394.101H74.7259V385.726H76.0264V387.078C76.7027 386.194 77.6737 385.552 78.8182 385.552V386.888C78.6621 386.853 78.5061 386.836 78.298 386.836C77.5003 386.836 76.4079 387.494 76.0264 388.171V394.101ZM81.0911 384.321C80.6229 384.321 80.2241 383.922 80.2241 383.437C80.2241 382.951 80.6229 382.57 81.0911 382.57C81.5766 382.57 81.9754 382.951 81.9754 383.437C81.9754 383.922 81.5766 384.321 81.0911 384.321ZM81.75 394.101H80.4495V385.726H81.75V394.101ZM86.4597 394.309C85.2286 394.309 84.6044 393.598 84.6044 392.35V386.87H83.2171V385.726H84.6044V383.437H85.9049V385.726H87.6042V386.87H85.9049V392.072C85.9049 392.697 86.1823 393.147 86.7545 393.147C87.1187 393.147 87.4655 392.991 87.6389 392.801L88.0204 393.772C87.6909 394.084 87.2227 394.309 86.4597 394.309ZM88.9731 397.378L89.1812 396.199C89.3719 396.286 89.6841 396.338 89.8921 396.338C90.4644 396.338 90.8458 396.147 91.1406 395.454L91.6955 394.188L88.1928 385.726H89.5974L92.3891 392.592L95.1635 385.726H96.5854L92.3891 395.8C91.8863 397.014 91.0366 397.482 89.9268 397.5C89.6494 397.5 89.2159 397.448 88.9731 397.378Z"
        fill="white" />
      <g id="Outline / Commerce / dollar" clip-path="url(#clip4_4_20)">
        <path id="Icon_4"
          d="M68.7322 340.6C68.7322 338.995 67.9954 337.6 65.9415 337.6C63.8875 337.6 63.2322 338.816 63.2322 340.1C63.2322 341.384 63.9822 342.5 65.9415 342.85C67.7042 343.166 69.2322 343.728 69.2322 345.728C69.2322 347.333 67.5461 348.616 65.9415 348.616C64.3368 348.616 62.7322 347.654 62.7322 345.728M65.9415 336.1V349.9M76.9609 343C76.9609 349.075 72.0361 354 65.9609 354C59.8858 354 54.9609 349.075 54.9609 343C54.9609 336.925 59.8858 332 65.9609 332C72.0361 332 76.9609 336.925 76.9609 343Z"
          stroke="white" stroke-width="1.5" stroke-linecap="round" stroke-linejoin="round" />
      </g>
    </g>
  </g>
  <g class="bubble">
    <circle id="Ellipse 157_3" cx="67.2207" cy="165.783" r="66.5" fill="#8B3B70" />
    <g id="Group 5896">
      <path id="Growth &#38; Community Outreach"
        d="M39.2125 163.508C35.9179 163.508 33.2648 161.098 33.2648 157.509C33.2648 153.919 35.9179 151.526 39.2125 151.526C41.2586 151.526 42.6805 152.428 43.7036 153.694L42.5591 154.405C41.8309 153.468 40.5997 152.81 39.2125 152.81C36.6808 152.81 34.7561 154.752 34.7561 157.509C34.7561 160.248 36.6808 162.225 39.2125 162.225C40.5997 162.225 41.7442 161.549 42.3164 160.977V158.618H38.3455V157.335H43.7556V161.514C42.6805 162.711 41.1026 163.508 39.2125 163.508ZM47.3431 163.283H46.0426V154.908H47.3431V156.26C48.0194 155.376 48.9904 154.734 50.1349 154.734V156.069C49.9788 156.035 49.8227 156.017 49.6147 156.017C48.817 156.017 47.7246 156.676 47.3431 157.353V163.283ZM55.4249 163.491C52.8759 163.491 51.2807 161.514 51.2807 159.087C51.2807 156.659 52.8759 154.7 55.4249 154.7C57.9739 154.7 59.5692 156.659 59.5692 159.087C59.5692 161.514 57.9739 163.491 55.4249 163.491ZM55.4249 162.329C57.211 162.329 58.1994 160.803 58.1994 159.087C58.1994 157.387 57.211 155.861 55.4249 155.861C53.6389 155.861 52.6332 157.387 52.6332 159.087C52.6332 160.803 53.6389 162.329 55.4249 162.329ZM70.238 163.283H68.9375L66.7526 156.555L64.5678 163.283H63.2673L60.5969 154.908H61.9494L63.9956 161.584L66.1977 154.908H67.3075L69.5097 161.584L71.5558 154.908H72.9084L70.238 163.283ZM76.5389 163.491C75.3078 163.491 74.6836 162.78 74.6836 161.532V156.052H73.2963V154.908H74.6836V152.619H75.9841V154.908H77.6834V156.052H75.9841V161.254C75.9841 161.878 76.2615 162.329 76.8337 162.329C77.1979 162.329 77.5447 162.173 77.7181 161.982L78.0996 162.953C77.7701 163.266 77.3019 163.491 76.5389 163.491ZM86.4912 163.283H85.1907V157.769C85.1907 156.295 84.4277 155.861 83.3006 155.861C82.2949 155.861 81.3239 156.486 80.821 157.162V163.283H79.5205V151.717H80.821V156.122C81.4106 155.428 82.555 154.7 83.8208 154.7C85.5722 154.7 86.4912 155.549 86.4912 157.37V163.283ZM102.887 163.283H101.084C100.737 162.988 100.286 162.555 99.8183 162.069C98.9686 162.919 97.8935 163.491 96.489 163.491C94.4949 163.491 92.8822 162.416 92.8822 160.266C92.8822 158.462 94.0961 157.543 95.4312 156.832C94.911 155.948 94.5469 155.046 94.5469 154.231C94.5469 152.688 95.8301 151.544 97.46 151.544C98.9686 151.544 100.078 152.359 100.078 153.815C100.078 155.549 98.6045 156.312 97.1306 157.075C97.5988 157.717 98.0843 158.289 98.4658 158.723C98.9339 159.277 99.3848 159.78 99.8356 160.266C100.477 159.312 100.876 158.272 101.084 157.63L102.211 158.116C101.812 159.035 101.327 160.127 100.633 161.098C101.31 161.809 102.038 162.503 102.887 163.283ZM96.6104 162.416C97.5641 162.416 98.3791 161.93 99.038 161.272C98.3791 160.578 97.7722 159.919 97.4427 159.52C96.9572 158.965 96.4543 158.341 95.9861 157.682C95.0324 158.272 94.2868 158.983 94.2868 160.179C94.2868 161.618 95.3966 162.416 96.6104 162.416ZM95.8994 154.249C95.8994 154.856 96.1942 155.567 96.593 156.243C97.8242 155.636 98.8819 155.012 98.8819 153.867C98.8819 153.018 98.2924 152.567 97.5121 152.567C96.6277 152.567 95.8994 153.26 95.8994 154.249ZM31.5839 184.491C28.2546 184.491 25.6362 182.063 25.6362 178.509C25.6362 174.954 28.2546 172.526 31.5839 172.526C33.63 172.526 35.0519 173.515 35.9709 174.815L34.7571 175.492C34.0982 174.52 32.9017 173.81 31.5839 173.81C29.0522 173.81 27.1275 175.752 27.1275 178.509C27.1275 181.248 29.0522 183.208 31.5839 183.208C32.9017 183.208 34.0982 182.514 34.7571 181.526L35.9883 182.202C35.0172 183.52 33.63 184.491 31.5839 184.491ZM41.4293 184.491C38.8803 184.491 37.285 182.514 37.285 180.087C37.285 177.659 38.8803 175.7 41.4293 175.7C43.9782 175.7 45.5735 177.659 45.5735 180.087C45.5735 182.514 43.9782 184.491 41.4293 184.491ZM41.4293 183.329C43.2153 183.329 44.2037 181.803 44.2037 180.087C44.2037 178.387 43.2153 176.861 41.4293 176.861C39.6432 176.861 38.6375 178.387 38.6375 180.087C38.6375 181.803 39.6432 183.329 41.4293 183.329ZM59.1034 184.283H57.8029V178.595C57.8029 177.538 57.3347 176.861 56.2596 176.861C55.3926 176.861 54.4736 177.486 54.0401 178.145V184.283H52.7396V178.595C52.7396 177.538 52.2888 176.861 51.1963 176.861C50.3467 176.861 49.445 177.486 48.9941 178.162V184.283H47.6936V175.908H48.9941V177.122C49.3409 176.584 50.468 175.7 51.6992 175.7C52.9824 175.7 53.7106 176.393 53.9534 177.26C54.4216 176.497 55.5487 175.7 56.7625 175.7C58.2884 175.7 59.1034 176.549 59.1034 178.231V184.283ZM73.1076 184.283H71.8071V178.595C71.8071 177.538 71.3389 176.861 70.2638 176.861C69.3968 176.861 68.4778 177.486 68.0443 178.145V184.283H66.7438V178.595C66.7438 177.538 66.2929 176.861 65.2005 176.861C64.3508 176.861 63.4491 177.486 62.9983 178.162V184.283H61.6978V175.908H62.9983V177.122C63.3451 176.584 64.4722 175.7 65.7034 175.7C66.9865 175.7 67.7148 176.393 67.9576 177.26C68.4257 176.497 69.5529 175.7 70.7667 175.7C72.2926 175.7 73.1076 176.549 73.1076 178.231V184.283ZM82.6553 184.283H81.3548V183.104C80.7132 183.832 79.6208 184.491 78.3723 184.491C76.621 184.491 75.7019 183.641 75.7019 181.821V175.908H77.0024V181.422C77.0024 182.896 77.7481 183.329 78.8752 183.329C79.8982 183.329 80.8693 182.74 81.3548 182.063V175.908H82.6553V184.283ZM92.2059 184.283H90.9054V178.803C90.9054 177.33 90.1598 176.861 89.0327 176.861C88.0096 176.861 87.0386 177.486 86.553 178.162V184.283H85.2525V175.908H86.553V177.122C87.1426 176.428 88.2871 175.7 89.5355 175.7C91.2869 175.7 92.2059 176.584 92.2059 178.405V184.283ZM95.4447 174.711C94.9765 174.711 94.5777 174.33 94.5777 173.844C94.5777 173.359 94.9765 172.96 95.4447 172.96C95.9302 172.96 96.3291 173.359 96.3291 173.844C96.3291 174.33 95.9302 174.711 95.4447 174.711ZM96.1036 184.283H94.8031V175.908H96.1036V184.283ZM100.813 184.491C99.5822 184.491 98.958 183.78 98.958 182.532V177.052H97.5708V175.908H98.958V173.619H100.258V175.908H101.958V177.052H100.258V182.254C100.258 182.878 100.536 183.329 101.108 183.329C101.472 183.329 101.819 183.173 101.993 182.982L102.374 183.953C102.045 184.266 101.576 184.491 100.813 184.491ZM103.327 187.56L103.535 186.381C103.726 186.468 104.038 186.52 104.246 186.52C104.818 186.52 105.199 186.329 105.494 185.635L106.049 184.37L102.546 175.908H103.951L106.743 182.774L109.517 175.908H110.939L106.743 185.982C106.24 187.196 105.39 187.664 104.28 187.682C104.003 187.682 103.57 187.63 103.327 187.56ZM39.1484 204.491C35.715 204.491 33.4088 201.925 33.4088 198.509C33.4088 195.093 35.715 192.526 39.1484 192.526C42.5644 192.526 44.8879 195.093 44.8879 198.509C44.8879 201.925 42.5644 204.491 39.1484 204.491ZM39.1484 203.208C41.732 203.208 43.3967 201.196 43.3967 198.509C43.3967 195.804 41.732 193.81 39.1484 193.81C36.5473 193.81 34.9 195.804 34.9 198.509C34.9 201.196 36.5473 203.208 39.1484 203.208ZM54.0374 204.283H52.7369V203.104C52.0953 203.832 51.0029 204.491 49.7544 204.491C48.003 204.491 47.084 203.641 47.084 201.821V195.908H48.3845V201.422C48.3845 202.896 49.1301 203.329 50.2573 203.329C51.2803 203.329 52.2514 202.74 52.7369 202.063V195.908H54.0374V204.283ZM58.7501 204.491C57.519 204.491 56.8947 203.78 56.8947 202.532V197.052H55.5075V195.908H56.8947V193.619H58.1952V195.908H59.8946V197.052H58.1952V202.254C58.1952 202.878 58.4727 203.329 59.0449 203.329C59.409 203.329 59.7558 203.173 59.9292 202.982L60.3107 203.953C59.9813 204.266 59.5131 204.491 58.7501 204.491ZM63.0322 204.283H61.7317V195.908H63.0322V197.26C63.7084 196.376 64.6795 195.734 65.8239 195.734V197.069C65.6679 197.035 65.5118 197.017 65.3037 197.017C64.5061 197.017 63.4136 197.676 63.0322 198.353V204.283ZM71.2354 204.491C68.7557 204.491 66.9697 202.705 66.9697 200.087C66.9697 197.659 68.7037 195.7 71.0967 195.7C73.6283 195.7 75.1196 197.676 75.1196 200.191V200.52H68.3396C68.4436 202.098 69.5534 203.416 71.3568 203.416C72.3105 203.416 73.2815 203.034 73.9404 202.358L74.5647 203.208C73.7324 204.04 72.6052 204.491 71.2354 204.491ZM73.8364 199.566C73.8191 198.318 72.9867 196.775 71.0793 196.775C69.2933 196.775 68.4089 198.283 68.3396 199.566H73.8364ZM83.7632 204.283H82.4627V203.329C81.7691 204.092 80.8154 204.491 79.6883 204.491C78.2664 204.491 76.7578 203.537 76.7578 201.717C76.7578 199.844 78.2664 198.96 79.6883 198.96C80.8327 198.96 81.7864 199.324 82.4627 200.104V198.595C82.4627 197.468 81.561 196.827 80.3472 196.827C79.3415 196.827 78.5265 197.191 77.7809 197.989L77.174 197.087C78.0756 196.15 79.1507 195.7 80.5206 195.7C82.2893 195.7 83.7632 196.497 83.7632 198.526V204.283ZM80.1565 203.555C81.0755 203.555 81.9598 203.208 82.4627 202.514V200.936C81.9598 200.243 81.0755 199.896 80.1565 199.896C78.9426 199.896 78.093 200.659 78.093 201.734C78.093 202.792 78.9426 203.555 80.1565 203.555ZM90.0636 204.491C87.5666 204.491 85.8846 202.584 85.8846 200.087C85.8846 197.607 87.5666 195.7 90.0636 195.7C91.5895 195.7 92.4912 196.324 93.1328 197.156L92.2658 197.954C91.7109 197.191 91 196.861 90.133 196.861C88.3469 196.861 87.2372 198.231 87.2372 200.087C87.2372 201.942 88.3469 203.329 90.133 203.329C91 203.329 91.7109 202.982 92.2658 202.237L93.1328 203.034C92.4912 203.867 91.5895 204.491 90.0636 204.491ZM101.926 204.283H100.626V198.769C100.626 197.295 99.8628 196.861 98.7357 196.861C97.73 196.861 96.7589 197.486 96.256 198.162V204.283H94.9555V192.717H96.256V197.122C96.8456 196.428 97.9901 195.7 99.2559 195.7C101.007 195.7 101.926 196.549 101.926 198.37V204.283Z"
        fill="white" />
      <g id="Outline / Specialties / public health" clip-path="url(#clip5_4_20)">
        <path id="Icon_5"
          d="M72.5384 144L63.4609 144M72.5384 144L78.9592 144C78.982 144 79.0005 143.981 79.0002 143.959C78.978 141.702 77.1419 139.88 74.8802 139.88C73.6018 139.88 72.4594 140.462 71.7036 141.376M72.5384 144V143.954C72.529 142.994 72.2213 142.105 71.7036 141.376M63.4609 144H57.0411C57.0184 144 56.9999 143.981 57.0001 143.959C57.0223 141.702 58.8584 139.88 61.1201 139.88C62.3982 139.88 63.5404 140.462 64.2962 141.375M63.4609 144V143.954C63.4704 142.994 63.7782 142.105 64.2962 141.375M71.7036 141.376C70.8812 140.217 69.5288 139.461 67.9997 139.461C66.4709 139.461 65.1186 140.217 64.2962 141.375M68.3333 122C68.8856 122 69.3333 122.448 69.3333 123V124.567C69.3333 124.622 69.3781 124.667 69.4333 124.667L71 124.667C71.5523 124.667 72 125.114 72 125.667V126.333C72 126.886 71.5523 127.333 71 127.333H69.4333C69.3781 127.333 69.3333 127.378 69.3333 127.433V129C69.3333 129.552 68.8856 130 68.3333 130H67.6667C67.1144 130 66.6667 129.552 66.6667 129V127.433C66.6667 127.378 66.6219 127.333 66.5667 127.333H65C64.4477 127.333 64 126.886 64 126.333V125.667C64 125.114 64.4477 124.667 65 124.667L66.5667 124.667C66.6219 124.667 66.6667 124.622 66.6667 124.567V123C66.6667 122.448 67.1144 122 67.6667 122H68.3333ZM70.0403 135.204C70.0403 136.332 69.1258 137.246 67.9977 137.246C66.8697 137.246 65.9552 136.332 65.9552 135.204C65.9552 134.076 66.8697 133.161 67.9977 133.161C69.1258 133.161 70.0403 134.076 70.0403 135.204ZM62.9725 136.015C62.9725 137.039 62.1423 137.869 61.1184 137.869C60.0944 137.869 59.2643 137.039 59.2643 136.015C59.2643 134.991 60.0944 134.161 61.1184 134.161C62.1423 134.161 62.9725 134.991 62.9725 136.015ZM76.7326 136.015C76.7326 137.039 75.9025 137.869 74.8785 137.869C73.8545 137.869 73.0244 137.039 73.0244 136.015C73.0244 134.991 73.8545 134.161 74.8785 134.161C75.9025 134.161 76.7326 134.991 76.7326 136.015Z"
          stroke="white" stroke-width="1.5" />
      </g>
    </g>
  </g>
</svg>