<?xml version="1.0" encoding="UTF-8"?> <svg xmlns="http://www.w3.org/2000/svg" width="56" height="56" viewBox="0 0 56 56" fill="none"><path d="M51.0956 27.7723C51.0956 40.4081 40.8522 50.6515 28.2164 50.6515C15.5805 50.6515 5.33713 40.4081 5.33713 27.7723C5.33713 15.1365 15.5805 4.89307 28.2164 4.89307C40.8522 4.89307 51.0956 15.1365 51.0956 27.7723Z" stroke="#C0C7DF" stroke-width="3.43188" stroke-linecap="round"></path><path d="M18.9172 27.6526V27.7725" stroke="#C0C7DF" stroke-width="3.43188" stroke-linecap="round"></path><path d="M37.2206 27.6528V27.7725" stroke="#C0C7DF" stroke-width="3.43188" stroke-linecap="round"></path><path d="M23.4931 36.8042V36.8042C26.0202 39.3314 30.1176 39.3314 32.6447 36.8042V36.8042" stroke="#C0C7DF" stroke-width="3.43188" stroke-linecap="round"></path><path d="M27.942 4.77344L29.0736 7.75085C29.7694 9.58166 28.5358 11.6495 26.3804 12.2654V12.2654C24.6805 12.7512 23.4944 14.1725 23.494 15.7243L23.494 15.9035C23.4936 17.4579 24.6096 18.78 26.2732 19.1959L26.3667 19.2193C27.4551 19.4914 28.6493 19.3549 29.6776 18.8408L30.3575 18.5009" stroke="#C0C7DF" stroke-width="3.43188" stroke-linecap="round"></path></svg> 