<?xml version="1.0" encoding="UTF-8"?> <svg xmlns="http://www.w3.org/2000/svg" width="46" height="46" viewBox="0 0 46 46" fill="none"><g clip-path="url(#clip0_331_1192)"><mask id="mask0_331_1192" style="mask-type:luminance" maskUnits="userSpaceOnUse" x="0" y="0" width="46" height="46"><path d="M45.6911 0.159912H0.346619V45.5044H45.6911V0.159912Z" fill="white"></path></mask><g mask="url(#mask0_331_1192)"><path d="M23.0189 7.71738C23.0189 4.587 20.4813 2.04932 17.3508 2.04932C14.2837 2.04932 11.7857 4.48534 11.6858 7.52808C11.6824 7.63238 11.5976 7.71713 11.4932 7.7197C9.27688 7.77425 7.29722 8.78299 5.94954 10.3507M23.0189 7.71738C23.0189 4.587 25.5564 2.04932 28.6869 2.04932C31.7539 2.04932 34.252 4.48534 34.3519 7.52808C34.3553 7.63238 34.4402 7.71713 34.5445 7.7197C36.7545 7.77409 38.729 8.77712 40.0763 10.337M23.0189 7.71738C23.0189 7.71738 23.0189 16.7986 23.0189 22.6174M5.94954 10.3507L6.01456 10.5847C6.55468 12.6005 8.6267 13.7968 10.6425 13.2567M5.94954 10.3507C4.81251 11.6733 4.12532 13.3938 4.12532 15.2748C4.12532 16.2422 4.30711 17.1672 4.63837 18.0174C4.67071 18.1005 4.6426 18.195 4.57056 18.2475C3.1556 19.2781 2.23596 20.9478 2.23596 22.8322C2.23596 24.7166 3.1556 26.3863 4.57056 27.4169C4.6426 27.4694 4.67071 27.5639 4.63837 27.647C4.30711 28.4972 4.12532 29.4223 4.12532 30.3896C4.12532 32.8622 5.31272 35.0575 7.14838 36.4361M40.0763 10.337L40.0232 10.5847C39.4831 12.6005 37.411 13.7968 35.3952 13.2567M40.0763 10.337C41.2205 11.6614 41.9124 13.3873 41.9124 15.2748C41.9124 16.2422 41.7306 17.1672 41.3994 18.0174C41.3669 18.1005 41.3951 18.195 41.4671 18.2475C42.8822 19.2781 43.8017 20.9478 43.8017 22.8322C43.8017 24.7166 42.8822 26.3863 41.4671 27.4169C41.3951 27.4694 41.3669 27.5639 41.3994 27.647C41.7306 28.4972 41.9124 29.4223 41.9124 30.3896C41.9124 32.8828 40.7051 35.0939 38.8433 36.4705M23.0189 22.6174C22.6584 22.7939 21.9655 22.9885 21.9655 22.9885C20.8128 23.2932 19.5536 23.2348 18.3677 22.7394C17.5888 22.4141 16.922 21.934 16.3882 21.3498M23.0189 22.6174C23.0189 24.3741 23.0189 26.4199 23.0189 28.4338M23.0189 37.947C23.0189 41.0775 20.4813 43.6151 17.3508 43.6151C14.2837 43.6151 11.7857 41.1792 11.6858 38.1363C11.6824 38.0321 11.5976 37.9472 11.4932 37.9448C9.86495 37.9047 8.36442 37.3496 7.14838 36.4361M23.0189 37.947C23.0189 41.0775 25.5564 43.6151 28.6869 43.6151C31.7539 43.6151 34.252 41.1792 34.3519 38.1363C34.3553 38.0321 34.4402 37.9472 34.5445 37.9448C36.1523 37.9051 37.6356 37.3634 38.8433 36.4705M23.0189 37.947C23.0189 37.947 23.0189 33.2828 23.0189 28.4338M7.14838 36.4361L7.47954 35.5043C8.01967 33.4885 10.0917 32.2922 12.1075 32.8324M38.8433 36.4705L38.5582 35.5043C38.0181 33.4885 35.946 32.2922 33.9302 32.8324M23.0189 28.4338L23.2195 28.5091C24.372 28.8141 25.6313 28.7555 26.8172 28.2603C27.5913 27.9369 28.2546 27.4607 28.7869 26.8815M15.3539 15.4221C14.4869 17.4937 14.9643 19.7917 16.3882 21.3498M16.3882 21.3498L15.8556 21.7043C14.3468 22.5726 12.6005 22.6608 11.086 22.0944M29.8311 20.9429C30.7 23.0193 30.2184 25.3229 28.7869 26.8815M28.7869 26.8815L29.3293 27.225C30.8381 28.0933 32.5845 28.1815 34.099 27.6151" stroke="#ABD8E4" stroke-width="2.83403" stroke-linecap="round"></path></g></g><defs><clipPath id="clip0_331_1192"><rect width="45.3445" height="45.3445" fill="white" transform="translate(0.346619 0.159912)"></rect></clipPath></defs></svg> 