<?xml version="1.0" encoding="UTF-8"?> <svg xmlns="http://www.w3.org/2000/svg" width="56" height="56" viewBox="0 0 56 56" fill="none"><path d="M7.39637 5.79485L9.13524 5.59759L9.13447 5.59113L7.39637 5.79485ZM19.5916 4.38118L21.3304 4.18387L21.3297 4.17745L19.5916 4.38118ZM14.6255 25.6524C15.585 25.5355 16.268 24.6631 16.1512 23.7036C16.0344 22.7443 15.162 22.0612 14.2026 22.178L14.6255 25.6524ZM14.6247 32.6503C15.5842 32.5339 16.2677 31.6617 16.1513 30.7022C16.035 29.7428 15.1629 29.0593 14.2034 29.1758L14.6247 32.6503ZM48.9995 37.2486H43.9661V40.7486H48.9995V37.2486ZM43.9661 52.9585H48.9995V49.4585H43.9661V52.9585ZM53.0829 48.8761V41.3313H49.5829V48.8761H53.0829ZM48.9995 52.9585C51.2542 52.9585 53.0829 51.1313 53.0829 48.8761H49.5829C49.5829 49.1972 49.3222 49.4585 48.9995 49.4585V52.9585ZM48.9995 40.7486C49.3222 40.7486 49.5829 41.01 49.5829 41.3313H53.0829C53.0829 39.0761 51.2542 37.2486 48.9995 37.2486V40.7486ZM30.8726 34.2925L28.4993 14.2303L25.0234 14.6415L27.3968 34.7039L30.8726 34.2925ZM41.6327 34.8068H31.4519V38.3068H41.6327V34.8068ZM45.7161 51.3182V38.8894H42.2161V51.3182H45.7161ZM11.359 51.9008C11.0645 51.9008 10.8168 51.6817 10.7802 51.3907L7.30752 51.8271C7.56423 53.8694 9.30112 55.4008 11.359 55.4008V51.9008ZM42.2161 51.3182C42.2161 51.6395 41.9552 51.9008 41.6327 51.9008V55.4008C43.8872 55.4008 45.7161 53.5733 45.7161 51.3182H42.2161ZM41.6327 38.3068C41.9552 38.3068 42.2161 38.5681 42.2161 38.8894H45.7161C45.7161 36.6343 43.8872 34.8068 41.6327 34.8068V38.3068ZM27.3968 34.7039C27.64 36.7591 29.3827 38.3068 31.4519 38.3068V34.8068C31.1558 34.8068 30.9073 34.5854 30.8726 34.2925L27.3968 34.7039ZM6.55126 12.5795C4.28651 12.8298 2.66409 14.8851 2.94834 17.1465L6.42102 16.71C6.38053 16.3879 6.6116 16.0942 6.93566 16.0584L6.55126 12.5795ZM24.3801 14.1308C24.699 14.0956 24.9858 14.3242 25.0234 14.6415L28.4993 14.2303C28.2357 12.0028 26.2246 10.4057 23.9955 10.652L24.3801 14.1308ZM16.8007 0.594748L9.24111 1.47106L9.64414 4.94778L17.2037 4.07147L16.8007 0.594748ZM21.3297 4.17745C21.0672 1.93838 19.0395 0.335226 16.8007 0.594748L17.2037 4.07147C17.5251 4.03421 17.816 4.26495 17.8535 4.5849L21.3297 4.17745ZM9.13447 5.59113C9.09719 5.27291 9.32448 4.98483 9.64414 4.94778L9.24111 1.47106C7.00059 1.73079 5.39563 3.75778 5.65827 5.9986L9.13447 5.59113ZM11.359 55.4008H41.6327V51.9008H11.359V55.4008ZM5.65753 5.99211L6.60449 14.3394L10.0822 13.9449L9.13524 5.59759L5.65753 5.99211ZM8.15114 12.4028L6.55126 12.5795L6.93566 16.0584L8.53553 15.8816L8.15114 12.4028ZM23.9955 10.652L20.354 11.0544L20.7384 14.5332L24.3801 14.1308L23.9955 10.652ZM20.354 11.0544L8.15114 12.4028L8.53553 15.8816L20.7384 14.5332L20.354 11.0544ZM22.285 12.5965L21.3304 4.18387L17.8527 4.57848L18.8074 12.9911L22.285 12.5965ZM2.94834 17.1465L3.95996 25.1946L7.43263 24.7581L6.42102 16.71L2.94834 17.1465ZM5.90775 26.7136L14.6255 25.6524L14.2026 22.178L5.48481 23.2392L5.90775 26.7136ZM3.95996 25.1946L4.82583 32.0833L8.29851 31.647L7.43263 24.7581L3.95996 25.1946ZM4.82583 32.0833L7.30752 51.8271L10.7802 51.3907L8.29851 31.647L4.82583 32.0833ZM6.77284 33.6023L14.6247 32.6503L14.2034 29.1758L6.35148 30.1278L6.77284 33.6023Z" fill="#8B3B70"></path></svg> 