<?xml version="1.0" encoding="UTF-8"?> <svg xmlns="http://www.w3.org/2000/svg" width="44" height="44" viewBox="0 0 44 44" fill="none"><g clip-path="url(#clip0_331_1184)"><mask id="mask0_331_1184" style="mask-type:luminance" maskUnits="userSpaceOnUse" x="-1" y="0" width="45" height="44"><path d="M43.2086 0H-0.000183105V43.2087H43.2086V0Z" fill="white"></path></mask><g mask="url(#mask0_331_1184)"><path d="M10.0216 22.2757L15.6662 27.9203M16.2676 16.0297L22.0136 21.7757M28.8614 1.80029L32.8001 5.73881M32.8001 5.73881L37.5198 10.4586M32.8001 5.73881L25.8226 12.7162M41.4084 14.3471L37.5198 10.4586M37.5198 10.4586L30.5424 17.436M8.9595 34.249L1.80017 41.4083M8.9595 34.249L5.41345 30.703C4.35883 29.6483 4.35883 27.9385 5.41347 26.8839L22.7019 9.59549M8.9595 34.249L12.5054 37.795C13.56 38.8496 15.2699 38.8496 16.3245 37.795L33.613 20.5066M22.7019 9.59549L18.7913 5.68498M22.7019 9.59549L25.8226 12.7162M33.613 20.5066L37.5235 24.4172M33.613 20.5066L30.5424 17.436M30.5424 17.436L25.8226 12.7162" stroke="#FDE3B8" stroke-width="2.70055" stroke-linecap="round" stroke-linejoin="round"></path></g></g><defs><clipPath id="clip0_331_1184"><rect width="43.2087" height="43.2087" fill="white"></rect></clipPath></defs></svg> 