<svg width="56" height="57" viewBox="0 0 56 57" fill="none" xmlns="http://www.w3.org/2000/svg">
<path d="M27.9982 12.4909C28.0009 11.5658 27.8187 10.6495 27.4621 9.79592C27.1055 8.94231 26.5818 8.16861 25.9218 7.52035C25.2619 6.87208 24.4789 6.36233 23.6191 6.02108C22.7592 5.67983 21.8398 5.51397 20.9149 5.53325C19.99 5.55252 19.0783 5.75656 18.2334 6.13334C17.3885 6.51013 16.6275 7.05206 15.9951 7.72726C15.3627 8.40246 14.8717 9.1973 14.551 10.065C14.2303 10.9328 14.0864 11.8559 14.1277 12.78C12.7681 13.1296 11.506 13.784 10.4368 14.6936C9.36758 15.6031 8.51939 16.7441 7.95644 18.03C7.39348 19.3159 7.13053 20.7131 7.1875 22.1157C7.24446 23.5183 7.61985 24.8895 8.28523 26.1256C7.11531 27.076 6.19534 28.2979 5.60535 29.685C5.01535 31.0721 4.7732 32.5823 4.89996 34.0843C5.02673 35.5863 5.51856 37.0346 6.33268 38.3031C7.1468 39.5717 8.25855 40.6221 9.57121 41.3631C9.40912 42.6172 9.50585 43.8913 9.85544 45.1066C10.205 46.3219 10.8001 47.4526 11.6038 48.4289C12.4075 49.4053 13.4028 50.2064 14.5283 50.783C15.6538 51.3596 16.8855 51.6993 18.1475 51.7812C19.4094 51.8631 20.6747 51.6854 21.8653 51.2591C23.0558 50.8329 24.1464 50.167 25.0695 49.3028C25.9927 48.4385 26.7288 47.3941 27.2326 46.2342C27.7363 45.0743 27.9969 43.8234 27.9982 42.5588V12.4909Z" stroke="#EBA607" stroke-width="4.48576" stroke-linecap="round" stroke-linejoin="round"/>
<path d="M28 12.4909C27.9973 11.5658 28.1796 10.6495 28.5362 9.79592C28.8928 8.94231 29.4164 8.16861 30.0764 7.52035C30.7364 6.87208 31.5193 6.36233 32.3792 6.02108C33.239 5.67983 34.1584 5.51397 35.0833 5.53325C36.0082 5.55252 36.92 5.75656 37.7648 6.13334C38.6097 6.51013 39.3708 7.05206 40.0031 7.72726C40.6355 8.40246 41.1265 9.1973 41.4472 10.065C41.7679 10.9328 41.9119 11.8559 41.8706 12.78C43.2301 13.1296 44.4923 13.784 45.5615 14.6936C46.6307 15.6031 47.4789 16.7441 48.0418 18.03C48.6048 19.3159 48.8677 20.7131 48.8108 22.1157C48.7538 23.5183 48.3784 24.8895 47.713 26.1256C48.8829 27.076 49.8029 28.2979 50.3929 29.685C50.9829 31.0721 51.2251 32.5823 51.0983 34.0843C50.9715 35.5863 50.4797 37.0346 49.6656 38.3031C48.8515 39.5717 47.7397 40.6221 46.427 41.3631C46.5891 42.6172 46.4924 43.8913 46.1428 45.1066C45.7932 46.3219 45.1982 47.4526 44.3945 48.4289C43.5908 49.4053 42.5954 50.2064 41.4699 50.783C40.3445 51.3596 39.1127 51.6993 37.8508 51.7812C36.5889 51.8631 35.3236 51.6854 34.133 51.2591C32.9424 50.8329 31.8519 50.167 30.9287 49.3028C30.0056 48.4385 29.2694 47.3941 28.7657 46.2342C28.262 45.0743 28.0014 43.8234 28 42.5588V12.4909Z" stroke="#EBA607" stroke-width="4.48576" stroke-linecap="round" stroke-linejoin="round"/>
<path d="M34.938 30.9942C32.9962 30.3111 31.3006 29.0676 30.0655 27.4208C28.8304 25.774 28.1114 23.798 27.9993 21.7426C27.8872 23.798 27.1682 25.774 25.9331 27.4208C24.698 29.0676 23.0024 30.3111 21.0605 30.9942" stroke="#EBA607" stroke-width="4.48576" stroke-linecap="round" stroke-linejoin="round"/>
<path d="M40.9492 15.9602C41.509 14.9901 41.8256 13.8989 41.8721 12.7799" stroke="#EBA607" stroke-width="4.48576" stroke-linecap="round" stroke-linejoin="round"/>
<path d="M14.1289 12.7799C14.1746 13.8987 14.4905 14.9899 15.0494 15.9602" stroke="#EBA607" stroke-width="4.48576" stroke-linecap="round" stroke-linejoin="round"/>
<path d="M8.28516 26.1278C8.70828 25.7832 9.16106 25.4767 9.63821 25.2119" stroke="#EBA607" stroke-width="4.48576" stroke-linecap="round" stroke-linejoin="round"/>
<path d="M46.3594 25.2119C46.8365 25.4767 47.2893 25.7832 47.7124 26.1278" stroke="#EBA607" stroke-width="4.48576" stroke-linecap="round" stroke-linejoin="round"/>
<path d="M14.1218 42.5597C12.5278 42.5604 10.9606 42.1493 9.57227 41.3662" stroke="#EBA607" stroke-width="4.48576" stroke-linecap="round" stroke-linejoin="round"/>
<path d="M46.4265 41.3662C45.0381 42.1493 43.4709 42.5604 41.877 42.5597" stroke="#EBA607" stroke-width="4.48576" stroke-linecap="round" stroke-linejoin="round"/>
</svg>
