<svg width="25" height="24" viewBox="0 0 25 24" fill="none" xmlns="http://www.w3.org/2000/svg">
<path fill-rule="evenodd" clip-rule="evenodd" d="M5.78564 0.272705C6.19986 0.272705 6.53564 0.608492 6.53564 1.02271V1.77271H18.0356V1.02271C18.0356 0.608492 18.3714 0.272705 18.7856 0.272705C19.1999 0.272705 19.5356 0.608492 19.5356 1.02271V1.77271H22.2836C23.2493 1.77271 24.0356 2.55321 24.0356 3.52271V22.0208C24.0356 22.9884 23.2512 23.7727 22.2836 23.7727H2.28757C1.32002 23.7727 0.535645 22.9883 0.535645 22.0208V3.52271C0.535645 2.55326 1.3219 1.77271 2.28757 1.77271H5.03564V1.02271C5.03564 0.608492 5.37143 0.272705 5.78564 0.272705ZM5.03564 3.27271H2.28757C2.14655 3.27271 2.03564 3.38545 2.03564 3.52271V9.27271H22.5356V3.52271C22.5356 3.3855 22.4248 3.27271 22.2836 3.27271H19.5356V5.52271C19.5356 5.93692 19.1999 6.27271 18.7856 6.27271C18.3714 6.27271 18.0356 5.93692 18.0356 5.52271V3.27271H6.53564V5.52271C6.53564 5.93692 6.19986 6.27271 5.78564 6.27271C5.37143 6.27271 5.03564 5.93692 5.03564 5.52271V3.27271ZM22.5356 10.7727H2.03564V22.0208C2.03564 22.1599 2.14843 22.2727 2.28757 22.2727H22.2836C22.4229 22.2727 22.5356 22.1598 22.5356 22.0208V10.7727ZM12.2856 13.2727C12.6999 13.2727 13.0356 13.6085 13.0356 14.0227V16.2727H15.2856C15.6999 16.2727 16.0356 16.6085 16.0356 17.0227C16.0356 17.4369 15.6999 17.7727 15.2856 17.7727H13.0356V20.0227C13.0356 20.4369 12.6999 20.7727 12.2856 20.7727C11.8714 20.7727 11.5356 20.4369 11.5356 20.0227V17.7727H9.28564C8.87143 17.7727 8.53564 17.4369 8.53564 17.0227C8.53564 16.6085 8.87143 16.2727 9.28564 16.2727H11.5356V14.0227C11.5356 13.6085 11.8714 13.2727 12.2856 13.2727Z" fill="black"/>
</svg>
