<svg width="24" height="24" viewBox="0 0 24 24" fill="none" xmlns="http://www.w3.org/2000/svg">
<g clip-path="url(#clip0_2171_3853)">
<path d="M4.08217 21.7765L1.95164 18.5807C1.79597 18.3472 1.71289 18.0728 1.71289 17.7921V13.484C1.71289 12.8297 2.24327 12.2994 2.89753 12.2994C3.55179 12.2994 4.08217 12.8297 4.08217 13.484V16.1102C4.08217 16.2003 4.10787 16.2886 4.15625 16.3646L4.36527 16.6931M4.36527 16.6931L5.92493 19.1439M4.36527 16.6931L5.28912 16.1557C5.9398 15.7653 6.7824 15.9548 7.20333 16.5861L8.15954 18.0205C8.419 18.4096 8.55746 18.867 8.55746 19.3347V21.7764M20.4039 21.7765L22.3559 18.5626C22.4911 18.3402 22.5625 18.085 22.5625 17.8246V13.4839C22.5625 12.8297 22.0322 12.2994 21.378 12.2994C20.7238 12.2994 20.1933 12.8297 20.1933 13.4839V16.1102C20.1933 16.2003 20.1677 16.2886 20.1193 16.3646L20.1142 16.3726M20.1142 16.3726L18.3506 19.1439M20.1142 16.3726L19.1969 15.8399C18.5462 15.4495 17.7036 15.6389 17.2827 16.2704L16.3265 17.7046C16.067 18.0939 15.9285 18.5511 15.9285 19.0189V21.7765M13.0853 2.82227C13.6086 2.82227 14.033 3.24657 14.033 3.76998V6.51847C14.033 6.5708 14.0754 6.61323 14.1278 6.61323L16.8763 6.61324C17.3997 6.61324 17.824 7.03754 17.824 7.56095V9.45636C17.824 9.97977 17.3997 10.404 16.8763 10.404H14.1278C14.0754 10.404 14.033 10.4465 14.033 10.4988V13.2471C14.033 13.7705 13.6086 14.1948 13.0853 14.1948H11.1899C10.6665 14.1948 10.2421 13.7705 10.2421 13.2471V10.4988C10.2421 10.4465 10.1997 10.404 10.1474 10.404H7.3992C6.87579 10.404 6.45149 9.97977 6.45149 9.45636V7.56094C6.45149 7.03754 6.87579 6.61323 7.3992 6.61323H10.1474C10.1997 6.61323 10.2421 6.5708 10.2421 6.51847V3.76998C10.2421 3.24657 10.6665 2.82227 11.1899 2.82227H13.0853Z" stroke="#293F76" stroke-width="0.995096" stroke-linecap="round"/>
</g>
<defs>
<clipPath id="clip0_2171_3853">
<rect width="22.745" height="22.745" fill="white" transform="translate(0.765625 0.926758)"/>
</clipPath>
</defs>
</svg>
