<svg width="55" height="54" viewBox="0 0 55 54" fill="none" xmlns="http://www.w3.org/2000/svg">
<g clip-path="url(#clip0_2171_3691)">
<path d="M8.64258 49.5004L3.5844 41.9131C3.21481 41.3587 3.01758 40.7074 3.01758 40.0409V29.8129C3.01758 28.2595 4.27677 27.0004 5.83008 27.0004C7.38339 27.0004 8.64258 28.2595 8.64258 29.8129V36.0478C8.64258 36.2618 8.7036 36.4713 8.81846 36.6517L9.3147 37.4316M9.3147 37.4316L13.0176 43.2503M9.3147 37.4316L11.5081 36.1558C13.0529 35.2291 15.0533 35.6788 16.0527 37.1778L18.3228 40.5832C18.9388 41.507 19.2676 42.5929 19.2676 43.7032V49.5001M47.3927 49.5004L52.0271 41.8702C52.3479 41.3421 52.5176 40.7362 52.5176 40.1181V29.8126C52.5176 28.2595 51.2585 27.0004 49.7053 27.0004C48.1521 27.0004 46.8928 28.2595 46.8928 29.8126V36.0478C46.8928 36.2618 46.8318 36.4713 46.7171 36.6517L46.7049 36.6709M46.7049 36.6709L42.5179 43.2503M46.7049 36.6709L44.5271 35.4061C42.9823 34.4791 40.9818 34.9289 39.9826 36.4281L37.7124 39.8332C37.0963 40.7573 36.7676 41.8429 36.7676 42.9535V49.5004" stroke="white" stroke-width="3" stroke-linecap="round"/>
<path d="M38.2676 20.1111C40.5026 17.84 42.7676 15.1178 42.7676 11.5556C42.7676 9.28648 41.8984 7.11034 40.3512 5.50586C38.804 3.90139 36.7056 3 34.5176 3C31.8776 3 30.0176 3.77778 27.7676 6.11111C25.5176 3.77778 23.6576 3 21.0176 3C18.8295 3 16.7311 3.90139 15.1839 5.50586C13.6368 7.11034 12.7676 9.28648 12.7676 11.5556C12.7676 15.1333 15.0176 17.8556 17.2676 20.1111L27.7676 31L38.2676 20.1111Z" stroke="white" stroke-width="3" stroke-linecap="round" stroke-linejoin="round"/>
</g>
<defs>
<clipPath id="clip0_2171_3691">
<rect width="54" height="54" fill="white" transform="translate(0.767578)"/>
</clipPath>
</defs>
</svg>
