<svg width="24" height="24" viewBox="0 0 24 24" fill="none" xmlns="http://www.w3.org/2000/svg">
<g clip-path="url(#clip0_2171_3869)">
<path d="M6.90533 20.3546C6.64363 20.3546 6.43147 20.1424 6.43147 19.8808V18.9331C6.43147 17.8862 7.28008 17.0376 8.32689 17.0376C9.3737 17.0376 10.2223 17.8862 10.2223 18.9331V19.8808C10.2223 20.1424 10.0102 20.3546 9.74846 20.3546M8.32689 16.5069V14.1945M9.2746 13.7206L11.511 15.5843C11.8625 15.8773 12.373 15.8773 12.7245 15.5843L14.9609 13.7206M15.9086 16.5069V14.1945M16.382 6.13896C16.382 8.49429 14.4726 10.4037 12.1173 10.4037C9.76194 10.4037 7.85257 8.49429 7.85257 6.13896C7.85257 3.78364 9.76194 1.87427 12.1173 1.87427C14.4726 1.87427 16.382 3.78364 16.382 6.13896ZM2.64063 22.6287C2.69172 17.4385 6.91498 13.2468 12.1173 13.2468C17.3195 13.2468 21.5428 17.4385 21.5939 22.6287C21.5945 22.6811 21.5519 22.7239 21.4996 22.7239H2.73494C2.68259 22.7239 2.64012 22.6811 2.64063 22.6287ZM17.804 18.9331C17.804 19.9799 16.9554 20.8285 15.9086 20.8285C14.8617 20.8285 14.0132 19.9799 14.0132 18.9331C14.0132 17.8862 14.8617 17.0376 15.9086 17.0376C16.9554 17.0376 17.804 17.8862 17.804 18.9331Z" stroke="#293F76" stroke-linecap="round"/>
</g>
<defs>
<clipPath id="clip0_2171_3869">
<rect width="22.745" height="22.745" fill="white" transform="translate(0.746094 0.926758)"/>
</clipPath>
</defs>
</svg>
