<svg width="20" height="21" viewBox="0 0 20 21" fill="none" xmlns="http://www.w3.org/2000/svg">
<path d="M4.71558 7.27893H0.745117V20.2436H4.71558V7.27893Z" fill="black"/>
<path d="M15.4558 6.9978C15.3094 6.97906 15.1539 6.9697 14.9983 6.96033C12.7752 6.86665 11.5219 8.21558 11.0828 8.79637C10.9638 8.95562 10.9089 9.0493 10.9089 9.0493V7.3163H7.1123V20.281H10.9089H11.0828C11.0828 18.9602 11.0828 17.6487 11.0828 16.3279C11.0828 15.616 11.0828 14.904 11.0828 14.1921C11.0828 13.3115 11.0187 12.3748 11.4487 11.5692C11.8147 10.8947 12.4733 10.5575 13.2144 10.5575C15.41 10.5575 15.4558 12.5902 15.4558 12.7776C15.4558 12.787 15.4558 12.7963 15.4558 12.7963V20.3372H19.4262V11.8783C19.4262 8.98372 17.9899 7.27883 15.4558 6.9978Z" fill="black"/>
<path d="M2.73023 5.60211C4.00348 5.60211 5.03567 4.54522 5.03567 3.24149C5.03567 1.93775 4.00348 0.880859 2.73023 0.880859C1.45698 0.880859 0.424805 1.93775 0.424805 3.24149C0.424805 4.54522 1.45698 5.60211 2.73023 5.60211Z" fill="black"/>
</svg>
