<svg width="55" height="54" viewBox="0 0 55 54" fill="none" xmlns="http://www.w3.org/2000/svg">
<g clip-path="url(#clip0_2171_3711)">
<path d="M45.7676 51.75V13.5C45.7676 12.2574 44.7602 11.25 43.5176 11.25H39.0176M9.76758 51.75V13.5C9.76758 12.2574 10.7749 11.25 12.0176 11.25H16.5176M32.2676 51.75V40.5C32.2676 39.2574 31.2602 38.25 30.0176 38.25H25.5176C24.2749 38.25 23.2676 39.2574 23.2676 40.5V51.75M3.01758 51.75H52.5176M36.7676 29.2501V29.3215M18.7676 29.2501V29.3215M27.7676 29.2501V29.3215M31.3678 11.2496L27.7687 11.2497M27.7687 11.2497L24.1675 11.2498M27.7687 11.2497V14.8498M27.7687 11.2497V7.64978M16.5176 4.5V18C16.5176 19.2426 17.5249 20.25 18.7676 20.25H36.7676C38.0102 20.25 39.0176 19.2426 39.0176 18V4.5C39.0176 3.25736 38.0102 2.25 36.7676 2.25H18.7676C17.5249 2.25 16.5176 3.25736 16.5176 4.5Z" stroke="white" stroke-width="3" stroke-linecap="round"/>
</g>
<defs>
<clipPath id="clip0_2171_3711">
<rect width="54" height="54" fill="white" transform="translate(0.767578)"/>
</clipPath>
</defs>
</svg>
