<svg width="56" height="57" viewBox="0 0 56 57" fill="none" xmlns="http://www.w3.org/2000/svg">
<path d="M16.4336 49.4985H39.5628" stroke="#293F76" stroke-width="4.49797" stroke-linecap="round" stroke-linejoin="round"/>
<path d="M27.9998 49.4985C33.5207 49.4985 38.8154 47.3054 42.7192 43.4016C46.623 39.4978 48.8161 34.2031 48.8161 28.6823H7.18359C7.18359 34.2031 9.37673 39.4978 13.2805 43.4016C17.1843 47.3054 22.479 49.4985 27.9998 49.4985Z" stroke="#293F76" stroke-width="4.49797" stroke-linecap="round" stroke-linejoin="round"/>
<path d="M26.5656 28.6833C25.1649 28.6964 23.8109 28.1793 22.7754 27.2359C21.7399 26.2924 21.0994 24.9924 20.9823 23.5964C20.8653 22.2005 21.2803 20.8119 22.1442 19.7092C23.0082 18.6064 24.2571 17.8711 25.6405 17.6507C25.419 16.6706 25.4677 15.6487 25.7814 14.694C26.0952 13.7394 26.6622 12.8878 27.4219 12.2302C28.1817 11.5725 29.1057 11.1334 30.0954 10.9597C31.0852 10.786 32.1035 10.8843 33.0418 11.2439C33.4527 10.5972 33.993 10.0424 34.6287 9.61471C35.2644 9.18699 35.9819 8.89551 36.7358 8.75863C37.4897 8.62175 38.2638 8.64244 39.0093 8.81939C39.7548 8.99634 40.4556 9.32572 41.0676 9.7868C42.1352 8.94772 43.4733 8.52904 44.8287 8.60997C46.1841 8.6909 47.4629 9.26582 48.423 10.226C49.3831 11.1861 49.958 12.4648 50.039 13.8203C50.1199 15.1757 49.7012 16.5138 48.8622 17.5813C49.3844 18.275 49.7366 19.0816 49.8905 19.9362C50.0444 20.7908 49.9957 21.6695 49.7482 22.5018C49.5008 23.3342 49.0615 24.0968 48.4658 24.7285C47.87 25.3603 47.1344 25.8434 46.3179 26.1391C46.529 26.9716 46.5527 27.8406 46.3873 28.6833" stroke="#293F76" stroke-width="4.49797" stroke-linecap="round" stroke-linejoin="round"/>
<path d="M30.3125 28.6822L39.5642 19.4305" stroke="#293F76" stroke-width="4.49797" stroke-linecap="round" stroke-linejoin="round"/>
<path d="M25.4553 17.697C24.1867 16.3446 22.54 15.4057 20.73 15.0027C18.92 14.5998 17.0305 14.7515 15.308 15.438C13.5854 16.1245 12.1096 17.3141 11.0729 18.8516C10.0363 20.3891 9.48682 22.2032 9.49621 24.0575C9.49621 25.746 9.9588 27.3187 10.7452 28.6834" stroke="#293F76" stroke-width="4.49797" stroke-linecap="round" stroke-linejoin="round"/>
</svg>
