<svg width="21" height="23" viewBox="0 0 21 23" fill="none" xmlns="http://www.w3.org/2000/svg">
<path fill-rule="evenodd" clip-rule="evenodd" d="M2.16724 1.6687V20.4187C2.16724 21.0334 2.8656 21.387 3.3607 21.0239C3.36072 21.0239 3.36074 21.0239 3.36076 21.0239L9.08665 16.8239L9.08666 16.8239C9.87857 16.2431 10.9559 16.2431 11.7478 16.8239L11.7478 16.8239L17.4738 21.0239C17.4738 21.0239 17.4738 21.0239 17.4738 21.0239C17.9688 21.3869 18.6672 21.0335 18.6672 20.4187V1.6687H2.16724ZM0.667236 1.0187C0.667236 0.549258 1.04779 0.168701 1.51724 0.168701H19.3172C19.7865 0.168701 20.1672 0.549106 20.1672 1.0187V20.4187C20.1672 22.2613 18.0731 23.3237 16.5867 22.2335L16.5867 22.2335L10.8607 18.0335C10.5968 17.8399 10.2377 17.8399 9.97381 18.0335L4.24788 22.2335L4.24782 22.2335C2.76134 23.3236 0.667236 22.2614 0.667236 20.4187V1.0187Z" fill="black"/>
</svg>
