<svg width="78" height="74" viewBox="0 0 78 74" fill="none" xmlns="http://www.w3.org/2000/svg">
<path d="M47.75 17.7739C49.6125 15.8813 51.5 13.6128 51.5 10.6443C51.5 8.75338 50.7757 6.93993 49.4864 5.60287C48.197 4.2658 46.4484 3.51465 44.625 3.51465C42.425 3.51465 40.875 4.1628 39 6.10724C37.125 4.1628 35.575 3.51465 33.375 3.51465C31.5516 3.51465 29.803 4.2658 28.5136 5.60287C27.2243 6.93993 26.5 8.75338 26.5 10.6443C26.5 13.6258 28.375 15.8943 30.25 17.7739L39 26.848L47.75 17.7739Z" stroke="white" stroke-width="3" stroke-linecap="round" stroke-linejoin="round"/>
<path d="M53.0834 70.4854L24.912 70.4853M53.0834 70.4854L73.0099 70.4853C73.0805 70.4853 73.1378 70.4275 73.1371 70.3569C73.0682 63.3541 67.3701 57.6986 60.351 57.6986C56.3835 57.6986 52.838 59.5056 50.4927 62.3415M53.0834 70.4854V70.3438C53.054 67.3637 52.0993 64.605 50.4927 62.3415M24.912 70.4853H4.98857C4.91795 70.4853 4.86064 70.4275 4.86133 70.3569C4.93026 63.3541 10.6284 57.6986 17.6475 57.6986C21.614 57.6986 25.1588 59.5047 27.5041 62.3394M24.912 70.4853V70.3438C24.9413 67.3628 25.8967 64.6034 27.5041 62.3394M50.4927 62.3415C47.9404 58.7455 43.7431 56.399 38.9977 56.399C34.2532 56.399 30.0565 58.7446 27.5041 62.3394M45.3306 43.1868C45.3306 46.6876 42.4925 49.5256 38.9917 49.5256C35.4908 49.5256 32.6528 46.6876 32.6528 43.1868C32.6528 39.6859 35.4908 36.8479 38.9917 36.8479C42.4925 36.8479 45.3306 39.6859 45.3306 43.1868ZM23.3961 45.7054C23.3961 48.8832 20.8199 51.4594 17.642 51.4594C14.4642 51.4594 11.888 48.8832 11.888 45.7054C11.888 42.5275 14.4642 39.9513 17.642 39.9513C20.8199 39.9513 23.3961 42.5275 23.3961 45.7054ZM66.0996 45.7054C66.0996 48.8832 63.5235 51.4594 60.3456 51.4594C57.1677 51.4594 54.5915 48.8832 54.5915 45.7054C54.5915 42.5275 57.1677 39.9513 60.3456 39.9513C63.5235 39.9513 66.0996 42.5275 66.0996 45.7054Z" stroke="white" stroke-width="3"/>
</svg>
