<svg width="208" height="68" viewBox="0 0 208 68" fill="none" xmlns="http://www.w3.org/2000/svg">
<path fill-rule="evenodd" clip-rule="evenodd" d="M29.1442 9.14104C23.6974 9.14104 19.2819 13.5565 19.2819 19.0033C19.2819 24.4501 23.6974 28.8656 29.1442 28.8656C34.591 28.8656 39.0065 24.4501 39.0065 19.0033C39.0065 13.5565 34.591 9.14104 29.1442 9.14104ZM16.2441 19.0033C16.2441 11.8788 22.0197 6.10327 29.1442 6.10327C36.2687 6.10327 42.0443 11.8788 42.0443 19.0033C42.0443 26.1278 36.2687 31.9034 29.1442 31.9034C22.0197 31.9034 16.2441 26.1278 16.2441 19.0033Z" fill="white"/>
<path fill-rule="evenodd" clip-rule="evenodd" d="M71.125 3.96453C63.9385 3.96453 58.112 9.79102 58.112 16.9776C58.112 24.1641 63.9385 29.9906 71.125 29.9906C78.3116 29.9906 84.1381 24.1641 84.1381 16.9776C84.1381 9.79102 78.3116 3.96453 71.125 3.96453ZM55.0742 16.9776C55.0742 8.11331 62.2608 0.926758 71.125 0.926758C79.9893 0.926758 87.1758 8.11331 87.1758 16.9776C87.1758 25.8418 79.9893 33.0284 71.125 33.0284C62.2608 33.0284 55.0742 25.8418 55.0742 16.9776Z" fill="white"/>
<path fill-rule="evenodd" clip-rule="evenodd" d="M71.1188 44.6777C65.6729 44.6777 61.2565 49.0941 61.2565 54.54C61.2565 59.9859 65.6729 64.4023 71.1188 64.4023C76.5647 64.4023 80.9811 59.9859 80.9811 54.54C80.9811 49.0941 76.5647 44.6777 71.1188 44.6777ZM58.2188 54.54C58.2188 47.4164 63.9952 41.6399 71.1188 41.6399C78.2424 41.6399 84.0189 47.4164 84.0189 54.54C84.0189 61.6636 78.2424 67.44 71.1188 67.44C63.9952 67.44 58.2188 61.6636 58.2188 54.54Z" fill="white"/>
<path fill-rule="evenodd" clip-rule="evenodd" d="M19.2811 25.3337C10.3101 25.3337 3.03777 32.606 3.03777 41.577C3.03777 50.5479 10.3101 57.8202 19.2811 57.8202C28.252 57.8202 35.5243 50.5479 35.5243 41.577C35.5243 32.606 28.252 25.3337 19.2811 25.3337ZM0 41.577C0 30.9283 8.63243 22.2959 19.2811 22.2959C29.9297 22.2959 38.5621 30.9283 38.5621 41.577C38.5621 52.2256 29.9297 60.858 19.2811 60.858C8.63242 60.858 0 52.2256 0 41.577Z" fill="white"/>
<path fill-rule="evenodd" clip-rule="evenodd" d="M50.388 17.8024C40.3333 17.8024 32.1823 25.9534 32.1823 36.0081C32.1823 46.0629 40.3333 54.2138 50.388 54.2138C60.4427 54.2138 68.5937 46.0629 68.5937 36.0081C68.5937 25.9534 60.4427 17.8024 50.388 17.8024ZM29.1445 36.0081C29.1445 24.2757 38.6556 14.7646 50.388 14.7646C62.1205 14.7646 71.6315 24.2757 71.6315 36.0081C71.6315 47.7406 62.1205 57.2516 50.388 57.2516C38.6556 57.2516 29.1445 47.7406 29.1445 36.0081Z" fill="white"/>
<path d="M58.3862 19.7812L55.1602 18.4715C55.1602 18.4715 55.0681 17.7476 55.089 16.8689C55.1058 16.1618 55.1936 15.2664 55.1936 15.2664L58.1059 16.1451C58.1059 16.1451 58.0724 16.9401 58.1059 17.5426C58.1645 18.5761 58.382 19.7854 58.382 19.7854" fill="white"/>
<path d="M64.7851 46.9828L64.5215 43.4639C64.5215 43.4639 65.9943 42.5098 67.7517 42.0621C69.9819 41.4931 71.2707 41.6479 71.2707 41.6479L70.2707 44.7191C70.2707 44.7191 68.8438 44.7652 67.4672 45.2715C66.3249 45.6899 64.7893 46.9828 64.7893 46.9828" fill="white"/>
<path d="M38.3401 22.6018C38.3401 22.6018 38.9427 21.4219 39.0138 19.8653C39.0682 18.6812 38.9719 17.9657 38.9719 17.9657C38.9719 17.9657 39.5075 17.5724 40.2984 17.1874C40.9344 16.8778 41.788 16.5347 41.788 16.5347C41.788 16.5347 41.9762 17.3339 41.993 18.3548C42.0097 19.4009 41.993 20.0494 41.993 20.0494C41.993 20.0494 40.859 20.6018 40.336 20.9072C39.4448 21.4344 38.3359 22.6018 38.3359 22.6018" fill="white"/>
<path d="M35.1481 45.1624C35.1481 45.1624 35.3866 46.1498 36.3155 47.4009C36.805 48.0579 37.2862 48.4512 37.2862 48.4512C37.2862 48.4512 36.918 49.4387 36.6209 50.037C36.2527 50.7734 35.8176 51.4848 35.8176 51.4848C35.8176 51.4848 35.0225 50.832 34.7129 50.4973C34.1606 49.8989 33.6543 49.2085 33.6543 49.2085C33.6543 49.2085 34.0434 48.5181 34.4577 47.4846C34.8426 46.5222 35.1481 45.1624 35.1481 45.1624Z" fill="white"/>
<path fill-rule="evenodd" clip-rule="evenodd" d="M37.3218 30.3001C37.6246 30.0098 38.1053 30.02 38.3956 30.3228C41.0687 33.1114 45.5813 32.7646 48.0346 30.3113C48.3312 30.0147 48.812 30.0147 49.1086 30.3113C49.4052 30.6079 49.4052 31.0887 49.1086 31.3853C46.1307 34.3632 40.6345 34.8533 37.2991 31.3739C37.0089 31.0711 37.019 30.5903 37.3218 30.3001ZM51.8412 30.3001C52.1439 30.0098 52.6247 30.02 52.9149 30.3228C55.5881 33.1114 60.1007 32.7646 62.554 30.3113C62.8505 30.0147 63.3314 30.0147 63.628 30.3113C63.9245 30.6079 63.9245 31.0887 63.628 31.3853C60.6501 34.3632 55.1539 34.8533 51.8185 31.3739C51.5282 31.0711 51.5384 30.5903 51.8412 30.3001ZM40.9956 45.0789C41.2984 44.7886 41.7791 44.7988 42.0693 45.1016C46.6798 49.9111 54.4268 49.2925 58.6291 45.0901C58.9257 44.7935 59.4066 44.7935 59.7031 45.0901C59.9997 45.3867 59.9997 45.8675 59.7031 46.1641C54.9763 50.891 46.2457 51.6532 40.9729 46.1527C40.6826 45.8499 40.6928 45.3691 40.9956 45.0789Z" fill="white"/>
<path d="M98.502 18.104H102.218C105.975 18.104 108.226 20.0622 108.226 23.3009C108.226 26.5395 105.954 28.481 102.218 28.481H101.268V31.5438H98.502V18.104ZM102.138 26.0499C104.393 26.0499 105.381 25.1419 105.381 23.3009C105.381 21.4598 104.352 20.5351 102.138 20.5351H101.268V26.0499H102.138Z" fill="white"/>
<path d="M110.498 18.104H119.394V20.5351H113.264V24.8072H118.662V27.1755H113.264V29.1128H119.67V31.5438H110.498V18.104Z" fill="white"/>
<path d="M122.357 18.104H126.487C130.617 18.104 133.563 20.8531 133.563 24.8239C133.563 28.7948 130.638 31.5438 126.487 31.5438H122.357V18.104ZM126.349 29.1128C129.333 29.1128 130.697 27.3345 130.697 24.8239C130.697 22.3134 129.333 20.5351 126.349 20.5351H125.123V29.1128H126.349Z" fill="white"/>
<path d="M138.842 18.104H136.076V31.5438H138.842V18.104Z" fill="white"/>
<path d="M146.727 17.9866H146.965L153.112 31.5436H150.208L149.576 30.0205H144.12L143.488 31.5436H140.818L146.727 17.9866ZM148.584 27.7108L147.618 25.3802C147.22 24.4303 146.806 22.97 146.806 22.97C146.806 22.97 146.413 24.4303 146.015 25.3802L145.049 27.7108H148.584Z" fill="white"/>
<path d="M156.237 20.5351H152.4V18.104H162.836V20.5351H159.003V31.5438H156.237V20.5351Z" fill="white"/>
<path d="M174.911 31.5438H171.71L169.497 28.1462C169.241 28.1881 168.965 28.2048 168.706 28.2048H167.756V31.5438H164.99V18.104H168.706C172.459 18.104 174.714 19.9032 174.714 23.1837C174.714 25.28 173.786 26.6022 172.124 27.3554L174.911 31.5438ZM168.626 25.7947C170.877 25.7947 171.869 25.0833 171.869 23.1879C171.869 21.2924 170.844 20.5392 168.626 20.5392H167.756V25.7947H168.626Z" fill="white"/>
<path d="M180.07 18.104H177.305V31.5438H180.07V18.104Z" fill="white"/>
<path d="M182.58 24.8235C182.58 20.8526 185.643 17.9446 189.497 17.9446C191.928 17.9446 193.668 18.8149 194.873 20.6936L192.76 22.1958C192.129 21.1665 191.041 20.4384 189.501 20.4384C187.07 20.4384 185.43 22.3171 185.43 24.8277C185.43 27.3382 187.07 29.2546 189.501 29.2546C191.241 29.2546 192.208 28.4261 192.961 27.2797L195.116 28.7609C193.949 30.581 192.091 31.7275 189.505 31.7275C185.651 31.7275 182.588 28.8027 182.588 24.8277" fill="white"/>
<path d="M201.615 17.9866H201.854L208 31.5436H205.097L204.465 30.0205H199.008L198.377 31.5436H195.707L201.615 17.9866ZM203.473 27.7108L202.502 25.3802C202.105 24.4303 201.691 22.97 201.691 22.97C201.691 22.97 201.297 24.4303 200.9 25.3802L199.933 27.7108H203.473Z" fill="white"/>
<path d="M98.1426 51.4607H99.3769V43.7365H98.1426V42.657H102.03V43.7365H100.779V47.0295H105.913V43.7365H104.666V42.657H108.549V43.7365H107.314V51.4607H108.549V52.5569H104.666V51.4607H105.913V48.1802H100.779V51.4607H102.03V52.5569H98.1426V51.4607Z" fill="white"/>
<path d="M114.82 45.2932C116.841 45.2932 117.891 46.7786 117.891 48.6155C117.891 48.7954 117.849 49.1344 117.849 49.1344H112.661C112.744 50.7035 113.853 51.5445 115.113 51.5445C116.372 51.5445 117.23 50.7453 117.23 50.7453L117.791 51.7412C117.791 51.7412 116.724 52.7245 115.029 52.7245C112.799 52.7245 111.271 51.1135 111.271 49.0088C111.271 46.7493 112.799 45.2932 114.82 45.2932ZM116.489 48.2682C116.447 47.0213 115.69 46.3769 114.795 46.3769C113.757 46.3769 112.916 47.0799 112.719 48.2682H116.489Z" fill="white"/>
<path d="M124.709 48.1932H125.157V47.9254C125.157 46.804 124.512 46.4107 123.642 46.4107C122.52 46.4107 121.608 47.0969 121.608 47.0969L121.06 46.1303C121.06 46.1303 122.098 45.2893 123.751 45.2893C125.558 45.2893 126.512 46.2308 126.512 48.0258V51.1933C126.512 51.4025 126.625 51.5029 126.822 51.5029H127.537V52.5532H126.123C125.491 52.5532 125.24 52.2435 125.24 51.7833V51.687C125.24 51.4067 125.295 51.2226 125.295 51.2226H125.265C125.265 51.2226 124.646 52.7247 122.922 52.7247C121.742 52.7247 120.566 52.0385 120.566 50.5782C120.566 48.348 123.525 48.1932 124.705 48.1932M123.219 51.6703C124.424 51.6703 125.169 50.4359 125.169 49.369V49.0761H124.818C124.173 49.0761 121.943 49.1053 121.943 50.4652C121.943 51.0971 122.407 51.6703 123.219 51.6703Z" fill="white"/>
<path d="M130.629 43.7072H129.449V42.657H131.989V50.4523C131.989 51.0548 132.127 51.4607 132.746 51.4607C132.972 51.4607 133.123 51.4481 133.123 51.4481L133.106 52.5695C133.106 52.5695 132.826 52.5988 132.504 52.5988C131.495 52.5988 130.625 52.1929 130.625 50.5359V43.7072H130.629Z" fill="white"/>
<path d="M136.55 46.5109H135.357V45.4606H136.579V43.5107H137.91V45.4606H139.609V46.5109H137.91V49.8332C137.91 51.2767 138.893 51.4608 139.425 51.4608C139.621 51.4608 139.747 51.4483 139.747 51.4483V52.5822C139.747 52.5822 139.55 52.6115 139.257 52.6115C138.362 52.6115 136.55 52.3312 136.55 49.9629V46.515V46.5109Z" fill="white"/>
<path d="M142.227 51.5025H143.349V43.7072H142.156V42.657H144.696V46.3308C144.696 46.6655 144.654 46.9207 144.654 46.9207H144.684C144.993 46.2345 145.918 45.2931 147.332 45.2931C149.002 45.2931 149.772 46.2052 149.772 48.0128V51.5067H150.88V52.5569H148.412V48.3225C148.412 47.3266 148.203 46.54 147.064 46.54C145.675 46.54 144.696 47.7199 144.696 49.2346V51.5067H145.817V52.5569H142.227V51.5067V51.5025Z" fill="white"/>
<path d="M163.872 42.4858C165.609 42.4858 167.671 43.1888 167.671 44.4357V45.6575H166.383V44.9294C166.383 44.101 165.077 43.6951 163.914 43.6951C161.6 43.6951 160.14 45.2642 160.14 47.5362C160.14 49.8083 161.625 51.5029 163.956 51.5029C164.839 51.5029 166.604 51.2351 166.604 50.2686V48.9631H164.671V47.871H167.897V50.6493C167.897 52.1766 165.345 52.7247 163.86 52.7247C160.818 52.7247 158.684 50.5071 158.684 47.5781C158.684 44.6491 160.788 42.4858 163.872 42.4858Z" fill="white"/>
<path d="M171.065 51.5022H172.132V46.82C172.132 46.6108 172.019 46.5104 171.822 46.5104H170.939V45.4601H172.538C173.153 45.4601 173.45 45.7112 173.45 46.2886V46.7363C173.45 47.0167 173.421 47.2259 173.421 47.2259H173.45C173.772 46.1882 174.601 45.3765 175.693 45.3765C175.873 45.3765 176.044 45.4058 176.044 45.4058V46.7531C176.044 46.7531 175.877 46.7112 175.651 46.7112C174.136 46.7112 173.492 48.2385 173.492 49.6277V51.5064H174.546V52.5567H171.069V51.5064L171.065 51.5022Z" fill="white"/>
<path d="M182.247 45.2932C184.364 45.2932 186.075 46.8498 186.075 48.9963C186.075 51.1428 184.364 52.7286 182.247 52.7286C180.129 52.7286 178.418 51.1595 178.418 48.9963C178.418 46.833 180.129 45.2932 182.247 45.2932ZM182.247 51.5487C183.577 51.5487 184.686 50.4817 184.686 48.9963C184.686 47.5109 183.577 46.4732 182.247 46.4732C180.916 46.4732 179.807 47.5234 179.807 48.9963C179.807 50.4691 180.899 51.5487 182.247 51.5487Z" fill="white"/>
<path d="M189.735 46.5107H188.543V45.4604H191.095V49.7242C191.095 50.7075 191.292 51.49 192.426 51.49C193.844 51.49 194.727 50.1301 194.727 48.7284V46.5107H193.535V45.4604H196.087V51.2096C196.087 51.4063 196.2 51.5193 196.397 51.5193H197.142V52.557H195.669C195.054 52.557 194.769 52.2766 194.769 51.7703V51.4607C194.769 51.2222 194.798 51.0381 194.798 51.0381H194.769C194.627 51.4147 193.828 52.7201 192.062 52.7201C190.535 52.7201 189.735 51.8791 189.735 50.0004V46.5065V46.5107Z" fill="white"/>
<path d="M200.737 54.3103V46.8205C200.737 46.6113 200.624 46.5108 200.427 46.5108H199.557V45.4606H201.13C201.762 45.4606 202 45.7409 202 46.1635V46.2179C202 46.4439 201.971 46.6238 201.971 46.6238H202C202 46.6238 202.59 45.2932 204.385 45.2932C206.293 45.2932 207.498 46.8079 207.498 49.0088C207.498 51.2098 206.138 52.7245 204.289 52.7245C202.732 52.7245 202.088 51.5194 202.088 51.5194H202.059C202.059 51.5194 202.101 51.7704 202.101 52.1345V54.3061H203.222V55.3564H199.632V54.3061H200.741L200.737 54.3103ZM204.076 51.5487C205.197 51.5487 206.122 50.6365 206.122 49.0256C206.122 47.4146 205.293 46.4857 204.101 46.4857C203.051 46.4857 202.067 47.2305 202.067 49.0381C202.067 50.3018 202.753 51.5487 204.071 51.5487" fill="white"/>
<path fill-rule="evenodd" clip-rule="evenodd" d="M97.7051 36.9116C97.7051 36.7718 97.8184 36.6584 97.9582 36.6584H207.464C207.604 36.6584 207.718 36.7718 207.718 36.9116C207.718 37.0514 207.604 37.1647 207.464 37.1647H97.9582C97.8184 37.1647 97.7051 37.0514 97.7051 36.9116Z" fill="white"/>
</svg>
