<svg width="554" height="545" viewBox="0 0 554 545" fill="none" xmlns="http://www.w3.org/2000/svg">
<circle cx="276.334" cy="72.3949" r="72.3949" fill="#D9DEEF"/>
<text fill="#211E1C" xml:space="preserve" style="white-space: pre" font-family="Proxima Nova" font-size="17.3401" letter-spacing="0em"><tspan x="253.992" y="40.883">Payor&#10;</tspan><tspan x="231.436" y="61.6911">Contracting&#10;</tspan><tspan x="240.809" y="82.4992">and Care&#x2028;</tspan><tspan x="226.399" y="103.307">Coordination</tspan></text>
<circle cx="276.334" cy="472.018" r="72.3949" fill="#D9DEEF"/>
<text fill="#211E1C" xml:space="preserve" style="white-space: pre" font-family="Proxima Nova" font-size="17.3401" letter-spacing="0em"><tspan x="243.17" y="457.102">Potential&#10;</tspan><tspan x="252.339" y="477.91">Bonus&#10;</tspan><tspan x="229.479" y="498.718">Participation</tspan></text>
<circle cx="481.606" cy="274.018" r="72.3949" fill="#D9DEEF"/>
<text fill="#211E1C" xml:space="preserve" style="white-space: pre" font-family="Proxima Nova" font-size="17.3401" letter-spacing="0em"><tspan x="461.819" y="259.102">EMR/&#x2028;</tspan><tspan x="448.136" y="279.91">Revenue&#x2028;</tspan><tspan x="460.371" y="300.718">Cycle</tspan></text>
<circle cx="419.334" cy="134.018" r="72.3949" fill="#D9DEEF"/>
<text fill="#211E1C" xml:space="preserve" style="white-space: pre" font-family="Proxima Nova" font-size="17.3401" letter-spacing="0em"><tspan x="381.31" y="127.877">Recruiting&#x2028;</tspan><tspan x="382.868" y="148.685">&#38; Staffing</tspan></text>
<circle cx="132.334" cy="131.018" r="72.3949" fill="#D9DEEF"/>
<text fill="#211E1C" xml:space="preserve" style="white-space: pre" font-family="Proxima Nova" font-size="17.3401" letter-spacing="0em"><tspan x="106.875" y="138.039">Payroll</tspan></text>
<circle cx="421.334" cy="417.018" r="72.3949" fill="#D9DEEF"/>
<text fill="#211E1C" xml:space="preserve" style="white-space: pre" font-family="Proxima Nova" font-size="17.3401" letter-spacing="0em"><tspan x="389.55" y="422.943">Liquidity</tspan></text>
<circle cx="129.334" cy="419.018" r="72.3949" fill="#D9DEEF"/>
<text fill="#211E1C" xml:space="preserve" style="white-space: pre" font-family="Proxima Nova" font-size="17.3401" letter-spacing="0em"><tspan x="95.738" y="416.168">Financial&#x2028;</tspan><tspan x="99.6497" y="436.976">Stability</tspan></text>
<circle cx="73.3343" cy="274.018" r="72.3949" fill="#D9DEEF"/>
<text fill="#211E1C" xml:space="preserve" style="white-space: pre" font-family="Proxima Nova" font-size="17.3401" letter-spacing="0em"><tspan x="35.3268" y="279.943">Marketing</tspan></text>
<circle cx="275.971" cy="273.654" r="144.5" stroke="#EBA607" stroke-width="3"/>
<circle cx="275.471" cy="275.154" r="133.5" fill="#8B3B70"/>
<path d="M221.13 344.494C220.305 344.566 219.577 343.956 219.505 343.131L218.328 329.682C218.256 328.857 218.867 328.129 219.692 328.057C220.517 327.985 221.245 328.595 221.317 329.421L222.363 341.375L234.317 340.329C235.142 340.257 235.87 340.867 235.942 341.693C236.014 342.518 235.404 343.245 234.579 343.318L221.13 344.494ZM248.503 312.556L222.148 343.964L219.85 342.036L246.204 310.628L248.503 312.556Z" fill="#FBBD4F"/>
<path d="M331.224 344.494C332.049 344.566 332.776 343.956 332.849 343.131L334.025 329.682C334.097 328.857 333.487 328.129 332.662 328.057C331.836 327.985 331.109 328.595 331.037 329.421L329.991 341.375L318.036 340.329C317.211 340.257 316.484 340.867 316.411 341.693C316.339 342.518 316.95 343.245 317.775 343.318L331.224 344.494ZM303.851 312.556L330.205 343.964L332.503 342.036L306.149 310.628L303.851 312.556Z" fill="#FBBD4F"/>
<path d="M274.939 353.653C275.525 354.238 276.475 354.238 277.061 353.653L286.607 344.107C287.192 343.521 287.192 342.571 286.607 341.985C286.021 341.4 285.071 341.4 284.485 341.985L276 350.471L267.515 341.985C266.929 341.4 265.979 341.4 265.393 341.985C264.808 342.571 264.808 343.521 265.393 344.107L274.939 353.653ZM274.5 311.592V352.592H277.5V311.592H274.5Z" fill="#FBBD4F"/>
<path d="M224.131 186.937C223.316 186.866 222.596 187.485 222.523 188.32L221.333 201.927C221.26 202.762 221.861 203.497 222.677 203.568C223.492 203.64 224.213 203.021 224.286 202.186L225.343 190.09L237.155 191.123C237.971 191.195 238.691 190.576 238.764 189.741C238.837 188.906 238.235 188.171 237.42 188.099L224.131 186.937ZM251.491 219.645L225.137 187.471L222.862 189.427L249.216 221.601L251.491 219.645Z" fill="#FBBD4F"/>
<path d="M334.222 186.937C335.037 186.866 335.758 187.485 335.831 188.32L337.021 201.927C337.094 202.762 336.492 203.497 335.677 203.568C334.861 203.64 334.141 203.021 334.068 202.186L333.01 190.09L321.198 191.123C320.383 191.195 319.663 190.576 319.59 189.741C319.517 188.906 320.118 188.171 320.934 188.099L334.222 186.937ZM306.862 219.645L333.217 187.471L335.492 189.427L309.138 221.601L306.862 219.645Z" fill="#FBBD4F"/>
<path d="M277.939 177.562C278.525 176.977 279.475 176.977 280.061 177.562L289.607 187.108C290.192 187.694 290.192 188.644 289.607 189.23C289.021 189.815 288.071 189.815 287.485 189.23L279 180.744L270.515 189.23C269.929 189.815 268.979 189.815 268.393 189.23C267.808 188.644 267.808 187.694 268.393 187.108L277.939 177.562ZM277.5 220.623V178.623H280.5V220.623H277.5Z" fill="#FBBD4F"/>
<rect x="174" y="218.623" width="204" height="98" rx="6" fill="#293F76"/>
<text fill="white" xml:space="preserve" style="white-space: pre" font-family="Museo Slab Rounded" font-size="32" letter-spacing="0em"><tspan x="198.25" y="259.323">Pediatrica&#x2028;</tspan><tspan x="209.688" y="298.323">Provider</tspan></text>
</svg>
