<?xml version="1.0" encoding="UTF-8"?> <svg xmlns="http://www.w3.org/2000/svg" width="23" height="23" viewBox="0 0 23 23" fill="none"><g clip-path="url(#clip0_2171_3859)"><mask id="mask0_2171_3859" style="mask-type:luminance" maskUnits="userSpaceOnUse" x="0" y="0" width="23" height="23"><path d="M22.31 0.926758H0.255859V22.9809H22.31V0.926758Z" fill="white"></path></mask><g mask="url(#mask0_2171_3859)"><path d="M5.90799 1.84544C5.90799 1.46481 5.59943 1.15625 5.2188 1.15625C4.83816 1.15625 4.5296 1.46481 4.5296 1.84544H5.90799ZM4.5296 5.8887C4.5296 6.26934 4.83816 6.5779 5.2188 6.5779C5.59943 6.5779 5.90799 6.26934 5.90799 5.8887H4.5296ZM18.0378 1.84544C18.0378 1.46481 17.7292 1.15625 17.3486 1.15625C16.9679 1.15625 16.6594 1.46481 16.6594 1.84544H18.0378ZM16.6594 5.8887C16.6594 6.26934 16.9679 6.5779 17.3486 6.5779C17.7292 6.5779 18.0378 6.26934 18.0378 5.8887H16.6594ZM1.17552 9.44256H0.486328V10.8209H1.17552V9.44256ZM20.5102 10.8209C20.8909 10.8209 21.1994 10.5124 21.1994 10.1318C21.1994 9.75112 20.8909 9.44256 20.5102 9.44256V10.8209ZM8.98965 15.7772C8.70066 15.5294 8.26557 15.563 8.01785 15.852C7.77015 16.141 7.80361 16.576 8.09261 16.8237L8.98965 15.7772ZM10.4746 17.9577L10.0261 18.481C10.3139 18.7277 10.7471 18.6956 10.9954 18.4091L10.4746 17.9577ZM14.5861 14.2659C14.8354 13.9783 14.8044 13.543 14.5167 13.2938C14.229 13.0445 13.7938 13.0755 13.5445 13.3632L14.5861 14.2659ZM2.09622 3.94745H20.4711V2.56906H2.09622V3.94745ZM20.7027 4.17895V21.1411H22.0811V4.17895H20.7027ZM20.4711 21.3726H2.09622V22.751H20.4711V21.3726ZM1.86471 21.1411V4.17895H0.486328V21.1411H1.86471ZM2.09622 21.3726C1.96836 21.3726 1.86471 21.2689 1.86471 21.1411H0.486328C0.486328 22.0302 1.2071 22.751 2.09622 22.751V21.3726ZM20.7027 21.1411C20.7027 21.2689 20.599 21.3726 20.4711 21.3726V22.751C21.3602 22.751 22.0811 22.0302 22.0811 21.1411H20.7027ZM20.4711 3.94745C20.599 3.94745 20.7027 4.05109 20.7027 4.17895H22.0811C22.0811 3.28984 21.3602 2.56906 20.4711 2.56906V3.94745ZM2.09622 2.56906C1.2071 2.56906 0.486328 3.28984 0.486328 4.17895H1.86471C1.86471 4.05109 1.96837 3.94745 2.09622 3.94745V2.56906ZM4.5296 1.84544V5.8887H5.90799V1.84544H4.5296ZM16.6594 1.84544V5.8887H18.0378V1.84544H16.6594ZM1.17552 10.8209H20.5102V9.44256H1.17552V10.8209ZM8.09261 16.8237L10.0261 18.481L10.9231 17.4344L8.98965 15.7772L8.09261 16.8237ZM10.9954 18.4091L14.5861 14.2659L13.5445 13.3632L9.95382 17.5063L10.9954 18.4091Z" fill="#293F76"></path></g></g><defs><clipPath id="clip0_2171_3859"><rect width="22.0542" height="22.0542" fill="white" transform="translate(0.255859 0.926758)"></rect></clipPath></defs></svg> 