<?xml version="1.0" encoding="UTF-8"?> <svg xmlns="http://www.w3.org/2000/svg" width="115" height="116" viewBox="0 0 115 116" fill="none"><circle cx="57.5005" cy="58.1307" r="57.3619" fill="#C0C7DF"></circle><g clip-path="url(#clip0_2171_3902)"><mask id="mask0_2171_3902" style="mask-type:luminance" maskUnits="userSpaceOnUse" x="31" y="31" width="53" height="54"><path d="M84 31.7136H31V84.7136H84V31.7136Z" fill="white"></path></mask><g mask="url(#mask0_2171_3902)"><path d="M43.1465 33.9219V43.8594M71.8548 33.9219V43.8594M33.209 53.7969H81.7923M35.4216 82.5052H79.5796C80.8017 82.5052 81.7923 81.5145 81.7923 80.2927V39.4427C81.7923 38.2207 80.8017 37.2344 79.5796 37.2344H35.4216C34.1996 37.2344 33.209 38.2207 33.209 39.4427V80.2927C33.209 81.5145 34.1996 82.5052 35.4216 82.5052ZM50.8919 75.8778L54.8714 75.6126C55.1254 75.5956 55.3645 75.4871 55.5443 75.3071L64.9222 65.9295C65.3323 65.5191 65.3323 64.854 64.9222 64.4437L61.208 60.7295C60.7977 60.3194 60.1325 60.3194 59.7222 60.7295L50.3445 70.1074C50.1646 70.2872 50.0561 70.5263 50.0392 70.7803L49.7739 74.7597C49.7316 75.3939 50.2578 75.9202 50.8919 75.8778Z" stroke="#293F76" stroke-width="3.3125" stroke-linecap="round"></path></g></g><defs><clipPath id="clip0_2171_3902"><rect width="53" height="53" fill="white" transform="translate(31 31.7136)"></rect></clipPath></defs></svg> 