<?xml version="1.0" encoding="UTF-8"?> <svg xmlns="http://www.w3.org/2000/svg" width="56" height="56" viewBox="0 0 56 56" fill="none"><path d="M20.3711 28.2943H20.3977" stroke="#00667C" stroke-width="4.75544" stroke-linecap="round" stroke-linejoin="round"></path><path d="M35.6289 28.2943H35.6556" stroke="#00667C" stroke-width="4.75544" stroke-linecap="round" stroke-linejoin="round"></path><path d="M22.9141 39.5692C24.1854 40.4148 25.9654 40.9785 27.9996 40.9785C30.0338 40.9785 31.8137 40.4148 33.0851 39.5692" stroke="#00667C" stroke-width="4.75544" stroke-linecap="round" stroke-linejoin="round"></path><path d="M45.8001 12.2281C48.1038 15.4291 49.6741 19.2007 50.3771 23.2206C51.2369 23.6822 51.962 24.4029 52.4694 25.3002C52.9767 26.1975 53.2458 27.2351 53.2458 28.2941C53.2458 29.353 52.9767 30.3906 52.4694 31.2879C51.962 32.1852 51.2369 32.9059 50.3771 33.3675C49.2793 39.0427 46.4591 44.129 42.3869 47.7777C38.3148 51.4263 33.237 53.4167 28.0008 53.4167C22.7647 53.4167 17.6869 51.4263 13.6148 47.7777C9.5426 44.129 6.72237 39.0427 5.62464 33.3675C4.76483 32.9059 4.03971 32.1852 3.53233 31.2879C3.02496 30.3906 2.75586 29.353 2.75586 28.2941C2.75586 27.2351 3.02496 26.1975 3.53233 25.3002C4.03971 24.4029 4.76483 23.6822 5.62464 23.2206C6.67801 17.5003 9.47918 12.3578 13.5555 8.6608C17.6319 4.96379 22.7339 2.93854 28.0008 2.92676C33.0863 2.92676 36.9005 6.02721 36.9005 9.97323C36.9005 13.9193 34.612 17.0197 31.815 17.0197C29.7808 17.0197 28.0008 15.8923 28.0008 14.2011" stroke="#00667C" stroke-width="4.75544" stroke-linecap="round" stroke-linejoin="round"></path></svg> 