<?xml version="1.0" encoding="UTF-8"?> <svg xmlns="http://www.w3.org/2000/svg" width="56" height="57" viewBox="0 0 56 57" fill="none"><path d="M44.1905 33.3089C47.6367 29.9321 51.1292 25.8845 51.1292 20.5879C51.1292 17.2141 49.789 13.9785 47.4033 11.5928C45.0177 9.20719 41.7821 7.86694 38.4082 7.86694C34.3375 7.86694 31.4695 9.0234 28.0002 12.4928C24.5308 9.0234 21.6628 7.86694 17.5921 7.86694C14.2183 7.86694 10.9826 9.20719 8.59698 11.5928C6.21134 13.9785 4.87109 17.2141 4.87109 20.5879C4.87109 25.9076 8.34045 29.9552 11.8098 33.3089L28.0002 49.4993L44.1905 33.3089Z" stroke="#8B3B70" stroke-width="4.62581" stroke-linecap="round" stroke-linejoin="round"></path><path d="M7.69141 28.6818H22.2165L23.3729 26.3689L27.9987 36.777L32.6245 20.5867L36.0939 28.6818H48.2829" stroke="#8B3B70" stroke-width="4.62581" stroke-linecap="round" stroke-linejoin="round"></path></svg> 