<?xml version="1.0" encoding="UTF-8"?> <svg xmlns="http://www.w3.org/2000/svg" width="55" height="54" viewBox="0 0 55 54" fill="none"><g clip-path="url(#clip0_2171_3705)"><path d="M37.9788 51.7499L17.5544 51.7499M37.9788 51.7499L52.4256 51.7499C52.4768 51.7499 52.5184 51.7079 52.5178 51.6567C52.4679 46.5797 48.3367 42.4794 43.2479 42.4794C40.3714 42.4794 37.8009 43.7895 36.1005 45.8455M37.9788 51.7499V51.6473C37.9575 49.4866 37.2653 47.4866 36.1005 45.8455M17.5544 51.7499H3.10983C3.05863 51.7499 3.01708 51.7079 3.01758 51.6567C3.06755 46.5797 7.19873 42.4794 12.2876 42.4794C15.1634 42.4794 17.7333 43.7888 19.4337 45.844M17.5544 51.7499V51.6473C17.5757 49.486 18.2683 47.4854 19.4337 45.844M36.1005 45.8455C34.2501 43.2384 31.207 41.5372 27.7666 41.5372C24.3268 41.5372 21.2842 43.2378 19.4337 45.844M28.5173 2.25C29.76 2.25 30.7673 3.25736 30.7673 4.5V8.025C30.7673 8.14926 30.8681 8.25 30.9923 8.25L34.5173 8.25C35.76 8.25 36.7673 9.25736 36.7673 10.5V12C36.7673 13.2426 35.76 14.25 34.5173 14.25H30.9923C30.8681 14.25 30.7673 14.3507 30.7673 14.475V18C30.7673 19.2426 29.76 20.25 28.5173 20.25H27.0173C25.7747 20.25 24.7673 19.2426 24.7673 18V14.475C24.7673 14.3507 24.6666 14.25 24.5423 14.25H21.0173C19.7747 14.25 18.7673 13.2426 18.7673 12V10.5C18.7673 9.25736 19.7747 8.25 21.0173 8.25L24.5423 8.25C24.6666 8.25 24.7673 8.14927 24.7673 8.025V4.5C24.7673 3.25736 25.7747 2.25 27.0173 2.25H28.5173ZM32.358 31.9583C32.358 34.4964 30.3004 36.554 27.7622 36.554C25.2241 36.554 23.1665 34.4964 23.1665 31.9583C23.1665 29.4201 25.2241 27.3626 27.7622 27.3626C30.3004 27.3626 32.358 29.4201 32.358 31.9583ZM16.4553 33.7843C16.4553 36.0882 14.5876 37.956 12.2836 37.956C9.97967 37.956 8.11193 36.0882 8.11193 33.7843C8.11193 31.4803 9.97967 29.6125 12.2836 29.6125C14.5876 29.6125 16.4553 31.4803 16.4553 33.7843ZM47.4156 33.7843C47.4156 36.0882 45.5479 37.956 43.2439 37.956C40.9399 37.956 39.0722 36.0882 39.0722 33.7843C39.0722 31.4803 40.9399 29.6125 43.2439 29.6125C45.5479 29.6125 47.4156 31.4803 47.4156 33.7843Z" stroke="white" stroke-width="3"></path></g><defs><clipPath id="clip0_2171_3705"><rect width="54" height="54" fill="white" transform="translate(0.767578)"></rect></clipPath></defs></svg> 