<?xml version="1.0" encoding="UTF-8"?> <svg xmlns="http://www.w3.org/2000/svg" width="116" height="116" viewBox="0 0 116 116" fill="none"><circle cx="58.0005" cy="58.1307" r="57.3619" fill="#ABD8E4"></circle><path d="M66.3555 76.5051V71.7551C66.3555 69.2356 65.3546 66.8192 63.573 65.0376C61.7914 63.256 59.375 62.2551 56.8555 62.2551H42.6055C40.0859 62.2551 37.6695 63.256 35.888 65.0376C34.1064 66.8192 33.1055 69.2356 33.1055 71.7551V76.5051" stroke="#00667C" stroke-width="4.75" stroke-linecap="round" stroke-linejoin="round"></path><path d="M49.7305 52.7551C54.9772 52.7551 59.2305 48.5018 59.2305 43.2551C59.2305 38.0084 54.9772 33.7551 49.7305 33.7551C44.4838 33.7551 40.2305 38.0084 40.2305 43.2551C40.2305 48.5018 44.4838 52.7551 49.7305 52.7551Z" stroke="#00667C" stroke-width="4.75" stroke-linecap="round" stroke-linejoin="round"></path><path d="M80.6055 76.5047V71.7547C80.6039 69.6498 79.9033 67.6051 78.6137 65.9415C77.3241 64.2779 75.5185 63.0897 73.4805 62.5635" stroke="#00667C" stroke-width="4.75" stroke-linecap="round" stroke-linejoin="round"></path><path d="M66.3555 34.0635C68.399 34.5867 70.2102 35.7751 71.5036 37.4415C72.797 39.1078 73.4991 41.1572 73.4991 43.2666C73.4991 45.376 72.797 47.4254 71.5036 49.0917C70.2102 50.7581 68.399 51.9465 66.3555 52.4697" stroke="#00667C" stroke-width="4.75" stroke-linecap="round" stroke-linejoin="round"></path></svg> 