<?xml version="1.0" encoding="UTF-8"?> <svg xmlns="http://www.w3.org/2000/svg" width="115" height="116" viewBox="0 0 115 116" fill="none"><circle cx="57.5005" cy="58.2689" r="57.3619" fill="#D7B1CA"></circle><path d="M44.814 73.1774L44.8139 73.1776L44.8229 73.1821C44.9447 73.243 45.0479 73.2792 45.1575 73.2974C45.2574 73.3141 45.3549 73.3141 45.4521 73.314H45.4625C45.9526 73.314 46.3657 73.0723 46.5261 72.7626C46.9181 72.0997 46.6381 71.3241 46.0135 70.9493L46.0135 70.9492L46.007 70.9456C41.1584 68.2304 41.5346 62.6749 41.5898 61.8597C41.592 61.8277 41.5937 61.803 41.5945 61.786L41.6994 60.7367L41.7243 60.4879L41.4756 60.463L40.4229 60.3577C38.7731 60.1511 37.6891 59.6423 37.007 58.769C36.1177 57.4792 36.1049 55.6656 36.3137 54.2029C36.5049 52.9644 37.6464 52.1121 38.8789 52.3017L38.8815 52.3021L42.5767 52.83L42.8081 52.8631L42.8566 52.6344L43.5956 49.1504L43.5957 49.1504L43.5968 49.1446C43.9018 47.5178 44.8137 46.1073 46.22 45.3038L46.22 45.3038L46.2232 45.3019L48.5446 43.9302C48.5448 43.9301 48.545 43.93 48.5451 43.9298C49.8773 43.1526 50.7723 41.8154 50.8849 40.2505L51.2014 36.7689L51.2024 36.7576V36.7463C51.2024 36.4122 51.3667 36.0559 51.5599 35.7584L56.2763 32.1949L56.2901 32.1844L56.3024 32.1722L56.5135 31.961L56.529 31.9456L56.5416 31.9276C57.3284 30.8036 57.4486 29.441 56.8792 28.2982C56.3075 27.0446 55.16 26.3611 53.8029 26.3611H35.9608C35.5873 26.3611 35.2565 26.4867 35.0186 26.7246C34.7806 26.9626 34.655 27.2933 34.655 27.6668C34.655 28.0404 34.7806 28.3711 35.0186 28.609C35.2565 28.847 35.5873 28.9726 35.9608 28.9726H53.9085C54.0759 28.9726 54.2113 29.0137 54.3241 29.089C54.4385 29.1652 54.5443 29.2863 54.6351 29.4678L54.6421 29.4818L54.6507 29.4947C54.7986 29.7166 54.8055 30.0112 54.6714 30.2399L49.9571 33.8019L49.9433 33.8123L49.931 33.8246L49.7199 34.0357L49.7119 34.0437L49.7046 34.0524C49.14 34.73 48.8086 35.6225 48.6984 36.5041L48.6983 36.5041L48.6975 36.5132L48.3812 40.0981C48.2842 40.864 47.9057 41.4311 47.3353 41.8133L45.0205 43.1811C45.0202 43.1813 45.0199 43.1815 45.0196 43.1817C42.9502 44.3801 41.5361 46.4476 41.1001 48.7322L40.8316 49.985L39.2687 49.8011C36.5974 49.3593 34.1494 51.2502 33.813 53.8135C33.3842 56.4976 33.8095 58.6808 35.0202 60.3317C35.8752 61.507 37.2356 62.3609 38.9851 62.714C39.0193 65.0696 39.6716 70.3439 44.814 73.1774Z" fill="#8B3B70" stroke="#8B3B70" stroke-width="0.5"></path><path d="M53.5694 33.2654L53.5776 33.2704L53.5862 33.2747C53.5858 33.2744 53.5864 33.2748 53.5883 33.2759C53.5956 33.2803 53.6215 33.2959 53.6699 33.3277C53.7254 33.3642 53.8022 33.4166 53.8971 33.4848C54.0869 33.6212 54.3477 33.8196 54.6533 34.0783C55.2649 34.5957 56.0536 35.3521 56.8128 36.3318C58.3308 38.291 59.7223 41.1316 59.3616 44.7434C58.8262 49.4587 60.3004 52.1283 61.9643 53.6135C62.7905 54.351 63.6535 54.7874 64.3167 55.0397C64.6485 55.166 64.9314 55.2465 65.1363 55.2958C65.2388 55.3204 65.3222 55.3373 65.3829 55.3482C65.4132 55.3536 65.4384 55.3576 65.458 55.3604L65.4592 55.3606C65.4709 55.3622 65.4987 55.3662 65.5224 55.3662H65.628C66.2803 55.3662 66.8869 54.8592 67.127 54.2589L67.1449 54.2142V54.166C67.1449 53.5289 66.6528 52.9047 66.0179 52.7646C66.0054 52.7601 65.9945 52.7566 65.9873 52.7543C65.9687 52.7485 65.9467 52.7421 65.9241 52.7357C65.8774 52.7223 65.8198 52.7063 65.7496 52.6849C65.6101 52.6425 65.4235 52.58 65.2076 52.4866C64.7757 52.2997 64.2269 51.9891 63.7064 51.4687C62.6745 50.4367 61.7125 48.537 62.076 45.0066L62.0761 45.005C62.9204 36.2452 55.5844 31.433 55.0223 31.0643C55.0118 31.0574 55.0037 31.0521 54.998 31.0483L54.9982 31.048L54.988 31.0419C54.3614 30.666 53.5659 30.7793 53.1669 31.4444C52.791 32.071 52.9043 32.8664 53.5694 33.2654Z" fill="#8B3B70" stroke="#8B3B70" stroke-width="0.5"></path><path d="M58.0045 81.9279L58.0044 81.9278L57.997 81.9325C56.7683 82.7144 55.9809 84.0584 55.9809 85.5218V88.6891C55.9809 89.0626 56.1065 89.3933 56.3444 89.6313C56.5824 89.8692 56.9131 89.9948 57.2866 89.9948C58.0791 89.9948 58.573 89.3387 58.6931 88.7381L58.6979 88.7138V88.6891V85.5218C58.6979 84.9637 58.9786 84.4186 59.4203 84.1531C59.4206 84.1529 59.4209 84.1527 59.4212 84.1526L61.2113 83.0995C61.2118 83.0992 61.2122 83.099 61.2127 83.0987C61.9765 82.662 62.7562 81.9993 63.2078 81.1008L69.0095 71.0797C69.0097 71.0793 69.0099 71.079 69.0101 71.0786C70.4302 68.6745 70.3248 65.7158 68.679 63.5198L66.257 60.1499C65.6864 59.2424 64.6664 58.672 63.635 58.667C62.5984 58.5568 61.5763 59.0187 60.8984 59.8089C60.8981 59.8093 60.8978 59.8096 60.8975 59.81L56.6142 64.7052L56.0594 64.309C55.2674 63.7432 54.2428 63.5112 53.3197 63.742C52.4293 63.9646 51.5185 64.5239 51.0531 65.3362L48.2069 70.0798C47.7535 70.7629 47.5349 71.6566 47.5349 72.5361V76.7228C46.241 76.7689 45.0688 77.4308 44.3147 78.4004L44.3147 78.4004L44.3117 78.4043L38.7166 85.8997L38.9166 86.0497L38.7162 85.9001L38.7164 85.8999C38.5094 86.1761 38.4509 86.5375 38.4975 86.8637C38.5441 87.1899 38.7015 87.5206 38.9777 87.7277C39.2539 87.9349 39.6154 87.9934 39.9417 87.9468C40.268 87.9002 40.5986 87.7428 40.8058 87.4666L40.8061 87.4661L46.4012 79.9708C46.4013 79.9707 46.4013 79.9707 46.4013 79.9707C46.5316 79.797 46.7359 79.635 46.9729 79.5165C47.21 79.398 47.4621 79.3317 47.6793 79.3317H49.8964H50.1464V79.0817V72.5361C50.1464 72.1597 50.2395 71.7782 50.4325 71.3894L53.2748 66.6522C53.3638 66.5198 53.446 66.4407 53.5322 66.3832C53.615 66.328 53.7112 66.2861 53.8437 66.2405C53.9889 66.2407 54.111 66.243 54.2198 66.2628C54.3336 66.2835 54.4122 66.3202 54.4705 66.3784L54.4824 66.3903L54.4957 66.4005L56.7128 68.0897L56.899 68.2316L57.0528 68.055L62.7478 61.5164C62.9018 61.3661 63.1461 61.2784 63.41 61.2784C63.669 61.2784 63.8945 61.3614 64.0465 61.5894L64.0465 61.5894L64.0495 61.5937L66.4777 65.0777L66.4777 65.0777L66.4793 65.08C67.4787 66.4791 67.5773 68.2719 66.6796 69.7681L66.6795 69.7681L66.6776 69.7715L60.8784 79.7882C60.5634 80.2081 60.2739 80.5871 59.7982 80.8728C59.7979 80.8729 59.7977 80.8731 59.7974 80.8733L58.0045 81.9279Z" fill="#8B3B70" stroke="#8B3B70" stroke-width="0.5"></path><path d="M77.8385 82.2852L77.8561 82.2877H77.8738H77.8745H77.8751H77.8757H77.8763H77.8769H77.8775H77.8782H77.8788H77.8794H77.88H77.8806H77.8813H77.8819H77.8825H77.8831H77.8837H77.8843H77.885H77.8856H77.8862H77.8868H77.8874H77.8881H77.8887H77.8893H77.8899H77.8905H77.8912H77.8918H77.8924H77.893H77.8936H77.8942H77.8949H77.8955H77.8961H77.8967H77.8973H77.898H77.8986H77.8992H77.8998H77.9004H77.9011H77.9017H77.9023H77.9029H77.9035H77.9041H77.9048H77.9054H77.906H77.9066H77.9072H77.9079H77.9085H77.9091H77.9097H77.9103H77.9109H77.9116H77.9122H77.9128H77.9134H77.914H77.9147H77.9153H77.9159H77.9165H77.9171H77.9178H77.9184H77.919H77.9196H77.9202H77.9208H77.9215H77.9221H77.9227H77.9233H77.9239H77.9246H77.9252H77.9258H77.9264H77.927H77.9276H77.9283H77.9289H77.9295H77.9301H77.9307H77.9314H77.932H77.9326H77.9332H77.9338H77.9345H77.9351H77.9357H77.9363H77.9369H77.9375H77.9382H77.9388H77.9394H77.94H77.9406H77.9413H77.9419H77.9425H77.9431H77.9437H77.9444H77.945H77.9456H77.9462H77.9468H77.9474H77.9481H77.9487H77.9493H77.9499H77.9505H77.9512H77.9518H77.9524H77.953H77.9536H77.9542H77.9549H77.9555H77.9561H77.9567H77.9573H77.958H77.9586H77.9592H77.9598H77.9604H77.9611H77.9617H77.9623H77.9629H77.9635H77.9641H77.9648H77.9654H77.966H77.9666H77.9672H77.9679H77.9685H77.9691H77.9697H77.9703H77.971H77.9716H77.9722H77.9728H77.9734H77.974H77.9747H77.9753H77.9759H77.9765H77.9771H77.9778H77.9784H77.979H77.9796H77.9802H77.9808H77.9815H77.9821H77.9827H77.9833H77.9839H77.9846H77.9852H77.9858H77.9864H77.987H77.9877H77.9883H77.9889H77.9895H77.9901H77.9907H77.9914H77.992H77.9926H77.9932H77.9938H77.9945H77.9951H77.9957H77.9963H77.9969H77.9976H77.9982H77.9988H77.9994H78H78.0006H78.0013H78.0019H78.0025H78.0031H78.0037H78.0044H78.005H78.0056H78.0062H78.0068H78.0074H78.0081H78.0087H78.0093H78.0099H78.0105H78.0112H78.0118H78.0124H78.013H78.0136H78.0143H78.0149H78.0155H78.0161H78.0167H78.0173H78.018H78.0186H78.0192H78.0198H78.0204H78.0211H78.0217H78.0223H78.0229H78.0235H78.0241H78.0248H78.0254H78.026H78.0266H78.0272H78.0279H78.0285H78.0291H78.0297H78.0303H78.031H78.0316H78.0322H78.0328H78.0334H78.034H78.0347H78.0353H78.0359H78.0365H78.0371H78.0378H78.0384H78.039H78.0396H78.0402H78.0409H78.0415H78.0421H78.0427H78.0433H78.0439H78.0446H78.0452H78.0458H78.0464H78.047H78.0477H78.0483H78.0489H78.0495H78.0501H78.0507H78.0514H78.052H78.0526H78.0532H78.0538H78.0545H78.0551H78.0557H78.0563H78.0569H78.0576H78.0582H78.0588H78.0594H78.06H78.0606H78.0613H78.0619H78.0625H78.0631H78.0637H78.0644H78.065H78.0656H78.0662H78.0668H78.0675H78.0681H78.0687H78.0693H78.0699H78.0705H78.0712H78.0718H78.0724H78.073H78.0736H78.0743H78.0749H78.0755H78.0761H78.0767H78.0773H78.078H78.0786H78.0792H78.0798H78.0804H78.0811H78.0817H78.0823H78.0829H78.0835H78.0842H78.0848H78.0854H78.086H78.0866H78.0872H78.0879H78.0885H78.0891H78.0897H78.0903H78.091H78.0916H78.0922H78.0928H78.0934H78.0941H78.0947H78.0953H78.0959H78.0965H78.0971H78.0978H78.0984H78.099H78.0996H78.1002H78.1009H78.1015H78.1021H78.1027H78.1033H78.1039H78.1046H78.1052H78.1058H78.1064H78.107H78.1077H78.1083H78.1089H78.1095H78.1101H78.1108H78.1114H78.112H78.1126H78.1132H78.1138H78.1145H78.1151H78.1157H78.1163H78.1169H78.1176H78.1182H78.1188H78.1194H78.12H78.1207H78.1213H78.1219H78.1225H78.1231H78.1237H78.1244H78.125H78.1256H78.1262H78.1268H78.1275H78.1281H78.1287H78.1293H78.1299H78.1305H78.1312H78.1318H78.1324H78.133H78.1336H78.1343H78.1349H78.1355H78.1361H78.1367H78.1374H78.138H78.1386H78.1392H78.1398H78.1404H78.1411H78.1417H78.1423H78.1429H78.1435H78.1442H78.1448H78.1454H78.146H78.1466H78.1472H78.1479H78.1485H78.1491H78.1497H78.1503H78.151H78.1516H78.1522H78.1528H78.1534H78.1541H78.1547H78.1553H78.1559H78.1565H78.1571H78.1578H78.1584H78.159H78.1596H78.1602H78.1609H78.1615H78.1621H78.1627H78.1633H78.164H78.1646H78.1652H78.1658H78.1664H78.167H78.1677H78.1683H78.1689H78.1695H78.1701H78.1708H78.1714H78.172H78.1726H78.1732H78.1738H78.1745H78.1751H78.1757H78.1763H78.1769H78.1776H78.1782H78.1788H78.1794H78.18H78.1807H78.1813H78.1819H78.1825H78.1831H78.1837H78.1844H78.185H78.1856H78.1862H78.1868H78.1875H78.1881H78.1887H78.1893H78.1899H78.1906C78.7717 82.2877 79.4756 82.0587 79.9546 81.4731C81.549 80.0895 84.4186 77.3227 86.0196 73.8008L86.021 73.7975C86.8035 72.009 86.3543 69.7887 84.913 68.3474L84.913 68.3473L84.9085 68.343L69.708 53.8814C69.0271 53.2018 68.0141 52.7546 66.894 52.7546H64.0435H63.8513L63.8019 52.9405L62.0071 59.6973L62.0051 59.7048L62.0036 59.7124C61.9382 60.0394 62.0039 60.3898 62.1622 60.6747C62.3207 60.9601 62.5865 61.203 62.9387 61.2735C63.2657 61.3389 63.6161 61.2732 63.901 61.1149C64.1842 60.9576 64.4256 60.6947 64.4982 60.3464L65.8195 55.3661H66.7885C67.2431 55.3661 67.6036 55.5458 67.8786 55.8208L67.8785 55.8208L67.883 55.8251L83.0835 70.2867C83.768 70.9726 84.0344 71.9225 83.7664 72.6506C82.3101 75.7651 79.7078 78.2667 78.3377 79.5314L78.3376 79.5312L78.3305 79.5383C78.3262 79.5426 78.3222 79.5462 78.3185 79.5492C78.2973 79.5303 78.2774 79.5165 78.2632 79.5071C78.2393 79.4911 78.2226 79.4808 78.2096 79.4729C78.1935 79.463 78.1832 79.4566 78.1721 79.4474L76.3939 76.7278L76.2807 76.5546L76.0894 76.6334L72.5022 78.1105C72.5019 78.1106 72.5015 78.1108 72.5012 78.1109C72.0785 78.2794 71.6056 78.0991 71.4547 77.7219L71.4499 77.7098L71.4438 77.6983L70.3881 75.6924L70.3884 75.6922L70.3812 75.6802C70.005 75.0531 69.2248 74.7734 68.5602 75.1722C67.9351 75.5472 67.6551 76.3237 68.0484 76.9869L69.0998 78.9847C69.8977 80.5771 71.8268 81.2604 73.4228 80.5825L75.1324 80.0126L75.871 81.1207L75.8771 81.1297L75.8838 81.1382C76.3394 81.7076 77.027 82.1693 77.8385 82.2852Z" fill="#8B3B70" stroke="#8B3B70" stroke-width="0.5"></path><path d="M75.0006 79.5072L75.0088 79.5122L75.0174 79.5165C75.1393 79.5774 75.2424 79.6136 75.3521 79.6318C75.4519 79.6485 75.5495 79.6484 75.6466 79.6484L75.6571 79.6484C76.1691 79.6484 76.5457 79.3913 76.7841 79.1529L76.8127 79.1242L76.8309 79.0879L77.9922 76.7653C78.7738 75.2021 78.5572 73.2908 77.3153 72.0459L74.5794 69.0996C74.3294 68.7908 74.0041 68.6215 73.6637 68.6044C73.3266 68.5876 72.9998 68.7214 72.7453 68.9711C72.4386 69.2207 72.2703 69.545 72.2534 69.8842C72.2364 70.2241 72.3726 70.5536 72.6264 70.809L75.3683 73.7619L75.3682 73.762L75.3748 73.7686C75.8226 74.2164 75.9158 74.9436 75.6446 75.4859L74.4927 77.7897C74.0767 78.3711 74.4026 79.1484 75.0006 79.5072Z" fill="#8B3B70" stroke="#8B3B70" stroke-width="0.5"></path><path d="M67.6295 35.2913L67.6293 35.2915L67.6359 35.3014C67.7686 35.5004 67.961 35.6579 68.1609 35.7655C68.3596 35.8725 68.585 35.9406 68.7941 35.9406C68.7983 35.9406 68.8025 35.9406 68.8069 35.9406C68.9033 35.9406 69.0396 35.9408 69.1663 35.9045C69.295 35.8678 69.4177 35.7934 69.5059 35.6601L75.6811 31.8921L75.6913 31.8859L75.7009 31.8787C76.2066 31.4994 76.4762 30.729 76.082 30.072L76.0753 30.061L76.0676 30.0507C75.6883 29.5449 74.9179 29.2754 74.2609 29.6696L74.2609 29.6696L74.2593 29.6705L68.0304 33.4712L68.0202 33.4775L68.0106 33.4846C67.5049 33.864 67.2353 34.6343 67.6295 35.2913Z" fill="#8B3B70" stroke="#8B3B70" stroke-width="0.5"></path><path d="M69.5579 44.1342L69.5579 44.1342L69.5563 44.1332C68.9297 43.7573 68.1343 43.8707 67.7353 44.5357C67.3595 45.162 67.4726 45.957 68.1369 46.3562C68.1372 46.3564 68.1375 46.3566 68.1377 46.3567L74.3443 50.1438C74.4509 50.2358 74.5825 50.2684 74.6843 50.2829C74.7945 50.2987 74.9151 50.2986 75.0145 50.2986L75.0232 50.2986C75.3712 50.2986 75.9009 50.1857 76.1813 49.765L76.1816 49.7652L76.1877 49.755C76.5635 49.1286 76.4504 48.3336 75.7861 47.9344C75.7858 47.9343 75.7855 47.9341 75.7852 47.9339L69.5579 44.1342Z" fill="#8B3B70" stroke="#8B3B70" stroke-width="0.5"></path><path d="M68.794 41.4303H76.3954C77.0448 41.4303 77.7012 40.9121 77.7012 40.1246C77.7012 39.7511 77.5756 39.4204 77.3376 39.1824C77.0997 38.9445 76.769 38.8188 76.3954 38.8188H68.794C68.4205 38.8188 68.0898 38.9445 67.8518 39.1824C67.6139 39.4204 67.4883 39.7511 67.4883 40.1246C67.4883 40.4981 67.6139 40.8288 67.8518 41.0668C68.0898 41.3047 68.4205 41.4303 68.794 41.4303Z" fill="#8B3B70" stroke="#8B3B70" stroke-width="0.5"></path><path d="M53.0088 49.7041L50.9702 50.5535C50.1975 50.8165 49.9399 51.5977 50.1867 52.2374C50.3372 52.8014 50.8931 53.0436 51.3751 53.0436H51.3761C51.432 53.0436 51.5013 53.0436 51.6009 53.027C51.6975 53.0109 51.8166 52.9803 51.982 52.9252L51.9896 52.9226L51.997 52.9196L58.7538 50.1747L59.251 49.9727L58.7765 49.722L53.1868 46.7689C52.5235 46.3755 51.7469 46.6555 51.3718 47.2806C50.9731 47.9452 51.2528 48.7254 51.8799 49.1017L51.8797 49.1019L51.8909 49.1079L53.0088 49.7041Z" fill="#8B3B70" stroke="#8B3B70" stroke-width="0.5"></path><path d="M53.309 70.3904L53.3376 70.4191L53.3739 70.4372C53.5992 70.5498 53.957 70.6747 54.2248 70.6747C54.4978 70.6747 54.8795 70.5459 55.1406 70.2848L55.1474 70.278L55.1536 70.2707L57.6815 67.3215C58.2243 66.7704 58.0518 65.9801 57.5688 65.4971C57.0173 64.9456 56.2223 65.1176 55.7372 65.6027L55.7304 65.6095L55.7241 65.6167L53.1963 68.5659C52.6534 69.1171 52.826 69.9074 53.309 70.3904Z" fill="#8B3B70" stroke="#8B3B70" stroke-width="0.5"></path><path d="M49.6104 76.866L49.6105 76.8659L49.6032 76.8615C48.9766 76.4855 48.1812 76.5989 47.7821 77.264C47.4069 77.8893 47.5192 78.6829 48.1808 79.0827L57.1315 84.8743C57.2846 85.0154 57.546 85.1384 57.815 85.1384C58.0026 85.1384 58.2012 85.1068 58.4019 85.0064C58.6018 84.9065 58.7885 84.746 58.9652 84.5105L58.9729 84.5002L58.9795 84.4892C59.3548 83.8638 59.2425 83.0702 58.5809 82.6704L49.6104 76.866Z" fill="#8B3B70" stroke="#8B3B70" stroke-width="0.5"></path></svg> 