<?xml version="1.0" encoding="UTF-8"?> <svg xmlns="http://www.w3.org/2000/svg" width="55" height="54" viewBox="0 0 55 54" fill="none"><g clip-path="url(#clip0_2171_3717)"><path d="M19.1441 51.75L19.1442 42.3591C19.1442 37.5771 23.0032 33.7006 27.7636 33.7006C32.5148 33.7006 36.37 37.5628 36.3829 42.3355L36.3908 45.2296L36.3907 51.75M22.9705 24.9869C22.9702 25.0092 22.97 25.0314 22.97 25.0538C22.97 27.7068 25.111 29.8575 27.7521 29.8575C30.3931 29.8575 32.5341 27.7068 32.5341 25.0538C32.5341 25.0314 32.5339 25.0092 32.5336 24.9869M22.9705 24.9869C23.0061 22.3647 25.1333 20.25 27.7521 20.25C30.3709 20.25 32.498 22.3647 32.5336 24.9869M22.9705 24.9869H22.9411C21.0401 23.9656 18.8684 23.3866 16.5624 23.3866C9.08181 23.3866 3.01762 29.4784 3.01762 36.9929L3.01758 49.005C3.01756 50.521 4.24099 51.75 5.75016 51.75H49.7849C51.2941 51.75 52.5175 50.521 52.5175 49.005L52.5176 41.5037L52.5052 36.9558C52.4849 29.4558 46.4267 23.3866 38.9605 23.3866C36.6542 23.3866 34.4825 23.9656 32.5817 24.9869H32.5336M24.0589 9.79878C24.0589 13.9679 20.6945 17.3476 16.5443 17.3476C12.3941 17.3476 9.0297 13.9679 9.0297 9.79878C9.0297 5.6297 12.3941 2.25 16.5443 2.25C20.6945 2.25 24.0589 5.6297 24.0589 9.79878ZM46.4571 9.79878C46.4571 13.9679 43.0927 17.3476 38.9425 17.3476C34.7923 17.3476 31.4279 13.9679 31.4279 9.79878C31.4279 5.6297 34.7923 2.25 38.9425 2.25C43.0927 2.25 46.4571 5.6297 46.4571 9.79878Z" stroke="white" stroke-width="3" stroke-linecap="round"></path></g><defs><clipPath id="clip0_2171_3717"><rect width="54" height="54" fill="white" transform="translate(0.767578)"></rect></clipPath></defs></svg> 