<?xml version="1.0" encoding="UTF-8"?> <svg xmlns="http://www.w3.org/2000/svg" width="131" height="132" viewBox="0 0 131 132" fill="none"><path fill-rule="evenodd" clip-rule="evenodd" d="M65.7695 10.2886C34.8953 10.2886 9.86688 35.3171 9.86688 66.1913C9.86688 97.0655 34.8953 122.094 65.7695 122.094C96.6437 122.094 121.672 97.0655 121.672 66.1913C121.672 35.3171 96.6437 10.2886 65.7695 10.2886ZM0.539062 66.1913C0.539062 30.1655 29.7437 0.960815 65.7695 0.960815C101.795 0.960815 131 30.1655 131 66.1913C131 102.217 101.795 131.422 65.7695 131.422C29.7437 131.422 0.539062 102.217 0.539062 66.1913Z" fill="#933A79"></path><path fill-rule="evenodd" clip-rule="evenodd" d="M25.6479 48.6659C26.5776 47.7746 28.0538 47.8058 28.9451 48.7356C37.1533 57.2982 51.0097 56.2334 58.5427 48.7004C59.4534 47.7897 60.9299 47.7897 61.8406 48.7004C62.7513 49.611 62.7513 51.0875 61.8406 51.9982C52.6967 61.1422 35.82 62.647 25.5782 51.963C24.687 51.0333 24.7182 49.5571 25.6479 48.6659ZM70.2313 48.6659C71.161 47.7746 72.6372 47.8058 73.5284 48.7356C81.7367 57.2982 95.593 56.2334 103.126 48.7004C104.037 47.7897 105.513 47.7897 106.424 48.7004C107.335 49.611 107.335 51.0875 106.424 51.9982C97.28 61.1422 80.4034 62.647 70.1616 51.963C69.2704 51.0333 69.3015 49.5571 70.2313 48.6659ZM36.9287 94.0458C37.8584 93.1546 39.3346 93.1858 40.2258 94.1155C54.3826 108.884 78.1706 106.984 91.0744 94.0803C91.9851 93.1696 93.4616 93.1696 94.3723 94.0803C95.283 94.991 95.283 96.4675 94.3723 97.3782C79.858 111.892 53.0497 114.233 36.859 97.343C35.9677 96.4132 35.9989 94.9371 36.9287 94.0458Z" fill="#933A79"></path></svg> 