<?xml version="1.0" encoding="UTF-8"?> <svg xmlns="http://www.w3.org/2000/svg" width="23" height="24" viewBox="0 0 23 24" fill="none"><g clip-path="url(#clip0_2171_3875)"><path d="M8.03761 20.9823V21.3023C8.03761 22.0874 8.67407 22.7239 9.45918 22.7239C10.2443 22.7239 10.8808 22.0874 10.8808 21.3023V11.7114M10.8807 2.82198C3.22241 2.82198 2.07847 8.38385 1.90759 11.6009C1.87151 12.2803 2.57325 12.7378 3.19861 12.4698L4.79056 11.7875C5.04679 11.6778 5.33837 11.6863 5.58772 11.811L7.61386 12.824C7.88067 12.9575 8.19472 12.9575 8.46153 12.824L10.4876 11.811C10.7369 11.6863 11.0285 11.6778 11.2847 11.7875L13.7902 12.8613C14.0485 12.972 14.3426 12.9623 14.5932 12.8349L16.2004 12.0174C16.4343 11.8985 16.7069 11.8818 16.9536 11.9714L18.6128 12.5741C19.2308 12.7986 19.8902 12.3428 19.8559 11.6861C19.6913 8.53915 18.5666 2.82198 10.8807 2.82198ZM10.8807 2.82198L10.8808 1.87427M17.4757 16.6038C16.7332 15.9191 15.5287 15.9186 14.7855 16.6028C14.0424 17.287 14.0419 18.3967 14.7844 19.0816L16.8828 21.1299C17.251 21.4893 17.8387 21.4893 18.2069 21.1299L20.3026 19.0838L20.3052 19.0816C21.0477 18.3967 21.0473 17.287 20.3041 16.6028C19.561 15.9186 18.3565 15.9191 17.6139 16.6038C17.575 16.6396 17.5146 16.6396 17.4757 16.6038Z" stroke="#293F76" stroke-width="1.13725" stroke-linecap="round"></path></g><defs><clipPath id="clip0_2171_3875"><rect width="22.745" height="22.745" fill="white" transform="translate(0.0117188 0.926758)"></rect></clipPath></defs></svg> 