<?xml version="1.0" encoding="UTF-8"?> <svg xmlns="http://www.w3.org/2000/svg" width="554" height="545" viewBox="0 0 554 545" fill="none"><circle cx="276.334" cy="72.3949" r="72.3949" fill="#D9DEEF"></circle><path d="M256.784 41.0862H255.345V29.5203H259.992C262.315 29.5203 263.616 31.1156 263.616 33.0057C263.616 34.8958 262.281 36.4911 259.992 36.4911H256.784V41.0862ZM259.818 35.2079C261.188 35.2079 262.125 34.3062 262.125 33.0057C262.125 31.7052 261.188 30.8035 259.818 30.8035H256.784V35.2079H259.818ZM271.668 41.0862H270.368V40.1325C269.674 40.8954 268.72 41.2943 267.593 41.2943C266.171 41.2943 264.663 40.3406 264.663 38.5198C264.663 36.6471 266.171 35.7628 267.593 35.7628C268.738 35.7628 269.691 36.1269 270.368 36.9072V35.3986C270.368 34.2715 269.466 33.6299 268.252 33.6299C267.247 33.6299 266.432 33.9941 265.686 34.7917L265.079 33.89C265.981 32.9537 267.056 32.5028 268.426 32.5028C270.194 32.5028 271.668 33.3005 271.668 35.3293V41.0862ZM268.062 40.3579C268.981 40.3579 269.865 40.0111 270.368 39.3175V37.7395C269.865 37.0459 268.981 36.6991 268.062 36.6991C266.848 36.6991 265.998 37.4621 265.998 38.5372C265.998 39.5949 266.848 40.3579 268.062 40.3579ZM273.807 44.3635L274.015 43.1843C274.206 43.271 274.518 43.3231 274.726 43.3231C275.298 43.3231 275.68 43.1323 275.975 42.4387L276.529 41.1729L273.027 32.7109H274.431L277.223 39.5776L279.997 32.7109H281.419L277.223 42.7855C276.72 43.9993 275.871 44.4675 274.761 44.4848C274.483 44.4848 274.05 44.4328 273.807 44.3635ZM286.435 41.2943C283.886 41.2943 282.29 39.3175 282.29 36.8899C282.29 34.4623 283.886 32.5028 286.435 32.5028C288.984 32.5028 290.579 34.4623 290.579 36.8899C290.579 39.3175 288.984 41.2943 286.435 41.2943ZM286.435 40.1325C288.221 40.1325 289.209 38.6065 289.209 36.8899C289.209 35.1906 288.221 33.6646 286.435 33.6646C284.649 33.6646 283.643 35.1906 283.643 36.8899C283.643 38.6065 284.649 40.1325 286.435 40.1325ZM294 41.0862H292.699V32.7109H294V34.0634C294.676 33.1791 295.647 32.5375 296.791 32.5375V33.8727C296.635 33.838 296.479 33.8207 296.271 33.8207C295.473 33.8207 294.381 34.4796 294 35.1559V41.0862ZM238.268 62.2943C234.939 62.2943 232.321 59.8666 232.321 56.3119C232.321 52.7572 234.939 50.3296 238.268 50.3296C240.315 50.3296 241.736 51.318 242.655 52.6185L241.442 53.2948C240.783 52.3237 239.586 51.6128 238.268 51.6128C235.737 51.6128 233.812 53.5549 233.812 56.3119C233.812 59.0517 235.737 61.0111 238.268 61.0111C239.586 61.0111 240.783 60.3175 241.442 59.3291L242.673 60.0054C241.702 61.3232 240.315 62.2943 238.268 62.2943ZM248.114 62.2943C245.565 62.2943 243.969 60.3175 243.969 57.8899C243.969 55.4623 245.565 53.5028 248.114 53.5028C250.663 53.5028 252.258 55.4623 252.258 57.8899C252.258 60.3175 250.663 62.2943 248.114 62.2943ZM248.114 61.1325C249.9 61.1325 250.888 59.6065 250.888 57.8899C250.888 56.1906 249.9 54.6646 248.114 54.6646C246.328 54.6646 245.322 56.1906 245.322 57.8899C245.322 59.6065 246.328 61.1325 248.114 61.1325ZM261.332 62.0862H260.031V56.6067C260.031 55.1328 259.285 54.6646 258.158 54.6646C257.135 54.6646 256.164 55.2889 255.679 55.9651V62.0862H254.378V53.7109H255.679V54.9247C256.268 54.2311 257.413 53.5028 258.661 53.5028C260.412 53.5028 261.332 54.3872 261.332 56.2079V62.0862ZM266.044 62.2943C264.813 62.2943 264.189 61.5833 264.189 60.3348V54.8554H262.802V53.7109H264.189V51.422H265.489V53.7109H267.189V54.8554H265.489V60.0574C265.489 60.6816 265.767 61.1325 266.339 61.1325C266.703 61.1325 267.05 60.9764 267.223 60.7857L267.605 61.7567C267.275 62.0688 266.807 62.2943 266.044 62.2943ZM270.326 62.0862H269.026V53.7109H270.326V55.0634C271.003 54.1791 271.974 53.5375 273.118 53.5375V54.8727C272.962 54.838 272.806 54.8207 272.598 54.8207C271.8 54.8207 270.708 55.4796 270.326 56.1559V62.0862ZM281.287 62.0862H279.986V61.1325C279.292 61.8954 278.339 62.2943 277.212 62.2943C275.79 62.2943 274.281 61.3406 274.281 59.5198C274.281 57.6471 275.79 56.7628 277.212 56.7628C278.356 56.7628 279.31 57.1269 279.986 57.9072V56.3986C279.986 55.2715 279.084 54.6299 277.871 54.6299C276.865 54.6299 276.05 54.9941 275.304 55.7917L274.697 54.89C275.599 53.9537 276.674 53.5028 278.044 53.5028C279.813 53.5028 281.287 54.3005 281.287 56.3293V62.0862ZM277.68 61.3579C278.599 61.3579 279.483 61.0111 279.986 60.3175V58.7395C279.483 58.0459 278.599 57.6991 277.68 57.6991C276.466 57.6991 275.616 58.4621 275.616 59.5372C275.616 60.5949 276.466 61.3579 277.68 61.3579ZM287.587 62.2943C285.09 62.2943 283.408 60.3869 283.408 57.8899C283.408 55.4102 285.09 53.5028 287.587 53.5028C289.113 53.5028 290.015 54.1271 290.656 54.9594L289.789 55.757C289.234 54.9941 288.523 54.6646 287.656 54.6646C285.87 54.6646 284.761 56.0345 284.761 57.8899C284.761 59.7453 285.87 61.1325 287.656 61.1325C288.523 61.1325 289.234 60.7857 289.789 60.0401L290.656 60.8377C290.015 61.67 289.113 62.2943 287.587 62.2943ZM294.594 62.2943C293.363 62.2943 292.739 61.5833 292.739 60.3348V54.8554H291.352V53.7109H292.739V51.422H294.04V53.7109H295.739V54.8554H294.04V60.0574C294.04 60.6816 294.317 61.1325 294.889 61.1325C295.253 61.1325 295.6 60.9764 295.774 60.7857L296.155 61.7567C295.826 62.0688 295.357 62.2943 294.594 62.2943ZM298.218 52.5145C297.749 52.5145 297.351 52.133 297.351 51.6474C297.351 51.1619 297.749 50.7631 298.218 50.7631C298.703 50.7631 299.102 51.1619 299.102 51.6474C299.102 52.133 298.703 52.5145 298.218 52.5145ZM298.876 62.0862H297.576V53.7109H298.876V62.0862ZM308.424 62.0862H307.124V56.6067C307.124 55.1328 306.378 54.6646 305.251 54.6646C304.228 54.6646 303.257 55.2889 302.771 55.9651V62.0862H301.471V53.7109H302.771V54.9247C303.361 54.2311 304.505 53.5028 305.754 53.5028C307.505 53.5028 308.424 54.3872 308.424 56.2079V62.0862ZM314.385 65.4848C312.963 65.4848 311.992 65.2074 311.004 64.2364L311.663 63.2653C312.356 64.0976 313.189 64.4098 314.385 64.4098C315.772 64.4098 317.073 63.7335 317.073 61.8954V60.699C316.466 61.5486 315.443 62.1902 314.264 62.1902C312.079 62.1902 310.536 60.5603 310.536 57.8552C310.536 55.1675 312.062 53.5028 314.264 53.5028C315.391 53.5028 316.397 54.0577 317.073 54.9767V53.7109H318.374V61.8434C318.374 64.6178 316.431 65.4848 314.385 65.4848ZM314.576 61.0458C315.616 61.0458 316.622 60.4042 317.073 59.6759V56.0171C316.622 55.2889 315.616 54.6646 314.576 54.6646C312.894 54.6646 311.888 55.9998 311.888 57.8552C311.888 59.6932 312.894 61.0458 314.576 61.0458ZM248.647 82.0862H247.346V81.1325C246.653 81.8954 245.699 82.2943 244.572 82.2943C243.15 82.2943 241.642 81.3406 241.642 79.5198C241.642 77.6471 243.15 76.7628 244.572 76.7628C245.716 76.7628 246.67 77.1269 247.346 77.9072V76.3986C247.346 75.2715 246.445 74.6299 245.231 74.6299C244.225 74.6299 243.41 74.9941 242.665 75.7917L242.058 74.89C242.959 73.9537 244.034 73.5028 245.404 73.5028C247.173 73.5028 248.647 74.3005 248.647 76.3293V82.0862ZM245.04 81.3579C245.959 81.3579 246.844 81.0111 247.346 80.3175V78.7395C246.844 78.0459 245.959 77.6991 245.04 77.6991C243.826 77.6991 242.977 78.4621 242.977 79.5372C242.977 80.5949 243.826 81.3579 245.04 81.3579ZM258.207 82.0862H256.907V76.6067C256.907 75.1328 256.161 74.6646 255.034 74.6646C254.011 74.6646 253.04 75.2889 252.554 75.9651V82.0862H251.254V73.7109H252.554V74.9247C253.144 74.2311 254.288 73.5028 255.537 73.5028C257.288 73.5028 258.207 74.3872 258.207 76.2079V82.0862ZM268.174 82.0862H266.874V80.8377C266.249 81.6874 265.226 82.2943 264.047 82.2943C261.862 82.2943 260.319 80.6296 260.319 77.9072C260.319 75.2368 261.845 73.5028 264.047 73.5028C265.174 73.5028 266.197 74.0577 266.874 74.9767V70.5203H268.174V82.0862ZM264.359 81.1325C265.4 81.1325 266.405 80.5429 266.874 79.8146V76.0171C266.405 75.2889 265.4 74.6646 264.359 74.6646C262.677 74.6646 261.671 76.0518 261.671 77.9072C261.671 79.7626 262.677 81.1325 264.359 81.1325ZM280.78 82.2943C277.451 82.2943 274.833 79.8666 274.833 76.3119C274.833 72.7572 277.451 70.3296 280.78 70.3296C282.827 70.3296 284.248 71.318 285.167 72.6185L283.954 73.2948C283.295 72.3237 282.098 71.6128 280.78 71.6128C278.249 71.6128 276.324 73.5549 276.324 76.3119C276.324 79.0517 278.249 81.0111 280.78 81.0111C282.098 81.0111 283.295 80.3175 283.954 79.3291L285.185 80.0054C284.214 81.3232 282.827 82.2943 280.78 82.2943ZM293.504 82.0862H292.204V81.1325C291.51 81.8954 290.556 82.2943 289.429 82.2943C288.007 82.2943 286.499 81.3406 286.499 79.5198C286.499 77.6471 288.007 76.7628 289.429 76.7628C290.574 76.7628 291.527 77.1269 292.204 77.9072V76.3986C292.204 75.2715 291.302 74.6299 290.088 74.6299C289.083 74.6299 288.268 74.9941 287.522 75.7917L286.915 74.89C287.817 73.9537 288.892 73.5028 290.262 73.5028C292.03 73.5028 293.504 74.3005 293.504 76.3293V82.0862ZM289.897 81.3579C290.817 81.3579 291.701 81.0111 292.204 80.3175V78.7395C291.701 78.0459 290.817 77.6991 289.897 77.6991C288.684 77.6991 287.834 78.4621 287.834 79.5372C287.834 80.5949 288.684 81.3579 289.897 81.3579ZM297.412 82.0862H296.111V73.7109H297.412V75.0634C298.088 74.1791 299.059 73.5375 300.203 73.5375V74.8727C300.047 74.838 299.891 74.8207 299.683 74.8207C298.886 74.8207 297.793 75.4796 297.412 76.1559V82.0862ZM305.615 82.2943C303.135 82.2943 301.349 80.5082 301.349 77.8899C301.349 75.4623 303.083 73.5028 305.476 73.5028C308.008 73.5028 309.499 75.4796 309.499 77.9939V78.3234H302.719C302.823 79.9013 303.933 81.2192 305.736 81.2192C306.69 81.2192 307.661 80.8377 308.32 80.1614L308.944 81.0111C308.112 81.8434 306.985 82.2943 305.615 82.2943ZM308.216 77.3697C308.199 76.1212 307.366 74.5779 305.459 74.5779C303.673 74.5779 302.788 76.0865 302.719 77.3697H308.216ZM233.231 103.294C229.901 103.294 227.283 100.867 227.283 97.3119C227.283 93.7572 229.901 91.3296 233.231 91.3296C235.277 91.3296 236.699 92.318 237.618 93.6185L236.404 94.2948C235.745 93.3237 234.548 92.6128 233.231 92.6128C230.699 92.6128 228.774 94.5549 228.774 97.3119C228.774 100.052 230.699 102.011 233.231 102.011C234.548 102.011 235.745 101.317 236.404 100.329L237.635 101.005C236.664 102.323 235.277 103.294 233.231 103.294ZM243.076 103.294C240.527 103.294 238.932 101.317 238.932 98.8899C238.932 96.4623 240.527 94.5028 243.076 94.5028C245.625 94.5028 247.22 96.4623 247.22 98.8899C247.22 101.317 245.625 103.294 243.076 103.294ZM243.076 102.132C244.862 102.132 245.85 100.607 245.85 98.8899C245.85 97.1906 244.862 95.6646 243.076 95.6646C241.29 95.6646 240.284 97.1906 240.284 98.8899C240.284 100.607 241.29 102.132 243.076 102.132ZM252.999 103.294C250.45 103.294 248.855 101.317 248.855 98.8899C248.855 96.4623 250.45 94.5028 252.999 94.5028C255.548 94.5028 257.143 96.4623 257.143 98.8899C257.143 101.317 255.548 103.294 252.999 103.294ZM252.999 102.132C254.785 102.132 255.774 100.607 255.774 98.8899C255.774 97.1906 254.785 95.6646 252.999 95.6646C251.213 95.6646 250.207 97.1906 250.207 98.8899C250.207 100.607 251.213 102.132 252.999 102.132ZM260.564 103.086H259.264V94.7109H260.564V96.0634C261.24 95.1791 262.211 94.5375 263.356 94.5375V95.8727C263.2 95.838 263.044 95.8207 262.836 95.8207C262.038 95.8207 260.945 96.4796 260.564 97.1559V103.086ZM272.357 103.086H271.056V101.838C270.432 102.687 269.409 103.294 268.23 103.294C266.045 103.294 264.502 101.63 264.502 98.9072C264.502 96.2368 266.027 94.5028 268.23 94.5028C269.357 94.5028 270.38 95.0577 271.056 95.9767V91.5203H272.357V103.086ZM268.542 102.132C269.582 102.132 270.588 101.543 271.056 100.815V97.0171C270.588 96.2889 269.582 95.6646 268.542 95.6646C266.86 95.6646 265.854 97.0518 265.854 98.9072C265.854 100.763 266.86 102.132 268.542 102.132ZM275.603 93.5145C275.134 93.5145 274.736 93.133 274.736 92.6474C274.736 92.1619 275.134 91.7631 275.603 91.7631C276.088 91.7631 276.487 92.1619 276.487 92.6474C276.487 93.133 276.088 93.5145 275.603 93.5145ZM276.262 103.086H274.961V94.7109H276.262V103.086ZM285.809 103.086H284.509V97.6067C284.509 96.1328 283.763 95.6646 282.636 95.6646C281.613 95.6646 280.642 96.2889 280.156 96.9651V103.086H278.856V94.7109H280.156V95.9247C280.746 95.2311 281.89 94.5028 283.139 94.5028C284.89 94.5028 285.809 95.3872 285.809 97.2079V103.086ZM294.944 103.086H293.643V102.132C292.949 102.895 291.996 103.294 290.869 103.294C289.447 103.294 287.938 102.341 287.938 100.52C287.938 98.6471 289.447 97.7628 290.869 97.7628C292.013 97.7628 292.967 98.1269 293.643 98.9072V97.3986C293.643 96.2715 292.741 95.6299 291.528 95.6299C290.522 95.6299 289.707 95.9941 288.961 96.7917L288.354 95.89C289.256 94.9537 290.331 94.5028 291.701 94.5028C293.47 94.5028 294.944 95.3005 294.944 97.3293V103.086ZM291.337 102.358C292.256 102.358 293.14 102.011 293.643 101.317V99.7395C293.14 99.0459 292.256 98.6991 291.337 98.6991C290.123 98.6991 289.273 99.4621 289.273 100.537C289.273 101.595 290.123 102.358 291.337 102.358ZM299.666 103.294C298.435 103.294 297.811 102.583 297.811 101.335V95.8554H296.423V94.7109H297.811V92.422H299.111V94.7109H300.811V95.8554H299.111V101.057C299.111 101.682 299.389 102.132 299.961 102.132C300.325 102.132 300.672 101.976 300.845 101.786L301.227 102.757C300.897 103.069 300.429 103.294 299.666 103.294ZM303.289 93.5145C302.821 93.5145 302.422 93.133 302.422 92.6474C302.422 92.1619 302.821 91.7631 303.289 91.7631C303.775 91.7631 304.174 92.1619 304.174 92.6474C304.174 93.133 303.775 93.5145 303.289 93.5145ZM303.948 103.086H302.648V94.7109H303.948V103.086ZM310.201 103.294C307.652 103.294 306.057 101.317 306.057 98.8899C306.057 96.4623 307.652 94.5028 310.201 94.5028C312.75 94.5028 314.345 96.4623 314.345 98.8899C314.345 101.317 312.75 103.294 310.201 103.294ZM310.201 102.132C311.987 102.132 312.976 100.607 312.976 98.8899C312.976 97.1906 311.987 95.6646 310.201 95.6646C308.415 95.6646 307.409 97.1906 307.409 98.8899C307.409 100.607 308.415 102.132 310.201 102.132ZM323.419 103.086H322.118V97.6067C322.118 96.1328 321.373 95.6646 320.246 95.6646C319.223 95.6646 318.252 96.2889 317.766 96.9651V103.086H316.465V94.7109H317.766V95.9247C318.356 95.2311 319.5 94.5028 320.748 94.5028C322.5 94.5028 323.419 95.3872 323.419 97.2079V103.086Z" fill="#211E1C"></path><circle cx="276.334" cy="472.018" r="72.3949" fill="#D9DEEF"></circle><path d="M245.962 457.305H244.522V445.739H249.169C251.493 445.739 252.794 447.334 252.794 449.224C252.794 451.115 251.458 452.71 249.169 452.71H245.962V457.305ZM248.996 451.427C250.366 451.427 251.302 450.525 251.302 449.224C251.302 447.924 250.366 447.022 248.996 447.022H245.962V451.427H248.996ZM258.086 457.513C255.537 457.513 253.942 455.536 253.942 453.109C253.942 450.681 255.537 448.722 258.086 448.722C260.635 448.722 262.23 450.681 262.23 453.109C262.23 455.536 260.635 457.513 258.086 457.513ZM258.086 456.351C259.872 456.351 260.861 454.825 260.861 453.109C260.861 451.409 259.872 449.883 258.086 449.883C256.3 449.883 255.294 451.409 255.294 453.109C255.294 454.825 256.3 456.351 258.086 456.351ZM266.466 457.513C265.235 457.513 264.611 456.802 264.611 455.554V450.074H263.223V448.93H264.611V446.641H265.911V448.93H267.61V450.074H265.911V455.276C265.911 455.9 266.189 456.351 266.761 456.351C267.125 456.351 267.472 456.195 267.645 456.004L268.027 456.975C267.697 457.288 267.229 457.513 266.466 457.513ZM273.228 457.513C270.748 457.513 268.962 455.727 268.962 453.109C268.962 450.681 270.696 448.722 273.089 448.722C275.621 448.722 277.112 450.698 277.112 453.213V453.542H270.332C270.436 455.12 271.546 456.438 273.349 456.438C274.303 456.438 275.274 456.056 275.933 455.38L276.557 456.23C275.725 457.062 274.598 457.513 273.228 457.513ZM275.829 452.588C275.811 451.34 274.979 449.797 273.072 449.797C271.286 449.797 270.401 451.305 270.332 452.588H275.829ZM286.172 457.305H284.871V451.825C284.871 450.352 284.125 449.883 282.998 449.883C281.975 449.883 281.004 450.508 280.519 451.184V457.305H279.218V448.93H280.519V450.143C281.108 449.45 282.253 448.722 283.501 448.722C285.253 448.722 286.172 449.606 286.172 451.427V457.305ZM290.884 457.513C289.653 457.513 289.029 456.802 289.029 455.554V450.074H287.642V448.93H289.029V446.641H290.329V448.93H292.029V450.074H290.329V455.276C290.329 455.9 290.607 456.351 291.179 456.351C291.543 456.351 291.89 456.195 292.063 456.004L292.445 456.975C292.115 457.288 291.647 457.513 290.884 457.513ZM294.507 447.733C294.039 447.733 293.64 447.352 293.64 446.866C293.64 446.381 294.039 445.982 294.507 445.982C294.993 445.982 295.392 446.381 295.392 446.866C295.392 447.352 294.993 447.733 294.507 447.733ZM295.166 457.305H293.866V448.93H295.166V457.305ZM304.298 457.305H302.997V456.351C302.304 457.114 301.35 457.513 300.223 457.513C298.801 457.513 297.292 456.559 297.292 454.739C297.292 452.866 298.801 451.982 300.223 451.982C301.367 451.982 302.321 452.346 302.997 453.126V451.617C302.997 450.49 302.096 449.849 300.882 449.849C299.876 449.849 299.061 450.213 298.316 451.01L297.709 450.109C298.61 449.172 299.685 448.722 301.055 448.722C302.824 448.722 304.298 449.519 304.298 451.548V457.305ZM300.691 456.577C301.61 456.577 302.494 456.23 302.997 455.536V453.958C302.494 453.265 301.61 452.918 300.691 452.918C299.477 452.918 298.628 453.681 298.628 454.756C298.628 455.814 299.477 456.577 300.691 456.577ZM308.205 457.305H306.905V445.739H308.205V457.305ZM258.963 478.305H253.692V466.739H258.842C260.853 466.739 262.085 467.953 262.085 469.687C262.085 471.143 261.113 472.115 260.056 472.34C261.287 472.531 262.31 473.797 262.31 475.184C262.31 477.039 261.079 478.305 258.963 478.305ZM258.599 471.75C259.9 471.75 260.593 470.953 260.593 469.895C260.593 468.855 259.9 468.022 258.599 468.022H255.131V471.75H258.599ZM258.669 477.022C260.021 477.022 260.819 476.259 260.819 475.028C260.819 473.97 260.09 473.034 258.669 473.034H255.131V477.022H258.669ZM268.204 478.513C265.655 478.513 264.06 476.536 264.06 474.109C264.06 471.681 265.655 469.722 268.204 469.722C270.753 469.722 272.348 471.681 272.348 474.109C272.348 476.536 270.753 478.513 268.204 478.513ZM268.204 477.351C269.99 477.351 270.978 475.825 270.978 474.109C270.978 472.409 269.99 470.883 268.204 470.883C266.418 470.883 265.412 472.409 265.412 474.109C265.412 475.825 266.418 477.351 268.204 477.351ZM281.422 478.305H280.121V472.825C280.121 471.352 279.376 470.883 278.248 470.883C277.225 470.883 276.254 471.508 275.769 472.184V478.305H274.468V469.93H275.769V471.143C276.358 470.45 277.503 469.722 278.751 469.722C280.503 469.722 281.422 470.606 281.422 472.427V478.305ZM290.972 478.305H289.672V477.126C289.03 477.854 287.938 478.513 286.689 478.513C284.938 478.513 284.019 477.663 284.019 475.843V469.93H285.319V475.444C285.319 476.918 286.065 477.351 287.192 477.351C288.215 477.351 289.186 476.762 289.672 476.085V469.93H290.972V478.305ZM296.223 478.513C294.853 478.513 293.691 478.097 292.841 477.195L293.518 476.259C294.072 476.9 295.13 477.455 296.275 477.455C297.558 477.455 298.251 476.848 298.251 476.016C298.251 473.987 293.067 475.236 293.067 472.132C293.067 470.831 294.194 469.722 296.188 469.722C297.61 469.722 298.616 470.259 299.292 470.935L298.685 471.837C298.182 471.23 297.263 470.779 296.188 470.779C295.043 470.779 294.333 471.352 294.333 472.097C294.333 473.935 299.517 472.721 299.517 475.981C299.517 477.386 298.39 478.513 296.223 478.513ZM232.271 498.305H230.831V486.739H235.479C237.802 486.739 239.103 488.334 239.103 490.224C239.103 492.115 237.767 493.71 235.479 493.71H232.271V498.305ZM235.305 492.427C236.675 492.427 237.611 491.525 237.611 490.224C237.611 488.924 236.675 488.022 235.305 488.022H232.271V492.427H235.305ZM247.155 498.305H245.855V497.351C245.161 498.114 244.207 498.513 243.08 498.513C241.658 498.513 240.15 497.559 240.15 495.739C240.15 493.866 241.658 492.982 243.08 492.982C244.225 492.982 245.178 493.346 245.855 494.126V492.617C245.855 491.49 244.953 490.849 243.739 490.849C242.733 490.849 241.918 491.213 241.173 492.01L240.566 491.109C241.468 490.172 242.543 489.722 243.913 489.722C245.681 489.722 247.155 490.519 247.155 492.548V498.305ZM243.548 497.577C244.467 497.577 245.352 497.23 245.855 496.536V494.958C245.352 494.265 244.467 493.918 243.548 493.918C242.335 493.918 241.485 494.681 241.485 495.756C241.485 496.814 242.335 497.577 243.548 497.577ZM251.063 498.305H249.762V489.93H251.063V491.282C251.739 490.398 252.71 489.756 253.854 489.756V491.091C253.698 491.057 253.542 491.039 253.334 491.039C252.537 491.039 251.444 491.698 251.063 492.375V498.305ZM257.601 498.513C256.37 498.513 255.746 497.802 255.746 496.554V491.074H254.359V489.93H255.746V487.641H257.046V489.93H258.746V491.074H257.046V496.276C257.046 496.9 257.324 497.351 257.896 497.351C258.26 497.351 258.607 497.195 258.78 497.004L259.162 497.975C258.832 498.288 258.364 498.513 257.601 498.513ZM261.224 488.733C260.756 488.733 260.357 488.352 260.357 487.866C260.357 487.381 260.756 486.982 261.224 486.982C261.71 486.982 262.109 487.381 262.109 487.866C262.109 488.352 261.71 488.733 261.224 488.733ZM261.883 498.305H260.583V489.93H261.883V498.305ZM268.171 498.513C265.674 498.513 263.992 496.606 263.992 494.109C263.992 491.629 265.674 489.722 268.171 489.722C269.697 489.722 270.599 490.346 271.24 491.178L270.373 491.976C269.818 491.213 269.107 490.883 268.24 490.883C266.454 490.883 265.344 492.253 265.344 494.109C265.344 495.964 266.454 497.351 268.24 497.351C269.107 497.351 269.818 497.004 270.373 496.259L271.24 497.056C270.599 497.889 269.697 498.513 268.171 498.513ZM273.704 488.733C273.236 488.733 272.837 488.352 272.837 487.866C272.837 487.381 273.236 486.982 273.704 486.982C274.19 486.982 274.589 487.381 274.589 487.866C274.589 488.352 274.19 488.733 273.704 488.733ZM274.363 498.305H273.063V489.93H274.363V498.305ZM281.085 498.513C279.94 498.513 278.934 497.975 278.258 497.039V501.496H276.958V489.93H278.258V491.178C278.865 490.328 279.905 489.722 281.085 489.722C283.287 489.722 284.813 491.386 284.813 494.109C284.813 496.814 283.287 498.513 281.085 498.513ZM280.755 497.351C282.437 497.351 283.443 495.964 283.443 494.109C283.443 492.253 282.437 490.883 280.755 490.883C279.732 490.883 278.709 491.49 278.258 492.219V495.999C278.709 496.727 279.732 497.351 280.755 497.351ZM293.418 498.305H292.117V497.351C291.424 498.114 290.47 498.513 289.343 498.513C287.921 498.513 286.413 497.559 286.413 495.739C286.413 493.866 287.921 492.982 289.343 492.982C290.487 492.982 291.441 493.346 292.117 494.126V492.617C292.117 491.49 291.216 490.849 290.002 490.849C288.996 490.849 288.181 491.213 287.436 492.01L286.829 491.109C287.73 490.172 288.805 489.722 290.175 489.722C291.944 489.722 293.418 490.519 293.418 492.548V498.305ZM289.811 497.577C290.73 497.577 291.615 497.23 292.117 496.536V494.958C291.615 494.265 290.73 493.918 289.811 493.918C288.597 493.918 287.748 494.681 287.748 495.756C287.748 496.814 288.597 497.577 289.811 497.577ZM298.14 498.513C296.909 498.513 296.285 497.802 296.285 496.554V491.074H294.898V489.93H296.285V487.641H297.586V489.93H299.285V491.074H297.586V496.276C297.586 496.9 297.863 497.351 298.435 497.351C298.799 497.351 299.146 497.195 299.32 497.004L299.701 497.975C299.372 498.288 298.903 498.513 298.14 498.513ZM301.764 488.733C301.295 488.733 300.897 488.352 300.897 487.866C300.897 487.381 301.295 486.982 301.764 486.982C302.249 486.982 302.648 487.381 302.648 487.866C302.648 488.352 302.249 488.733 301.764 488.733ZM302.422 498.305H301.122V489.93H302.422V498.305ZM308.675 498.513C306.126 498.513 304.531 496.536 304.531 494.109C304.531 491.681 306.126 489.722 308.675 489.722C311.224 489.722 312.82 491.681 312.82 494.109C312.82 496.536 311.224 498.513 308.675 498.513ZM308.675 497.351C310.461 497.351 311.45 495.825 311.45 494.109C311.45 492.409 310.461 490.883 308.675 490.883C306.889 490.883 305.884 492.409 305.884 494.109C305.884 495.825 306.889 497.351 308.675 497.351ZM321.893 498.305H320.593V492.825C320.593 491.352 319.847 490.883 318.72 490.883C317.697 490.883 316.726 491.508 316.24 492.184V498.305H314.94V489.93H316.24V491.143C316.83 490.45 317.974 489.722 319.223 489.722C320.974 489.722 321.893 490.606 321.893 492.427V498.305Z" fill="#211E1C"></path><circle cx="481.606" cy="274.018" r="72.3949" fill="#D9DEEF"></circle><path d="M470.749 259.305H463.171V247.739H470.749V249.022H464.611V252.75H470.628V254.034H464.611V258.022H470.749V259.305ZM484.367 259.305H482.928V249.785L478.991 259.305H478.402L474.483 249.785V259.305H473.044V247.739H475.107L478.697 256.444L482.303 247.739H484.367V259.305ZM495.457 259.305H493.758L490.81 254.71H488.504V259.305H487.065V247.739H491.712C493.828 247.739 495.336 249.092 495.336 251.224C495.336 253.305 493.914 254.45 492.336 254.588L495.457 259.305ZM491.539 253.444C492.908 253.444 493.845 252.525 493.845 251.224C493.845 249.924 492.908 249.022 491.539 249.022H488.504V253.444H491.539ZM497.285 259.652H496.262L500.372 247.392H501.395L497.285 259.652ZM457.882 280.305H456.182L453.234 275.71H450.928V280.305H449.489V268.739H454.136C456.252 268.739 457.76 270.092 457.76 272.224C457.76 274.305 456.338 275.45 454.76 275.588L457.882 280.305ZM453.963 274.444C455.333 274.444 456.269 273.525 456.269 272.224C456.269 270.924 455.333 270.022 453.963 270.022H450.928V274.444H453.963ZM463.242 280.513C460.762 280.513 458.976 278.727 458.976 276.109C458.976 273.681 460.71 271.722 463.103 271.722C465.635 271.722 467.126 273.698 467.126 276.213V276.542H460.346C460.45 278.12 461.56 279.438 463.363 279.438C464.317 279.438 465.288 279.056 465.947 278.38L466.571 279.23C465.739 280.062 464.612 280.513 463.242 280.513ZM465.843 275.588C465.826 274.34 464.993 272.797 463.086 272.797C461.3 272.797 460.415 274.305 460.346 275.588H465.843ZM472.891 280.305H471.469L467.984 271.93H469.389L472.18 278.796L474.955 271.93H476.377L472.891 280.305ZM481.513 280.513C479.034 280.513 477.248 278.727 477.248 276.109C477.248 273.681 478.982 271.722 481.375 271.722C483.906 271.722 485.398 273.698 485.398 276.213V276.542H478.618C478.722 278.12 479.831 279.438 481.635 279.438C482.588 279.438 483.559 279.056 484.218 278.38L484.843 279.23C484.01 280.062 482.883 280.513 481.513 280.513ZM484.114 275.588C484.097 274.34 483.265 272.797 481.357 272.797C479.571 272.797 478.687 274.305 478.618 275.588H484.114ZM494.457 280.305H493.157V274.825C493.157 273.352 492.411 272.883 491.284 272.883C490.261 272.883 489.29 273.508 488.804 274.184V280.305H487.504V271.93H488.804V273.143C489.394 272.45 490.538 271.722 491.787 271.722C493.538 271.722 494.457 272.606 494.457 274.427V280.305ZM504.008 280.305H502.707V279.126C502.066 279.854 500.973 280.513 499.725 280.513C497.974 280.513 497.055 279.663 497.055 277.843V271.93H498.355V277.444C498.355 278.918 499.101 279.351 500.228 279.351C501.251 279.351 502.222 278.762 502.707 278.085V271.93H504.008V280.305ZM510.385 280.513C507.906 280.513 506.12 278.727 506.12 276.109C506.12 273.681 507.854 271.722 510.247 271.722C512.778 271.722 514.269 273.698 514.269 276.213V276.542H507.489C507.594 278.12 508.703 279.438 510.507 279.438C511.46 279.438 512.431 279.056 513.09 278.38L513.715 279.23C512.882 280.062 511.755 280.513 510.385 280.513ZM512.986 275.588C512.969 274.34 512.137 272.797 510.229 272.797C508.443 272.797 507.559 274.305 507.489 275.588H512.986ZM467.203 300.513C463.874 300.513 461.255 298.085 461.255 294.531C461.255 290.976 463.874 288.548 467.203 288.548C469.249 288.548 470.671 289.537 471.59 290.837L470.376 291.514C469.717 290.542 468.521 289.832 467.203 289.832C464.671 289.832 462.747 291.774 462.747 294.531C462.747 297.27 464.671 299.23 467.203 299.23C468.521 299.23 469.717 298.536 470.376 297.548L471.607 298.224C470.636 299.542 469.249 300.513 467.203 300.513ZM472.922 303.582L473.13 302.403C473.32 302.49 473.632 302.542 473.841 302.542C474.413 302.542 474.794 302.351 475.089 301.657L475.644 300.392L472.141 291.93H473.546L476.338 298.796L479.112 291.93H480.534L476.338 302.004C475.835 303.218 474.985 303.686 473.875 303.704C473.598 303.704 473.164 303.652 472.922 303.582ZM485.584 300.513C483.087 300.513 481.405 298.606 481.405 296.109C481.405 293.629 483.087 291.722 485.584 291.722C487.11 291.722 488.011 292.346 488.653 293.178L487.786 293.976C487.231 293.213 486.52 292.883 485.653 292.883C483.867 292.883 482.757 294.253 482.757 296.109C482.757 297.964 483.867 299.351 485.653 299.351C486.52 299.351 487.231 299.004 487.786 298.259L488.653 299.056C488.011 299.889 487.11 300.513 485.584 300.513ZM491.776 300.305H490.476V288.739H491.776V300.305ZM498.151 300.513C495.671 300.513 493.885 298.727 493.885 296.109C493.885 293.681 495.619 291.722 498.012 291.722C500.544 291.722 502.035 293.698 502.035 296.213V296.542H495.255C495.359 298.12 496.469 299.438 498.272 299.438C499.226 299.438 500.197 299.056 500.856 298.38L501.48 299.23C500.648 300.062 499.521 300.513 498.151 300.513ZM500.752 295.588C500.734 294.34 499.902 292.797 497.995 292.797C496.209 292.797 495.324 294.305 495.255 295.588H500.752Z" fill="#211E1C"></path><circle cx="419.334" cy="134.018" r="72.3949" fill="#D9DEEF"></circle><path d="M391.055 128.08H389.356L386.408 123.485H384.102V128.08H382.662V116.514H387.31C389.425 116.514 390.934 117.867 390.934 120C390.934 122.08 389.512 123.225 387.934 123.364L391.055 128.08ZM387.136 122.219C388.506 122.219 389.442 121.3 389.442 120C389.442 118.699 388.506 117.797 387.136 117.797H384.102V122.219H387.136ZM396.415 128.288C393.936 128.288 392.15 126.502 392.15 123.884C392.15 121.456 393.884 119.497 396.277 119.497C398.808 119.497 400.299 121.474 400.299 123.988V124.317H393.519C393.623 125.895 394.733 127.213 396.537 127.213C397.49 127.213 398.461 126.832 399.12 126.155L399.745 127.005C398.912 127.837 397.785 128.288 396.415 128.288ZM399.016 123.364C398.999 122.115 398.167 120.572 396.259 120.572C394.473 120.572 393.589 122.08 393.519 123.364H399.016ZM406.099 128.288C403.602 128.288 401.92 126.381 401.92 123.884C401.92 121.404 403.602 119.497 406.099 119.497C407.625 119.497 408.527 120.121 409.168 120.953L408.301 121.751C407.747 120.988 407.036 120.659 406.169 120.659C404.383 120.659 403.273 122.028 403.273 123.884C403.273 125.739 404.383 127.126 406.169 127.126C407.036 127.126 407.747 126.78 408.301 126.034L409.168 126.832C408.527 127.664 407.625 128.288 406.099 128.288ZM412.292 128.08H410.991V119.705H412.292V121.057C412.968 120.173 413.939 119.531 415.083 119.531V120.867C414.927 120.832 414.771 120.815 414.563 120.815C413.766 120.815 412.673 121.474 412.292 122.15V128.08ZM423.668 128.08H422.368V126.901C421.726 127.629 420.634 128.288 419.385 128.288C417.634 128.288 416.715 127.438 416.715 125.618V119.705H418.015V125.219C418.015 126.693 418.761 127.126 419.888 127.126C420.911 127.126 421.882 126.537 422.368 125.861V119.705H423.668V128.08ZM426.907 118.508C426.439 118.508 426.04 118.127 426.04 117.641C426.04 117.156 426.439 116.757 426.907 116.757C427.393 116.757 427.791 117.156 427.791 117.641C427.791 118.127 427.393 118.508 426.907 118.508ZM427.566 128.08H426.265V119.705H427.566V128.08ZM432.276 128.288C431.044 128.288 430.42 127.577 430.42 126.329V120.849H429.033V119.705H430.42V117.416H431.721V119.705H433.42V120.849H431.721V126.051C431.721 126.676 431.998 127.126 432.57 127.126C432.935 127.126 433.281 126.97 433.455 126.78L433.836 127.751C433.507 128.063 433.039 128.288 432.276 128.288ZM435.899 118.508C435.431 118.508 435.032 118.127 435.032 117.641C435.032 117.156 435.431 116.757 435.899 116.757C436.384 116.757 436.783 117.156 436.783 117.641C436.783 118.127 436.384 118.508 435.899 118.508ZM436.558 128.08H435.257V119.705H436.558V128.08ZM446.105 128.08H444.805V122.601C444.805 121.127 444.059 120.659 442.932 120.659C441.909 120.659 440.938 121.283 440.452 121.959V128.08H439.152V119.705H440.452V120.919C441.042 120.225 442.186 119.497 443.435 119.497C445.186 119.497 446.105 120.381 446.105 122.202V128.08ZM452.067 131.479C450.645 131.479 449.674 131.201 448.685 130.23L449.344 129.259C450.038 130.092 450.87 130.404 452.067 130.404C453.454 130.404 454.754 129.727 454.754 127.889V126.693C454.147 127.543 453.124 128.184 451.945 128.184C449.76 128.184 448.217 126.554 448.217 123.849C448.217 121.161 449.743 119.497 451.945 119.497C453.072 119.497 454.078 120.052 454.754 120.971V119.705H456.055V127.837C456.055 130.612 454.113 131.479 452.067 131.479ZM452.257 127.04C453.298 127.04 454.303 126.398 454.754 125.67V122.011C454.303 121.283 453.298 120.659 452.257 120.659C450.575 120.659 449.57 121.994 449.57 123.849C449.57 125.687 450.575 127.04 452.257 127.04ZM393.497 149.08H391.694C391.347 148.785 390.896 148.352 390.428 147.866C389.578 148.716 388.503 149.288 387.099 149.288C385.105 149.288 383.492 148.213 383.492 146.063C383.492 144.26 384.706 143.341 386.041 142.63C385.521 141.745 385.157 140.844 385.157 140.029C385.157 138.485 386.44 137.341 388.07 137.341C389.578 137.341 390.688 138.156 390.688 139.612C390.688 141.346 389.214 142.109 387.74 142.872C388.209 143.514 388.694 144.086 389.076 144.52C389.544 145.075 389.995 145.577 390.445 146.063C391.087 145.109 391.486 144.069 391.694 143.427L392.821 143.913C392.422 144.832 391.937 145.924 391.243 146.895C391.919 147.606 392.648 148.3 393.497 149.08ZM387.22 148.213C388.174 148.213 388.989 147.728 389.648 147.069C388.989 146.375 388.382 145.716 388.052 145.317C387.567 144.762 387.064 144.138 386.596 143.479C385.642 144.069 384.897 144.78 384.897 145.976C384.897 147.415 386.006 148.213 387.22 148.213ZM386.509 140.046C386.509 140.653 386.804 141.364 387.203 142.04C388.434 141.433 389.492 140.809 389.492 139.664C389.492 138.815 388.902 138.364 388.122 138.364C387.237 138.364 386.509 139.058 386.509 140.046ZM403.545 149.288C401.533 149.288 400.059 148.525 399.106 147.45L399.955 146.358C400.718 147.207 401.967 148.005 403.597 148.005C405.66 148.005 406.319 146.895 406.319 146.011C406.319 143.028 399.47 144.676 399.47 140.549C399.47 138.641 401.169 137.341 403.441 137.341C405.209 137.341 406.579 137.93 407.55 138.953L406.683 140.011C405.816 139.058 404.602 138.624 403.337 138.624C401.949 138.624 400.961 139.37 400.961 140.462C400.961 143.063 407.81 141.572 407.81 145.89C407.81 147.571 406.666 149.288 403.545 149.288ZM411.735 149.288C410.504 149.288 409.88 148.577 409.88 147.329V141.849H408.492V140.705H409.88V138.416H411.18V140.705H412.88V141.849H411.18V147.051C411.18 147.676 411.458 148.126 412.03 148.126C412.394 148.126 412.741 147.97 412.914 147.78L413.296 148.751C412.966 149.063 412.498 149.288 411.735 149.288ZM421.254 149.08H419.953V148.126C419.26 148.889 418.306 149.288 417.179 149.288C415.757 149.288 414.248 148.334 414.248 146.514C414.248 144.641 415.757 143.757 417.179 143.757C418.323 143.757 419.277 144.121 419.953 144.901V143.393C419.953 142.265 419.052 141.624 417.838 141.624C416.832 141.624 416.017 141.988 415.272 142.786L414.665 141.884C415.566 140.948 416.641 140.497 418.011 140.497C419.78 140.497 421.254 141.294 421.254 143.323V149.08ZM417.647 148.352C418.566 148.352 419.45 148.005 419.953 147.311V145.733C419.45 145.04 418.566 144.693 417.647 144.693C416.433 144.693 415.584 145.456 415.584 146.531C415.584 147.589 416.433 148.352 417.647 148.352ZM430.433 149.08H429.132V141.849H427.745V140.705H429.132V140.063C429.132 138.329 430.103 137.341 431.56 137.341C432.045 137.341 432.496 137.428 432.826 137.636L432.496 138.624C432.305 138.503 432.08 138.416 431.751 138.416C430.901 138.416 430.433 139.005 430.433 140.063V140.705H432.132V141.849H430.433V149.08ZM434.334 139.508C433.866 139.508 433.467 139.127 433.467 138.641C433.467 138.156 433.866 137.757 434.334 137.757C434.82 137.757 435.219 138.156 435.219 138.641C435.219 139.127 434.82 139.508 434.334 139.508ZM434.993 149.08H433.693V140.705H434.993V149.08ZM425.525 149.08H424.225V141.849H422.838V140.705H424.225V140.063C424.225 138.347 425.161 137.341 426.653 137.341C427.311 137.341 427.901 137.497 428.421 137.982L427.884 138.832C427.606 138.589 427.277 138.416 426.843 138.416C425.994 138.416 425.525 139.005 425.525 140.063V140.705H427.225V141.849H425.525V149.08ZM444.547 149.08H443.247V143.601C443.247 142.127 442.501 141.659 441.374 141.659C440.351 141.659 439.38 142.283 438.895 142.959V149.08H437.594V140.705H438.895V141.919C439.484 141.225 440.629 140.497 441.877 140.497C443.628 140.497 444.547 141.381 444.547 143.202V149.08ZM450.509 152.479C449.087 152.479 448.116 152.201 447.127 151.23L447.786 150.259C448.48 151.092 449.312 151.404 450.509 151.404C451.896 151.404 453.196 150.727 453.196 148.889V147.693C452.589 148.543 451.566 149.184 450.387 149.184C448.202 149.184 446.659 147.554 446.659 144.849C446.659 142.161 448.185 140.497 450.387 140.497C451.514 140.497 452.52 141.052 453.196 141.971V140.705H454.497V148.837C454.497 151.612 452.555 152.479 450.509 152.479ZM450.699 148.04C451.74 148.04 452.745 147.398 453.196 146.67V143.011C452.745 142.283 451.74 141.659 450.699 141.659C449.017 141.659 448.012 142.994 448.012 144.849C448.012 146.687 449.017 148.04 450.699 148.04Z" fill="#211E1C"></path><circle cx="132.334" cy="131.018" r="72.3949" fill="#D9DEEF"></circle><path d="M109.666 138.243H108.227V126.677H112.874C115.198 126.677 116.498 128.272 116.498 130.162C116.498 132.052 115.163 133.648 112.874 133.648H109.666V138.243ZM112.701 132.364C114.071 132.364 115.007 131.463 115.007 130.162C115.007 128.862 114.071 127.96 112.701 127.96H109.666V132.364H112.701ZM124.551 138.243H123.25V137.289C122.557 138.052 121.603 138.451 120.476 138.451C119.054 138.451 117.545 137.497 117.545 135.676C117.545 133.804 119.054 132.919 120.476 132.919C121.62 132.919 122.574 133.283 123.25 134.064V132.555C123.25 131.428 122.349 130.786 121.135 130.786C120.129 130.786 119.314 131.151 118.569 131.948L117.962 131.047C118.863 130.11 119.938 129.659 121.308 129.659C123.077 129.659 124.551 130.457 124.551 132.486V138.243ZM120.944 137.514C121.863 137.514 122.747 137.168 123.25 136.474V134.896C122.747 134.202 121.863 133.856 120.944 133.856C119.73 133.856 118.881 134.619 118.881 135.694C118.881 136.751 119.73 137.514 120.944 137.514ZM126.69 141.52L126.898 140.341C127.088 140.428 127.401 140.48 127.609 140.48C128.181 140.48 128.562 140.289 128.857 139.595L129.412 138.329L125.909 129.867H127.314L130.106 136.734L132.88 129.867H134.302L130.106 139.942C129.603 141.156 128.753 141.624 127.643 141.641C127.366 141.641 126.932 141.589 126.69 141.52ZM136.959 138.243H135.659V129.867H136.959V131.22C137.635 130.336 138.606 129.694 139.751 129.694V131.029C139.595 130.995 139.439 130.977 139.231 130.977C138.433 130.977 137.341 131.636 136.959 132.312V138.243ZM145.041 138.451C142.492 138.451 140.897 136.474 140.897 134.046C140.897 131.619 142.492 129.659 145.041 129.659C147.59 129.659 149.185 131.619 149.185 134.046C149.185 136.474 147.59 138.451 145.041 138.451ZM145.041 137.289C146.827 137.289 147.815 135.763 147.815 134.046C147.815 132.347 146.827 130.821 145.041 130.821C143.255 130.821 142.249 132.347 142.249 134.046C142.249 135.763 143.255 137.289 145.041 137.289ZM152.606 138.243H151.305V126.677H152.606V138.243ZM156.5 138.243H155.2V126.677H156.5V138.243Z" fill="#211E1C"></path><circle cx="421.334" cy="417.018" r="72.3949" fill="#D9DEEF"></circle><path d="M397.717 423.146H390.902V411.58H392.342V421.863H397.717V423.146ZM400.331 413.574C399.863 413.574 399.464 413.193 399.464 412.707C399.464 412.222 399.863 411.823 400.331 411.823C400.817 411.823 401.216 412.222 401.216 412.707C401.216 413.193 400.817 413.574 400.331 413.574ZM400.99 423.146H399.69V414.771H400.99V423.146ZM407.087 422.192C408.128 422.192 409.151 421.568 409.584 420.84V417.06C409.151 416.331 408.128 415.724 407.087 415.724C405.405 415.724 404.417 417.094 404.417 418.95C404.417 420.805 405.405 422.192 407.087 422.192ZM406.775 423.354C404.573 423.354 403.047 421.655 403.047 418.95C403.047 416.227 404.573 414.563 406.775 414.563C407.954 414.563 408.995 415.17 409.584 416.019V414.771H410.885V426.337H409.584V421.88C408.908 422.817 407.902 423.354 406.775 423.354ZM420.461 423.146H419.161V421.967C418.519 422.695 417.427 423.354 416.178 423.354C414.427 423.354 413.508 422.504 413.508 420.684V414.771H414.808V420.285C414.808 421.759 415.554 422.192 416.681 422.192C417.704 422.192 418.675 421.603 419.161 420.926V414.771H420.461V423.146ZM423.7 413.574C423.232 413.574 422.833 413.193 422.833 412.707C422.833 412.222 423.232 411.823 423.7 411.823C424.185 411.823 424.584 412.222 424.584 412.707C424.584 413.193 424.185 413.574 423.7 413.574ZM424.359 423.146H423.058V414.771H424.359V423.146ZM434.323 423.146H433.022V421.898C432.398 422.747 431.375 423.354 430.196 423.354C428.011 423.354 426.468 421.689 426.468 418.967C426.468 416.297 427.993 414.563 430.196 414.563C431.323 414.563 432.346 415.118 433.022 416.037V411.58H434.323V423.146ZM430.508 422.192C431.548 422.192 432.554 421.603 433.022 420.874V417.077C432.554 416.349 431.548 415.724 430.508 415.724C428.826 415.724 427.82 417.112 427.82 418.967C427.82 420.822 428.826 422.192 430.508 422.192ZM437.569 413.574C437.1 413.574 436.702 413.193 436.702 412.707C436.702 412.222 437.1 411.823 437.569 411.823C438.054 411.823 438.453 412.222 438.453 412.707C438.453 413.193 438.054 413.574 437.569 413.574ZM438.227 423.146H436.927V414.771H438.227V423.146ZM442.937 423.354C441.706 423.354 441.082 422.643 441.082 421.395V415.915H439.695V414.771H441.082V412.482H442.382V414.771H444.082V415.915H442.382V421.117C442.382 421.741 442.66 422.192 443.232 422.192C443.596 422.192 443.943 422.036 444.116 421.845L444.498 422.817C444.168 423.129 443.7 423.354 442.937 423.354ZM445.451 426.423L445.659 425.244C445.849 425.331 446.162 425.383 446.37 425.383C446.942 425.383 447.323 425.192 447.618 424.499L448.173 423.233L444.67 414.771H446.075L448.867 421.637L451.641 414.771H453.063L448.867 424.845C448.364 426.059 447.514 426.527 446.404 426.545C446.127 426.545 445.693 426.493 445.451 426.423Z" fill="#211E1C"></path><circle cx="129.334" cy="419.018" r="72.3949" fill="#D9DEEF"></circle><path d="M98.5298 416.371H97.0905V404.805H104.668V406.088H98.5298V409.816H104.547V411.099H98.5298V416.371ZM107.214 406.799C106.746 406.799 106.347 406.418 106.347 405.932C106.347 405.447 106.746 405.048 107.214 405.048C107.699 405.048 108.098 405.447 108.098 405.932C108.098 406.418 107.699 406.799 107.214 406.799ZM107.873 416.371H106.572V407.996H107.873V416.371ZM117.42 416.371H116.12V410.891C116.12 409.417 115.374 408.949 114.247 408.949C113.224 408.949 112.253 409.574 111.767 410.25V416.371H110.467V407.996H111.767V409.209C112.357 408.516 113.501 407.788 114.75 407.788C116.501 407.788 117.42 408.672 117.42 410.493V416.371ZM126.555 416.371H125.254V415.417C124.561 416.18 123.607 416.579 122.48 416.579C121.058 416.579 119.549 415.625 119.549 413.805C119.549 411.932 121.058 411.047 122.48 411.047C123.624 411.047 124.578 411.412 125.254 412.192V410.683C125.254 409.556 124.353 408.915 123.139 408.915C122.133 408.915 121.318 409.279 120.572 410.076L119.966 409.175C120.867 408.238 121.942 407.788 123.312 407.788C125.081 407.788 126.555 408.585 126.555 410.614V416.371ZM122.948 415.643C123.867 415.643 124.751 415.296 125.254 414.602V413.024C124.751 412.331 123.867 411.984 122.948 411.984C121.734 411.984 120.885 412.747 120.885 413.822C120.885 414.88 121.734 415.643 122.948 415.643ZM136.115 416.371H134.815V410.891C134.815 409.417 134.069 408.949 132.942 408.949C131.919 408.949 130.948 409.574 130.462 410.25V416.371H129.162V407.996H130.462V409.209C131.052 408.516 132.196 407.788 133.445 407.788C135.196 407.788 136.115 408.672 136.115 410.493V416.371ZM142.406 416.579C139.909 416.579 138.227 414.672 138.227 412.175C138.227 409.695 139.909 407.788 142.406 407.788C143.932 407.788 144.833 408.412 145.475 409.244L144.608 410.042C144.053 409.279 143.342 408.949 142.475 408.949C140.689 408.949 139.579 410.319 139.579 412.175C139.579 414.03 140.689 415.417 142.475 415.417C143.342 415.417 144.053 415.07 144.608 414.325L145.475 415.122C144.833 415.955 143.932 416.579 142.406 416.579ZM147.939 406.799C147.471 406.799 147.072 406.418 147.072 405.932C147.072 405.447 147.471 405.048 147.939 405.048C148.425 405.048 148.824 405.447 148.824 405.932C148.824 406.418 148.425 406.799 147.939 406.799ZM148.598 416.371H147.298V407.996H148.598V416.371ZM157.73 416.371H156.429V415.417C155.736 416.18 154.782 416.579 153.655 416.579C152.233 416.579 150.724 415.625 150.724 413.805C150.724 411.932 152.233 411.047 153.655 411.047C154.799 411.047 155.753 411.412 156.429 412.192V410.683C156.429 409.556 155.527 408.915 154.314 408.915C153.308 408.915 152.493 409.279 151.747 410.076L151.14 409.175C152.042 408.238 153.117 407.788 154.487 407.788C156.256 407.788 157.73 408.585 157.73 410.614V416.371ZM154.123 415.643C155.042 415.643 155.926 415.296 156.429 414.602V413.024C155.926 412.331 155.042 411.984 154.123 411.984C152.909 411.984 152.059 412.747 152.059 413.822C152.059 414.88 152.909 415.643 154.123 415.643ZM161.637 416.371H160.337V404.805H161.637V416.371ZM104.748 437.579C102.736 437.579 101.262 436.816 100.309 435.741L101.158 434.648C101.921 435.498 103.17 436.296 104.8 436.296C106.863 436.296 107.522 435.186 107.522 434.302C107.522 431.319 100.673 432.966 100.673 428.84C100.673 426.932 102.372 425.632 104.644 425.632C106.412 425.632 107.782 426.221 108.753 427.244L107.886 428.302C107.019 427.348 105.805 426.915 104.54 426.915C103.152 426.915 102.164 427.66 102.164 428.753C102.164 431.354 109.013 429.863 109.013 434.18C109.013 435.862 107.869 437.579 104.748 437.579ZM112.938 437.579C111.707 437.579 111.083 436.868 111.083 435.62V430.14H109.695V428.996H111.083V426.707H112.383V428.996H114.082V430.14H112.383V435.342C112.383 435.966 112.661 436.417 113.233 436.417C113.597 436.417 113.944 436.261 114.117 436.07L114.499 437.041C114.169 437.354 113.701 437.579 112.938 437.579ZM122.457 437.371H121.156V436.417C120.463 437.18 119.509 437.579 118.382 437.579C116.96 437.579 115.451 436.625 115.451 434.805C115.451 432.932 116.96 432.047 118.382 432.047C119.526 432.047 120.48 432.412 121.156 433.192V431.683C121.156 430.556 120.255 429.915 119.041 429.915C118.035 429.915 117.22 430.279 116.474 431.076L115.868 430.175C116.769 429.238 117.844 428.788 119.214 428.788C120.983 428.788 122.457 429.585 122.457 431.614V437.371ZM118.85 436.643C119.769 436.643 120.653 436.296 121.156 435.602V434.024C120.653 433.331 119.769 432.984 118.85 432.984C117.636 432.984 116.787 433.747 116.787 434.822C116.787 435.88 117.636 436.643 118.85 436.643ZM126.364 435.099C126.815 435.828 127.838 436.417 128.861 436.417C130.561 436.417 131.566 435.047 131.566 433.192C131.566 431.336 130.561 429.949 128.861 429.949C127.838 429.949 126.815 430.574 126.364 431.302V435.099ZM126.364 437.371H125.064V425.805H126.364V430.261C127.041 429.342 128.046 428.788 129.191 428.788C131.376 428.788 132.919 430.522 132.919 433.192C132.919 435.914 131.376 437.579 129.191 437.579C128.012 437.579 126.989 436.972 126.364 436.122V437.371ZM135.679 427.799C135.211 427.799 134.812 427.418 134.812 426.932C134.812 426.447 135.211 426.048 135.679 426.048C136.165 426.048 136.564 426.447 136.564 426.932C136.564 427.418 136.165 427.799 135.679 427.799ZM136.338 437.371H135.038V428.996H136.338V437.371ZM140.233 437.371H138.932V425.805H140.233V437.371ZM143.469 427.799C143.001 427.799 142.602 427.418 142.602 426.932C142.602 426.447 143.001 426.048 143.469 426.048C143.954 426.048 144.353 426.447 144.353 426.932C144.353 427.418 143.954 427.799 143.469 427.799ZM144.128 437.371H142.827V428.996H144.128V437.371ZM148.837 437.579C147.606 437.579 146.982 436.868 146.982 435.62V430.14H145.595V428.996H146.982V426.707H148.283V428.996H149.982V430.14H148.283V435.342C148.283 435.966 148.56 436.417 149.132 436.417C149.496 436.417 149.843 436.261 150.017 436.07L150.398 437.041C150.069 437.354 149.6 437.579 148.837 437.579ZM151.351 440.648L151.559 439.469C151.75 439.556 152.062 439.608 152.27 439.608C152.842 439.608 153.224 439.417 153.518 438.723L154.073 437.458L150.57 428.996H151.975L154.767 435.862L157.541 428.996H158.963L154.767 439.07C154.264 440.284 153.414 440.752 152.305 440.77C152.027 440.77 151.594 440.717 151.351 440.648Z" fill="#211E1C"></path><circle cx="73.3343" cy="274.018" r="72.3949" fill="#D9DEEF"></circle><path d="M48.0024 280.146H46.5632V270.626L42.627 280.146H42.0374L38.1185 270.626V280.146H36.6793V268.58H38.7428L42.3322 277.285L45.9389 268.58H48.0024V280.146ZM57.1856 280.146H55.8851V279.192C55.1915 279.955 54.2378 280.354 53.1107 280.354C51.6888 280.354 50.1802 279.4 50.1802 277.58C50.1802 275.707 51.6888 274.823 53.1107 274.823C54.2551 274.823 55.2088 275.187 55.8851 275.967V274.458C55.8851 273.331 54.9834 272.69 53.7696 272.69C52.7639 272.69 51.9489 273.054 51.2033 273.852L50.5964 272.95C51.498 272.013 52.5731 271.563 53.943 271.563C55.7117 271.563 57.1856 272.36 57.1856 274.389V280.146ZM53.5789 279.418C54.4979 279.418 55.3822 279.071 55.8851 278.377V276.799C55.3822 276.106 54.4979 275.759 53.5789 275.759C52.3651 275.759 51.5154 276.522 51.5154 277.597C51.5154 278.655 52.3651 279.418 53.5789 279.418ZM61.0931 280.146H59.7926V271.771H61.0931V273.123C61.7693 272.239 62.7404 271.597 63.8848 271.597V272.933C63.7288 272.898 63.5727 272.88 63.3646 272.88C62.567 272.88 61.4746 273.539 61.0931 274.216V280.146ZM72.8857 280.146H71.221L68.2039 276.383L66.8167 277.753V280.146H65.5162V268.58H66.8167V276.227L71.221 271.771H72.8684L69.1576 275.568L72.8857 280.146ZM78.1526 280.354C75.673 280.354 73.8869 278.568 73.8869 275.95C73.8869 273.522 75.621 271.563 78.0139 271.563C80.5455 271.563 82.0368 273.539 82.0368 276.054V276.383H75.2568C75.3609 277.961 76.4706 279.279 78.274 279.279C79.2277 279.279 80.1987 278.898 80.8577 278.221L81.4819 279.071C80.6496 279.903 79.5225 280.354 78.1526 280.354ZM80.7536 275.429C80.7363 274.181 79.904 272.638 77.9966 272.638C76.2105 272.638 75.3262 274.146 75.2568 275.429H80.7536ZM86.2587 280.354C85.0276 280.354 84.4033 279.643 84.4033 278.395V272.915H83.0161V271.771H84.4033V269.482H85.7038V271.771H87.4031V272.915H85.7038V278.117C85.7038 278.741 85.9813 279.192 86.5535 279.192C86.9176 279.192 87.2644 279.036 87.4378 278.845L87.8193 279.817C87.4898 280.129 87.0217 280.354 86.2587 280.354ZM89.8818 270.574C89.4137 270.574 89.0148 270.193 89.0148 269.707C89.0148 269.222 89.4137 268.823 89.8818 268.823C90.3674 268.823 90.7662 269.222 90.7662 269.707C90.7662 270.193 90.3674 270.574 89.8818 270.574ZM90.5408 280.146H89.2402V271.771H90.5408V280.146ZM100.088 280.146H98.7879V274.667C98.7879 273.193 98.0422 272.724 96.9151 272.724C95.8921 272.724 94.921 273.349 94.4355 274.025V280.146H93.135V271.771H94.4355V272.985C95.0251 272.291 96.1695 271.563 97.418 271.563C99.1693 271.563 100.088 272.447 100.088 274.268V280.146ZM106.05 283.545C104.628 283.545 103.657 283.267 102.668 282.296L103.327 281.325C104.021 282.157 104.853 282.47 106.05 282.47C107.437 282.47 108.737 281.793 108.737 279.955V278.759C108.13 279.608 107.107 280.25 105.928 280.25C103.743 280.25 102.2 278.62 102.2 275.915C102.2 273.227 103.726 271.563 105.928 271.563C107.055 271.563 108.061 272.118 108.737 273.037V271.771H110.038V279.903C110.038 282.678 108.096 283.545 106.05 283.545ZM106.24 279.106C107.281 279.106 108.286 278.464 108.737 277.736V274.077C108.286 273.349 107.281 272.724 106.24 272.724C104.558 272.724 103.553 274.06 103.553 275.915C103.553 277.753 104.558 279.106 106.24 279.106Z" fill="#211E1C"></path><circle cx="275.971" cy="273.654" r="144.5" stroke="#EBA607" stroke-width="3"></circle><circle cx="275.471" cy="275.154" r="133.5" fill="#8B3B70"></circle><path d="M221.13 344.494C220.305 344.566 219.577 343.956 219.505 343.131L218.328 329.682C218.256 328.857 218.867 328.129 219.692 328.057C220.517 327.985 221.245 328.595 221.317 329.421L222.363 341.375L234.317 340.329C235.142 340.257 235.87 340.867 235.942 341.693C236.014 342.518 235.404 343.245 234.579 343.318L221.13 344.494ZM248.503 312.556L222.148 343.964L219.85 342.036L246.204 310.628L248.503 312.556Z" fill="#FBBD4F"></path><path d="M331.224 344.494C332.049 344.566 332.776 343.956 332.849 343.131L334.025 329.682C334.097 328.857 333.487 328.129 332.662 328.057C331.836 327.985 331.109 328.595 331.037 329.421L329.991 341.375L318.036 340.329C317.211 340.257 316.484 340.867 316.411 341.693C316.339 342.518 316.95 343.245 317.775 343.318L331.224 344.494ZM303.851 312.556L330.205 343.964L332.503 342.036L306.149 310.628L303.851 312.556Z" fill="#FBBD4F"></path><path d="M274.939 353.653C275.525 354.238 276.475 354.238 277.061 353.653L286.607 344.107C287.192 343.521 287.192 342.571 286.607 341.985C286.021 341.4 285.071 341.4 284.485 341.985L276 350.471L267.515 341.985C266.929 341.4 265.979 341.4 265.393 341.985C264.808 342.571 264.808 343.521 265.393 344.107L274.939 353.653ZM274.5 311.592V352.592H277.5V311.592H274.5Z" fill="#FBBD4F"></path><path d="M224.131 186.937C223.316 186.866 222.596 187.485 222.523 188.32L221.333 201.927C221.26 202.762 221.861 203.497 222.677 203.568C223.492 203.64 224.213 203.021 224.286 202.186L225.343 190.09L237.155 191.123C237.971 191.195 238.691 190.576 238.764 189.741C238.837 188.906 238.235 188.171 237.42 188.099L224.131 186.937ZM251.491 219.645L225.137 187.471L222.862 189.427L249.216 221.601L251.491 219.645Z" fill="#FBBD4F"></path><path d="M334.222 186.937C335.037 186.866 335.758 187.485 335.831 188.32L337.021 201.927C337.094 202.762 336.492 203.497 335.677 203.568C334.861 203.64 334.141 203.021 334.068 202.186L333.01 190.09L321.198 191.123C320.383 191.195 319.663 190.576 319.59 189.741C319.517 188.906 320.118 188.171 320.934 188.099L334.222 186.937ZM306.862 219.645L333.217 187.471L335.492 189.427L309.138 221.601L306.862 219.645Z" fill="#FBBD4F"></path><path d="M277.939 177.562C278.525 176.977 279.475 176.977 280.061 177.562L289.607 187.108C290.192 187.694 290.192 188.644 289.607 189.23C289.021 189.815 288.071 189.815 287.485 189.23L279 180.744L270.515 189.23C269.929 189.815 268.979 189.815 268.393 189.23C267.808 188.644 267.808 187.694 268.393 187.108L277.939 177.562ZM277.5 220.623V178.623H280.5V220.623H277.5Z" fill="#FBBD4F"></path><rect x="174" y="218.623" width="204" height="98" rx="6" fill="#293F76"></rect><path d="M199.754 258.663V258.087C199.754 257.479 200.106 257.127 200.714 257.127H202.57V239.495H200.714C200.106 239.495 199.754 239.143 199.754 238.535V237.991C199.754 237.383 200.106 237.031 200.714 237.031H210.282C211.658 237.031 213.034 237.159 214.154 237.639C216.49 238.663 217.994 241.031 217.994 244.039C217.994 247.207 216.33 249.767 213.738 250.663C212.682 251.047 211.594 251.143 210.346 251.143H205.77V257.127H207.658C208.266 257.127 208.618 257.479 208.618 258.087V258.663C208.618 259.271 208.266 259.623 207.658 259.623H200.714C200.106 259.623 199.754 259.271 199.754 258.663ZM205.77 248.519H209.962C212.842 248.519 214.762 247.207 214.762 244.039C214.762 240.903 212.842 239.655 209.994 239.655H205.77V248.519ZM233.83 256.391L234.15 256.999C234.438 257.543 234.374 257.991 233.894 258.311C232.902 258.983 230.918 260.007 228.294 260.007C223.206 260.007 219.718 256.327 219.718 251.527C219.718 246.375 223.206 243.047 227.814 243.047C232.422 243.047 234.822 246.439 234.822 250.631V250.919C234.822 251.495 234.374 251.815 233.798 251.815H222.886C223.078 255.399 225.606 257.319 228.486 257.319C230.214 257.319 231.654 256.615 232.486 256.103C232.71 255.975 232.934 255.911 233.126 255.911C233.414 255.911 233.67 256.071 233.83 256.391ZM223.014 249.831H231.622C231.526 246.983 229.798 245.511 227.75 245.511C225.382 245.511 223.462 247.111 223.014 249.831ZM249.855 257.863V257.639C249.855 257.095 249.951 256.807 249.951 256.775H249.887C249.759 257.095 248.415 260.007 244.415 260.007C240.063 260.007 237.343 256.551 237.343 251.527C237.343 246.375 240.351 243.047 244.703 243.047C248.223 243.047 249.567 245.479 249.695 245.767H249.759C249.759 245.703 249.663 245.255 249.663 244.551V239.431H247.935C247.327 239.431 246.975 239.079 246.975 238.471V237.991C246.975 237.383 247.327 237.031 247.935 237.031H251.807C252.415 237.031 252.767 237.383 252.767 237.991V256.519C252.767 256.999 253.023 257.223 253.471 257.223H254.143C254.751 257.223 255.103 257.575 255.103 258.183V258.663C255.103 259.271 254.751 259.623 254.143 259.623H251.871C250.431 259.623 249.855 258.919 249.855 257.863ZM245.087 257.319C247.487 257.319 249.759 255.591 249.759 251.559C249.759 248.583 248.255 245.767 245.183 245.767C242.591 245.767 240.511 247.847 240.511 251.527C240.511 255.047 242.399 257.319 245.087 257.319ZM259.65 239.239V237.991C259.65 237.383 260.002 237.031 260.61 237.031H261.954C262.562 237.031 262.914 237.383 262.914 237.991V239.239C262.914 239.847 262.562 240.199 261.954 240.199H260.61C260.002 240.199 259.65 239.847 259.65 239.239ZM257.186 258.663V258.183C257.186 257.575 257.538 257.223 258.146 257.223H259.714V245.831H257.986C257.378 245.831 257.026 245.479 257.026 244.871V244.391C257.026 243.783 257.378 243.431 257.986 243.431H261.858C262.466 243.431 262.818 243.783 262.818 244.391V257.223H264.418C265.026 257.223 265.378 257.575 265.378 258.183V258.663C265.378 259.271 265.026 259.623 264.418 259.623H258.146C257.538 259.623 257.186 259.271 257.186 258.663ZM277.836 257.863V257.639C277.836 256.999 277.964 256.615 277.964 256.583H277.9C277.772 256.935 276.236 260.007 272.492 260.007C269.868 260.007 267.18 258.439 267.18 255.111C267.18 250.023 273.932 249.671 276.62 249.671H277.644V249.063C277.644 246.503 276.172 245.607 274.188 245.607C272.62 245.607 271.212 246.215 270.38 246.663C269.836 246.951 269.388 246.887 269.068 246.311L268.748 245.767C268.428 245.223 268.556 244.775 269.068 244.455C270.06 243.879 271.948 243.047 274.444 243.047C278.572 243.047 280.748 245.191 280.748 249.287V256.519C280.748 256.999 281.004 257.223 281.452 257.223H282.124C282.732 257.223 283.084 257.575 283.084 258.183V258.663C283.084 259.271 282.732 259.623 282.124 259.623H279.852C278.412 259.623 277.836 258.919 277.836 257.863ZM277.676 252.359V251.687H276.876C275.404 251.687 270.316 251.751 270.316 254.855C270.316 256.295 271.372 257.607 273.228 257.607C275.98 257.607 277.676 254.791 277.676 252.359ZM286.917 253.799V245.831H285.157C284.549 245.831 284.197 245.479 284.197 244.871V244.391C284.197 243.783 284.549 243.431 285.157 243.431H286.981V239.943C286.981 239.335 287.333 238.983 287.941 238.983H289.061C289.669 238.983 290.021 239.335 290.021 239.943V243.431H292.933C293.541 243.431 293.893 243.783 293.893 244.391V244.871C293.893 245.479 293.541 245.831 292.933 245.831H290.021V253.319C290.021 256.391 291.909 256.871 293.093 256.967C293.925 257.031 294.213 257.287 294.213 258.023V258.695C294.213 259.431 293.797 259.751 292.933 259.751C289.733 259.751 286.917 257.895 286.917 253.799ZM296.5 258.663V258.183C296.5 257.575 296.852 257.223 297.46 257.223H298.932V246.535C298.932 246.055 298.676 245.831 298.228 245.831H297.172C296.564 245.831 296.212 245.479 296.212 244.871V244.391C296.212 243.783 296.564 243.431 297.172 243.431H299.86C301.268 243.431 301.94 244.007 301.94 245.319V246.343C301.94 247.015 301.844 247.495 301.844 247.559H301.908C302.612 245.415 304.436 243.303 306.868 243.303C307.604 243.303 307.892 243.655 307.892 244.359V245.255C307.892 245.959 307.476 246.311 306.74 246.311C303.572 246.311 302.036 249.735 302.036 252.935V257.223H303.476C304.084 257.223 304.436 257.575 304.436 258.183V258.663C304.436 259.271 304.084 259.623 303.476 259.623H297.46C296.852 259.623 296.5 259.271 296.5 258.663ZM312.181 239.239V237.991C312.181 237.383 312.533 237.031 313.141 237.031H314.485C315.093 237.031 315.445 237.383 315.445 237.991V239.239C315.445 239.847 315.093 240.199 314.485 240.199H313.141C312.533 240.199 312.181 239.847 312.181 239.239ZM309.717 258.663V258.183C309.717 257.575 310.069 257.223 310.677 257.223H312.245V245.831H310.517C309.909 245.831 309.557 245.479 309.557 244.871V244.391C309.557 243.783 309.909 243.431 310.517 243.431H314.389C314.997 243.431 315.349 243.783 315.349 244.391V257.223H316.949C317.557 257.223 317.909 257.575 317.909 258.183V258.663C317.909 259.271 317.557 259.623 316.949 259.623H310.677C310.069 259.623 309.717 259.271 309.717 258.663ZM334.464 256.167L334.752 256.743C335.008 257.255 334.976 257.703 334.496 258.055C333.408 258.855 331.392 260.007 328.672 260.007C324 260.007 319.936 256.775 319.936 251.559C319.936 246.599 323.68 243.047 328.512 243.047C330.912 243.047 334.847 243.943 334.847 246.727V247.751C334.847 248.359 334.496 248.711 333.888 248.711H333.056C332.448 248.711 332.096 248.359 332.096 247.751V247.591C332.096 246.343 330.048 245.735 328.608 245.735C325.344 245.735 323.104 248.039 323.104 251.495C323.104 255.175 325.696 257.319 328.8 257.319C330.752 257.319 332.224 256.519 333.152 255.879C333.376 255.719 333.568 255.655 333.76 255.655C334.048 255.655 334.304 255.815 334.464 256.167ZM347.805 257.863V257.639C347.805 256.999 347.933 256.615 347.933 256.583H347.869C347.741 256.935 346.205 260.007 342.461 260.007C339.837 260.007 337.149 258.439 337.149 255.111C337.149 250.023 343.901 249.671 346.589 249.671H347.613V249.063C347.613 246.503 346.141 245.607 344.157 245.607C342.589 245.607 341.181 246.215 340.349 246.663C339.805 246.951 339.357 246.887 339.037 246.311L338.717 245.767C338.397 245.223 338.525 244.775 339.037 244.455C340.029 243.879 341.917 243.047 344.413 243.047C348.541 243.047 350.717 245.191 350.717 249.287V256.519C350.717 256.999 350.973 257.223 351.421 257.223H352.093C352.701 257.223 353.053 257.575 353.053 258.183V258.663C353.053 259.271 352.701 259.623 352.093 259.623H349.821C348.381 259.623 347.805 258.919 347.805 257.863ZM347.645 252.359V251.687H346.845C345.373 251.687 340.285 251.751 340.285 254.855C340.285 256.295 341.341 257.607 343.197 257.607C345.949 257.607 347.645 254.791 347.645 252.359ZM211.192 297.663V297.087C211.192 296.479 211.544 296.127 212.152 296.127H214.008V278.495H212.152C211.544 278.495 211.192 278.143 211.192 277.535V276.991C211.192 276.383 211.544 276.031 212.152 276.031H221.72C223.096 276.031 224.472 276.159 225.592 276.639C227.928 277.663 229.432 280.031 229.432 283.039C229.432 286.207 227.767 288.767 225.176 289.663C224.12 290.047 223.032 290.143 221.784 290.143H217.208V296.127H219.095C219.704 296.127 220.056 296.479 220.056 297.087V297.663C220.056 298.271 219.704 298.623 219.095 298.623H212.152C211.544 298.623 211.192 298.271 211.192 297.663ZM217.208 287.519H221.4C224.28 287.519 226.2 286.207 226.2 283.039C226.2 279.903 224.28 278.655 221.432 278.655H217.208V287.519ZM231.719 297.663V297.183C231.719 296.575 232.071 296.223 232.679 296.223H234.151V285.535C234.151 285.055 233.895 284.831 233.447 284.831H232.391C231.783 284.831 231.431 284.479 231.431 283.871V283.391C231.431 282.783 231.783 282.431 232.391 282.431H235.079C236.487 282.431 237.159 283.007 237.159 284.319V285.343C237.159 286.015 237.063 286.495 237.063 286.559H237.127C237.831 284.415 239.655 282.303 242.087 282.303C242.823 282.303 243.111 282.655 243.111 283.359V284.255C243.111 284.959 242.695 285.311 241.959 285.311C238.791 285.311 237.255 288.735 237.255 291.935V296.223H238.695C239.303 296.223 239.655 296.575 239.655 297.183V297.663C239.655 298.271 239.303 298.623 238.695 298.623H232.679C232.071 298.623 231.719 298.271 231.719 297.663ZM244.373 290.495C244.373 285.599 248.277 282.047 253.109 282.047C257.941 282.047 261.845 285.599 261.845 290.495C261.845 295.423 257.941 299.007 253.109 299.007C248.277 299.007 244.373 295.423 244.373 290.495ZM253.109 296.319C256.149 296.319 258.677 293.887 258.677 290.495C258.677 287.135 256.149 284.735 253.109 284.735C250.037 284.735 247.541 287.135 247.541 290.495C247.541 293.887 250.037 296.319 253.109 296.319ZM269.799 297.855L264.871 284.831H263.783C263.175 284.831 262.823 284.479 262.823 283.871V283.391C262.823 282.783 263.175 282.431 263.783 282.431H269.127C269.735 282.431 270.087 282.783 270.087 283.391V283.871C270.087 284.479 269.735 284.831 269.127 284.831H268.007L271.431 294.271C271.687 294.975 271.783 295.679 271.783 295.775H271.879C271.879 295.679 271.975 294.975 272.231 294.271L275.687 284.831H274.567C273.959 284.831 273.607 284.479 273.607 283.871V283.391C273.607 282.783 273.959 282.431 274.567 282.431H279.879C280.487 282.431 280.839 282.783 280.839 283.391V283.871C280.839 284.479 280.487 284.831 279.879 284.831H278.823L273.863 297.855C273.671 298.399 273.319 298.623 272.775 298.623H270.887C270.343 298.623 269.991 298.399 269.799 297.855ZM284.993 278.239V276.991C284.993 276.383 285.345 276.031 285.953 276.031H287.297C287.905 276.031 288.257 276.383 288.257 276.991V278.239C288.257 278.847 287.905 279.199 287.297 279.199H285.953C285.345 279.199 284.993 278.847 284.993 278.239ZM282.529 297.663V297.183C282.529 296.575 282.881 296.223 283.489 296.223H285.057V284.831H283.329C282.721 284.831 282.369 284.479 282.369 283.871V283.391C282.369 282.783 282.721 282.431 283.329 282.431H287.201C287.809 282.431 288.161 282.783 288.161 283.391V296.223H289.761C290.369 296.223 290.721 296.575 290.721 297.183V297.663C290.721 298.271 290.369 298.623 289.761 298.623H283.489C282.881 298.623 282.529 298.271 282.529 297.663ZM305.324 296.863V296.639C305.324 296.095 305.42 295.807 305.42 295.775H305.356C305.228 296.095 303.884 299.007 299.884 299.007C295.532 299.007 292.812 295.551 292.812 290.527C292.812 285.375 295.82 282.047 300.172 282.047C303.692 282.047 305.036 284.479 305.164 284.767H305.228C305.228 284.703 305.132 284.255 305.132 283.551V278.431H303.404C302.796 278.431 302.444 278.079 302.444 277.471V276.991C302.444 276.383 302.796 276.031 303.404 276.031H307.276C307.884 276.031 308.236 276.383 308.236 276.991V295.519C308.236 295.999 308.492 296.223 308.94 296.223H309.612C310.22 296.223 310.572 296.575 310.572 297.183V297.663C310.572 298.271 310.22 298.623 309.612 298.623H307.34C305.9 298.623 305.324 297.919 305.324 296.863ZM300.556 296.319C302.956 296.319 305.228 294.591 305.228 290.559C305.228 287.583 303.724 284.767 300.652 284.767C298.06 284.767 295.98 286.847 295.98 290.527C295.98 294.047 297.868 296.319 300.556 296.319ZM326.798 295.391L327.118 295.999C327.406 296.543 327.342 296.991 326.862 297.311C325.87 297.983 323.886 299.007 321.262 299.007C316.174 299.007 312.686 295.327 312.686 290.527C312.686 285.375 316.174 282.047 320.782 282.047C325.39 282.047 327.79 285.439 327.79 289.631V289.919C327.79 290.495 327.342 290.815 326.766 290.815H315.854C316.046 294.399 318.574 296.319 321.454 296.319C323.182 296.319 324.622 295.615 325.454 295.103C325.678 294.975 325.902 294.911 326.094 294.911C326.382 294.911 326.638 295.071 326.798 295.391ZM315.982 288.831H324.59C324.494 285.983 322.766 284.511 320.718 284.511C318.35 284.511 316.43 286.111 315.982 288.831ZM330.344 297.663V297.183C330.344 296.575 330.696 296.223 331.304 296.223H332.776V285.535C332.776 285.055 332.52 284.831 332.072 284.831H331.016C330.408 284.831 330.056 284.479 330.056 283.871V283.391C330.056 282.783 330.408 282.431 331.016 282.431H333.704C335.112 282.431 335.784 283.007 335.784 284.319V285.343C335.784 286.015 335.688 286.495 335.688 286.559H335.752C336.456 284.415 338.28 282.303 340.712 282.303C341.448 282.303 341.736 282.655 341.736 283.359V284.255C341.736 284.959 341.32 285.311 340.584 285.311C337.416 285.311 335.88 288.735 335.88 291.935V296.223H337.32C337.928 296.223 338.28 296.575 338.28 297.183V297.663C338.28 298.271 337.928 298.623 337.32 298.623H331.304C330.696 298.623 330.344 298.271 330.344 297.663Z" fill="white"></path></svg> 