<?xml version="1.0" encoding="UTF-8"?> <svg xmlns="http://www.w3.org/2000/svg" width="55" height="54" viewBox="0 0 55 54" fill="none"><path d="M32.5914 13.7721L27.1832 19.4202C24.5543 22.2078 20.4304 22.2078 17.8865 19.5535L27.0597 9.98129M27.0345 10.0077C32.5175 4.28621 42.1722 3.48787 47.6553 9.20922C53.1383 14.9307 53.1383 24.2069 47.6553 29.9283M32.6808 13.8299L46.5386 28.2903C47.7736 29.5786 47.7196 31.6675 46.4846 32.9557C45.2501 34.2443 43.2481 34.2439 42.0135 32.9556M32.6912 23.2605L42.025 33.0001C43.2597 34.2888 43.2058 36.3775 41.971 37.6658C40.7363 38.9544 38.7344 38.9542 37.4999 37.6657L28.1661 27.9259M37.5113 37.7102C38.7461 38.9987 38.6921 41.0878 37.4574 42.3758C36.2227 43.6643 34.2207 43.664 32.986 42.3758M9.55057 31.1316L8.28234 29.8083C2.79929 24.0868 2.03429 14.0124 7.51717 8.29116C13.0002 2.56957 21.8899 2.56969 27.373 8.29116L27.7582 8.69534M28.9803 49.4153C27.7456 50.7037 25.7436 50.6474 24.5089 49.359C23.2742 48.0706 23.2747 45.9819 24.5091 44.6934L27.6462 41.4199C28.881 40.1315 30.883 40.1878 32.1174 41.4762C33.3523 42.7647 33.352 44.8534 32.1174 46.1417L28.9803 49.4153ZM24.4665 44.7053C23.2316 45.9937 21.2299 45.9375 19.9953 44.6491C18.7603 43.3607 18.7607 41.2717 19.9953 39.9834L23.1324 36.71C24.3674 35.4216 26.3694 35.4778 27.6038 36.766C28.8385 38.0545 28.8383 40.1435 27.6038 41.4319L24.4665 44.7053ZM19.9529 39.9954C18.718 41.2838 16.7161 41.2274 15.4814 39.9391C14.2467 38.6506 14.2471 36.5619 15.4815 35.2736L18.6187 32C19.8535 30.7113 21.8555 30.7677 23.0899 32.0562C24.3249 33.3446 24.3246 35.4336 23.0899 36.7219L19.9529 39.9954ZM15.4389 35.2853C14.2042 36.5737 12.2023 36.5176 10.9677 35.2292C9.73297 33.9407 9.73319 31.8518 10.9678 30.5635L14.1049 27.2898C15.3399 26.0015 17.3415 26.0578 18.5763 27.3462C19.8111 28.6345 19.8107 30.7236 18.5762 32.0118L15.4389 35.2853Z" stroke="white" stroke-width="3" stroke-linecap="round"></path></svg> 