<?xml version="1.0" encoding="UTF-8"?> <svg xmlns="http://www.w3.org/2000/svg" id="pediatrica-provider" viewBox="0 0 554 545" fill="none"><g class="graphic"><g class="block"><circle id="Ellipse 136" cx="132.334" cy="131.018" r="72.3949" fill="#D9DEEF"></circle><text id="Payroll" fill="#211E1C" xml:space="preserve" style="white-space: pre" font-family="Proxima Nova" font-size="17.3401" letter-spacing="0em"> <tspan x="106.875" y="138.04">Payroll</tspan> </text></g><g class="block"><circle id="Ellipse 136_2" cx="73.3343" cy="274.018" r="72.3949" fill="#D9DEEF"></circle><text id="Marketing" fill="#211E1C" xml:space="preserve" style="white-space: pre" font-family="Proxima Nova" font-size="17.3401" letter-spacing="0em"> <tspan x="35.327" y="279.943">Marketing</tspan> </text></g><g class="block"><circle id="Ellipse 136_3" cx="129.334" cy="419.018" r="72.3949" fill="#D9DEEF"></circle><text id="Financial Stability" fill="#211E1C" xml:space="preserve" style="white-space: pre" font-family="Proxima Nova" font-size="17.3401" letter-spacing="0em"> <tspan x="95.7384" y="416.168">Financial</tspan> <tspan x="99.6501" y="436.976">Stability</tspan> </text></g><g class="block"><circle id="Ellipse 136_4" cx="276.334" cy="472.018" r="72.3949" fill="#D9DEEF"></circle><text id="Potential Bonus Participation" fill="#211E1C" xml:space="preserve" style="white-space: pre" font-family="Proxima Nova" font-size="17.3401" letter-spacing="0em"> <tspan x="243.17" y="457.102">Potential </tspan> <tspan x="252.34" y="477.91">Bonus </tspan> <tspan x="229.479" y="498.718">Participation</tspan> </text></g><g class="block"><circle id="Ellipse 136_5" cx="421.335" cy="417.018" r="72.3949" fill="#D9DEEF"></circle><text id="Liquidity" fill="#211E1C" xml:space="preserve" style="white-space: pre" font-family="Proxima Nova" font-size="17.3401" letter-spacing="0em"> <tspan x="389.55" y="422.943">Liquidity</tspan> </text></g><g class="block"><circle id="Ellipse 136_6" cx="481.606" cy="274.018" r="72.3949" fill="#D9DEEF"></circle><text id="EMR/ Revenue Cycle" fill="#211E1C" xml:space="preserve" style="white-space: pre" font-family="Proxima Nova" font-size="17.3401" letter-spacing="0em"> <tspan x="461.819" y="259.102">EMR/</tspan> <tspan x="448.137" y="279.91">Revenue</tspan> <tspan x="460.371" y="300.718">Cycle</tspan> </text></g><g class="block"><circle id="Ellipse 136_7" cx="419.335" cy="134.018" r="72.3949" fill="#D9DEEF"></circle><text id="Recruiting &amp; Staffing" fill="#211E1C" xml:space="preserve" style="white-space: pre" font-family="Proxima Nova" font-size="17.3401" letter-spacing="0em"> <tspan x="381.31" y="127.877">Recruiting</tspan> <tspan x="382.868" y="148.685">&amp; Staffing</tspan> </text></g><g class="block"><circle id="Ellipse 136_8" cx="276.334" cy="72.3949" r="72.3949" fill="#D9DEEF"></circle><text id="Payor Contracting and Care Coordination" fill="#211E1C" xml:space="preserve" style="white-space: pre" font-family="Proxima Nova" font-size="17.3401" letter-spacing="0em"> <tspan x="253.992" y="40.883">Payor </tspan> <tspan x="231.436" y="61.6911">Contracting </tspan> <tspan x="240.809" y="82.4992">and Care</tspan> <tspan x="226.399" y="103.307">Coordination</tspan> </text></g><g class="center"><circle cx="275.971" cy="273.654" r="144.5" stroke="#EBA607" stroke-width="3" class="border"></circle><circle id="Ellipse 136_9" cx="275.471" cy="275.154" r="133.5" fill="#8B3B70"></circle><g class="arrows arrows--bottom"><path id="Vector 1321" d="M221.131 344.494C220.305 344.566 219.578 343.956 219.506 343.131L218.329 329.682C218.257 328.857 218.867 328.129 219.693 328.057C220.518 327.985 221.246 328.595 221.318 329.421L222.364 341.375L234.318 340.329C235.143 340.257 235.871 340.867 235.943 341.693C236.015 342.518 235.405 343.245 234.579 343.318L221.131 344.494ZM248.503 312.556L222.149 343.964L219.851 342.036L246.205 310.628L248.503 312.556Z" fill="#FBBD4F"></path><path id="Vector 1320" d="M331.224 344.494C332.05 344.566 332.777 343.956 332.849 343.131L334.026 329.682C334.098 328.857 333.488 328.129 332.662 328.057C331.837 327.985 331.11 328.595 331.037 329.421L329.992 341.375L318.037 340.329C317.212 340.257 316.484 340.867 316.412 341.693C316.34 342.518 316.95 343.245 317.776 343.318L331.224 344.494ZM303.852 312.556L330.206 343.964L332.504 342.036L306.15 310.628L303.852 312.556Z" fill="#FBBD4F"></path><path id="Vector 1319" d="M274.94 353.653C275.526 354.239 276.476 354.239 277.061 353.653L286.607 344.107C287.193 343.521 287.193 342.571 286.607 341.986C286.022 341.4 285.072 341.4 284.486 341.986L276.001 350.471L267.516 341.986C266.93 341.4 265.98 341.4 265.394 341.986C264.808 342.571 264.808 343.521 265.394 344.107L274.94 353.653ZM274.501 311.592V352.592H277.501V311.592H274.501Z" fill="#FBBD4F"></path></g><g class="arrows arrows--top"><path id="Vector 1321_2" d="M224.132 186.937C223.317 186.866 222.597 187.485 222.524 188.32L221.333 201.927C221.26 202.762 221.862 203.497 222.678 203.568C223.493 203.64 224.213 203.021 224.286 202.186L225.344 190.09L237.156 191.123C237.971 191.195 238.692 190.576 238.765 189.741C238.838 188.906 238.236 188.171 237.42 188.1L224.132 186.937ZM251.492 219.645L225.138 187.471L222.862 189.427L249.217 221.601L251.492 219.645Z" fill="#FBBD4F"></path><path id="Vector 1320_2" d="M334.223 186.937C335.038 186.866 335.759 187.485 335.832 188.32L337.022 201.927C337.095 202.762 336.493 203.497 335.677 203.568C334.862 203.64 334.142 203.021 334.069 202.186L333.011 190.09L321.199 191.123C320.384 191.195 319.664 190.576 319.59 189.741C319.517 188.906 320.119 188.171 320.935 188.1L334.223 186.937ZM306.863 219.645L333.218 187.471L335.493 189.427L309.138 221.601L306.863 219.645Z" fill="#FBBD4F"></path><path id="Vector 1319_2" d="M277.94 177.562C278.526 176.977 279.476 176.977 280.061 177.562L289.607 187.108C290.193 187.694 290.193 188.644 289.607 189.23C289.022 189.816 288.072 189.816 287.486 189.23L279.001 180.744L270.516 189.23C269.93 189.816 268.98 189.816 268.394 189.23C267.808 188.644 267.808 187.694 268.394 187.108L277.94 177.562ZM277.501 220.623V178.623H280.501V220.623H277.501Z" fill="#FBBD4F"></path></g><g class="frame"><rect x="174" y="218.623" width="204" height="98" rx="6" fill="#293F76"></rect><text fill="white" xml:space="preserve" style="white-space: pre" font-family="Museo Slab\ 500" font-size="32" letter-spacing="0em" class="text"> <tspan x="198.25" y="259.323">Pediatrica</tspan> <tspan x="209.688" y="298.323">Provider</tspan> </text></g></g></g></svg> 