<?xml version="1.0" encoding="UTF-8"?> <svg xmlns="http://www.w3.org/2000/svg" width="55" height="54" viewBox="0 0 55 54" fill="none"><path d="M42.8613 51.75C46.0678 47.9286 48.0176 42.8822 48.0176 37.35C48.0176 25.8327 39.5668 16.4207 28.9186 15.7843M48.0176 51.75H7.51758M13.1426 31.5V34.875C13.1426 36.1176 14.1499 37.125 15.3926 37.125H17.6426C18.8852 37.125 19.8926 36.1176 19.8926 34.875L19.8926 31.5M19.8926 6.75V4.5C19.8926 3.25736 18.8852 2.25 17.6426 2.25L15.3926 2.25C14.1499 2.25 13.1426 3.25736 13.1426 4.5L13.1426 6.75M27.7676 51.75C35.2234 51.75 41.2676 45.2022 41.2676 37.125C41.2676 29.4453 35.8036 23.1481 28.8573 22.547M21.0176 45V51.75M12.0176 51.75V45M23.2676 45H9.76758M23.2676 13.6125V9C23.2676 7.75736 22.2602 6.75 21.0176 6.75L12.0176 6.75C10.7749 6.75 9.76758 7.75736 9.76758 9L9.76758 29.25C9.76758 30.4926 10.7749 31.5 12.0176 31.5H21.0176C22.2602 31.5 23.2676 30.4926 23.2676 29.25V24.6375M28.8573 22.547C29.585 21.5989 30.0176 20.4125 30.0176 19.125C30.0176 17.8741 29.6092 16.7185 28.9186 15.7843M28.8573 22.547C27.8291 23.8865 26.2117 24.75 24.3926 24.75C21.286 24.75 18.7676 22.2316 18.7676 19.125C18.7676 16.0184 21.286 13.5 24.3926 13.5C26.2482 13.5 27.894 14.3986 28.9186 15.7843" stroke="white" stroke-width="3" stroke-linecap="round"></path></svg> 